<?xml version="1.0" encoding="UTF-8" standalone="no"?>
<!DOCTYPE svg PUBLIC "-//W3C//DTD SVG 1.1//EN"
 "http://www.w3.org/Graphics/SVG/1.1/DTD/svg11.dtd">
<!-- Generated by graphviz version 2.40.1 (20161225.0304)
 -->
<!-- Title: dependencies Pages: 1 -->
<svg width="504pt" height="284pt"
 viewBox="0.00 0.00 504.00 284.00" xmlns="http://www.w3.org/2000/svg" xmlns:xlink="http://www.w3.org/1999/xlink">
<g id="graph0" class="graph" transform="scale(1 1) rotate(0) translate(4 280)">
<title>dependencies</title>
<polygon fill="#ffffff" stroke="transparent" points="-4,4 -4,-280 500,-280 500,4 -4,4"/>
<text text-anchor="start" x="227.0091" y="-42.4" font-family="sans-serif" font-weight="bold" font-size="14.00" fill="#000000">Legend</text>
<polygon fill="#ffffb3" stroke="transparent" points="14,-10 14,-30 34,-30 34,-10 14,-10"/>
<text text-anchor="start" x="37.629" y="-15.4" font-family="sans-serif" font-size="14.00" fill="#000000"> &#160;Declarations</text>
<polygon fill="#8dd3c7" stroke="transparent" points="127,-10 127,-30 147,-30 147,-10 127,-10"/>
<text text-anchor="start" x="150.7251" y="-15.4" font-family="sans-serif" font-size="14.00" fill="#000000"> &#160;Module</text>
<polygon fill="#80b1d3" stroke="transparent" points="213,-10 213,-30 233,-30 233,-10 213,-10"/>
<text text-anchor="start" x="236.7812" y="-15.4" font-family="sans-serif" font-size="14.00" fill="#000000"> &#160;Bootstrap</text>
<polygon fill="#fdb462" stroke="transparent" points="310,-10 310,-30 330,-30 330,-10 310,-10"/>
<text text-anchor="start" x="333.6732" y="-15.4" font-family="sans-serif" font-size="14.00" fill="#000000"> &#160;Providers</text>
<polygon fill="#fb8072" stroke="transparent" points="406,-10 406,-30 426,-30 426,-10 406,-10"/>
<text text-anchor="start" x="429.7258" y="-15.4" font-family="sans-serif" font-size="14.00" fill="#000000"> &#160;Exports</text>
<g id="clust1" class="cluster">
<title>cluster_BatchModule</title>
<polygon fill="none" stroke="#000000" stroke-dasharray="1,5" points="21,-70 21,-268 475,-268 475,-70 21,-70"/>
</g>
<g id="clust2" class="cluster">
<title>cluster_BatchModule_declarations</title>
<polygon fill="none" stroke="#000000" points="139,-78 139,-130 467,-130 467,-78 139,-78"/>
</g>
<g id="clust5" class="cluster">
<title>cluster_BatchModule_imports</title>
<polygon fill="none" stroke="#000000" points="29,-78 29,-130 131,-130 131,-78 29,-78"/>
</g>
<g id="clust6" class="cluster">
<title>cluster_BatchModule_exports</title>
<polygon fill="none" stroke="#000000" points="80,-208 80,-260 416,-260 416,-208 80,-208"/>
</g>
<!-- BatchModalComponent -->
<g id="node1" class="node">
<title>BatchModalComponent</title>
<polygon fill="#ffffb3" stroke="#000000" points="459.0393,-122 308.9607,-122 308.9607,-86 459.0393,-86 459.0393,-122"/>
<text text-anchor="middle" x="384" y="-99.8" font-family="Times,serif" font-size="14.00" fill="#000000">BatchModalComponent</text>
</g>
<!-- BatchModule -->
<g id="node3" class="node">
<title>BatchModule</title>
<polygon fill="#8dd3c7" stroke="#000000" points="265.2064,-187 262.2064,-191 241.2064,-191 238.2064,-187 172.7936,-187 172.7936,-151 265.2064,-151 265.2064,-187"/>
<text text-anchor="middle" x="219" y="-164.8" font-family="Times,serif" font-size="14.00" fill="#000000">BatchModule</text>
</g>
<!-- BatchModalComponent&#45;&gt;BatchModule -->
<g id="edge1" class="edge">
<title>BatchModalComponent&#45;&gt;BatchModule</title>
<path fill="none" stroke="#000000" d="M358.375,-122.1061C358.375,-141.3391 358.375,-169 358.375,-169 358.375,-169 275.4099,-169 275.4099,-169"/>
<polygon fill="#000000" stroke="#000000" points="275.4099,-165.5001 265.4099,-169 275.4098,-172.5001 275.4099,-165.5001"/>
</g>
<!-- BatchViewComponent -->
<g id="node2" class="node">
<title>BatchViewComponent</title>
<polygon fill="#ffffb3" stroke="#000000" points="291.3075,-122 146.6925,-122 146.6925,-86 291.3075,-86 291.3075,-122"/>
<text text-anchor="middle" x="219" y="-99.8" font-family="Times,serif" font-size="14.00" fill="#000000">BatchViewComponent</text>
</g>
<!-- BatchViewComponent&#45;&gt;BatchModule -->
<g id="edge2" class="edge">
<title>BatchViewComponent&#45;&gt;BatchModule</title>
<path fill="none" stroke="#000000" d="M219,-122.1061C219,-122.1061 219,-140.991 219,-140.991"/>
<polygon fill="#000000" stroke="#000000" points="215.5001,-140.9909 219,-150.991 222.5001,-140.991 215.5001,-140.9909"/>
</g>
<!-- BatchModalComponent  -->
<g id="node5" class="node">
<title>BatchModalComponent </title>
<polygon fill="#fb8072" stroke="#000000" points="408.0386,-252 253.9614,-252 253.9614,-216 408.0386,-216 408.0386,-252"/>
<text text-anchor="middle" x="331" y="-229.8" font-family="Times,serif" font-size="14.00" fill="#000000">BatchModalComponent </text>
</g>
<!-- BatchModule&#45;&gt;BatchModalComponent  -->
<g id="edge4" class="edge">
<title>BatchModule&#45;&gt;BatchModalComponent </title>
<path fill="none" stroke="#000000" stroke-dasharray="5,2" d="M259.5419,-187.1061C259.5419,-187.1061 259.5419,-205.991 259.5419,-205.991"/>
<polygon fill="#000000" stroke="#000000" points="256.042,-205.9909 259.5419,-215.991 263.042,-205.991 256.042,-205.9909"/>
</g>
<!-- BatchViewComponent  -->
<g id="node6" class="node">
<title>BatchViewComponent </title>
<polygon fill="#fb8072" stroke="#000000" points="235.8073,-252 88.1927,-252 88.1927,-216 235.8073,-216 235.8073,-252"/>
<text text-anchor="middle" x="162" y="-229.8" font-family="Times,serif" font-size="14.00" fill="#000000">BatchViewComponent </text>
</g>
<!-- BatchModule&#45;&gt;BatchViewComponent  -->
<g id="edge5" class="edge">
<title>BatchModule&#45;&gt;BatchViewComponent </title>
<path fill="none" stroke="#000000" stroke-dasharray="5,2" d="M204.4003,-187.1061C204.4003,-187.1061 204.4003,-205.991 204.4003,-205.991"/>
<polygon fill="#000000" stroke="#000000" points="200.9003,-205.9909 204.4003,-215.991 207.9003,-205.991 200.9003,-205.9909"/>
</g>
<!-- UserModule -->
<g id="node4" class="node">
<title>UserModule</title>
<polygon fill="#8dd3c7" stroke="#000000" points="122.9762,-122 119.9762,-126 98.9762,-126 95.9762,-122 37.0238,-122 37.0238,-86 122.9762,-86 122.9762,-122"/>
<text text-anchor="middle" x="80" y="-99.8" font-family="Times,serif" font-size="14.00" fill="#000000">UserModule</text>
</g>
<!-- UserModule&#45;&gt;BatchModule -->
<g id="edge3" class="edge">
<title>UserModule&#45;&gt;BatchModule</title>
<path fill="none" stroke="#000000" d="M105.5423,-122.1061C105.5423,-141.3391 105.5423,-169 105.5423,-169 105.5423,-169 162.8524,-169 162.8524,-169"/>
<polygon fill="#000000" stroke="#000000" points="162.8524,-172.5001 172.8524,-169 162.8524,-165.5001 162.8524,-172.5001"/>
</g>
</g>
</svg>
