<?xml version="1.0" encoding="UTF-8" standalone="no"?>
<!DOCTYPE svg PUBLIC "-//W3C//DTD SVG 1.1//EN"
 "http://www.w3.org/Graphics/SVG/1.1/DTD/svg11.dtd">
<!-- Generated by graphviz version 2.40.1 (20161225.0304)
 -->
<!-- Title: dependencies Pages: 1 -->
<svg width="540pt" height="284pt"
 viewBox="0.00 0.00 540.00 284.00" xmlns="http://www.w3.org/2000/svg" xmlns:xlink="http://www.w3.org/1999/xlink">
<g id="graph0" class="graph" transform="scale(1 1) rotate(0) translate(4 280)">
<title>dependencies</title>
<polygon fill="#ffffff" stroke="transparent" points="-4,4 -4,-280 536,-280 536,4 -4,4"/>
<text text-anchor="start" x="245.0091" y="-42.4" font-family="sans-serif" font-weight="bold" font-size="14.00" fill="#000000">Legend</text>
<polygon fill="#ffffb3" stroke="transparent" points="32,-10 32,-30 52,-30 52,-10 32,-10"/>
<text text-anchor="start" x="55.629" y="-15.4" font-family="sans-serif" font-size="14.00" fill="#000000"> &#160;Declarations</text>
<polygon fill="#8dd3c7" stroke="transparent" points="145,-10 145,-30 165,-30 165,-10 145,-10"/>
<text text-anchor="start" x="168.7251" y="-15.4" font-family="sans-serif" font-size="14.00" fill="#000000"> &#160;Module</text>
<polygon fill="#80b1d3" stroke="transparent" points="231,-10 231,-30 251,-30 251,-10 231,-10"/>
<text text-anchor="start" x="254.7812" y="-15.4" font-family="sans-serif" font-size="14.00" fill="#000000"> &#160;Bootstrap</text>
<polygon fill="#fdb462" stroke="transparent" points="328,-10 328,-30 348,-30 348,-10 328,-10"/>
<text text-anchor="start" x="351.6732" y="-15.4" font-family="sans-serif" font-size="14.00" fill="#000000"> &#160;Providers</text>
<polygon fill="#fb8072" stroke="transparent" points="424,-10 424,-30 444,-30 444,-10 424,-10"/>
<text text-anchor="start" x="447.7258" y="-15.4" font-family="sans-serif" font-size="14.00" fill="#000000"> &#160;Exports</text>
<g id="clust1" class="cluster">
<title>cluster_BatchModule</title>
<polygon fill="none" stroke="#000000" stroke-dasharray="1,5" points="8,-70 8,-268 524,-268 524,-70 8,-70"/>
</g>
<g id="clust2" class="cluster">
<title>cluster_BatchModule_declarations</title>
<polygon fill="none" stroke="#000000" points="21,-78 21,-130 510,-130 510,-78 21,-78"/>
</g>
<g id="clust7" class="cluster">
<title>cluster_BatchModule_exports</title>
<polygon fill="none" stroke="#000000" points="16,-208 16,-260 516,-260 516,-208 16,-208"/>
</g>
<!-- BatchModalComponent -->
<g id="node1" class="node">
<title>BatchModalComponent</title>
<polygon fill="#ffffb3" stroke="#000000" points="502.0393,-122 351.9607,-122 351.9607,-86 502.0393,-86 502.0393,-122"/>
<text text-anchor="middle" x="427" y="-99.8" font-family="Times,serif" font-size="14.00" fill="#000000">BatchModalComponent</text>
</g>
<!-- BatchModule -->
<g id="node4" class="node">
<title>BatchModule</title>
<polygon fill="#8dd3c7" stroke="#000000" points="308.2064,-187 305.2064,-191 284.2064,-191 281.2064,-187 215.7936,-187 215.7936,-151 308.2064,-151 308.2064,-187"/>
<text text-anchor="middle" x="262" y="-164.8" font-family="Times,serif" font-size="14.00" fill="#000000">BatchModule</text>
</g>
<!-- BatchModalComponent&#45;&gt;BatchModule -->
<g id="edge1" class="edge">
<title>BatchModalComponent&#45;&gt;BatchModule</title>
<path fill="none" stroke="#000000" d="M452.8398,-122.0225C452.8398,-139.3734 452.8398,-163 452.8398,-163 452.8398,-163 318.197,-163 318.197,-163"/>
<polygon fill="#000000" stroke="#000000" points="318.197,-159.5001 308.197,-163 318.1969,-166.5001 318.197,-159.5001"/>
</g>
<!-- BatchViewComponent -->
<g id="node2" class="node">
<title>BatchViewComponent</title>
<polygon fill="#ffffb3" stroke="#000000" points="334.3075,-122 189.6925,-122 189.6925,-86 334.3075,-86 334.3075,-122"/>
<text text-anchor="middle" x="262" y="-99.8" font-family="Times,serif" font-size="14.00" fill="#000000">BatchViewComponent</text>
</g>
<!-- BatchViewComponent&#45;&gt;BatchModule -->
<g id="edge2" class="edge">
<title>BatchViewComponent&#45;&gt;BatchModule</title>
<path fill="none" stroke="#000000" d="M262,-122.1061C262,-122.1061 262,-140.991 262,-140.991"/>
<polygon fill="#000000" stroke="#000000" points="258.5001,-140.9909 262,-150.991 265.5001,-140.991 258.5001,-140.9909"/>
</g>
<!-- SelectYearComponent -->
<g id="node3" class="node">
<title>SelectYearComponent</title>
<polygon fill="#ffffb3" stroke="#000000" points="171.2366,-122 28.7634,-122 28.7634,-86 171.2366,-86 171.2366,-122"/>
<text text-anchor="middle" x="100" y="-99.8" font-family="Times,serif" font-size="14.00" fill="#000000">SelectYearComponent</text>
</g>
<!-- SelectYearComponent&#45;&gt;BatchModule -->
<g id="edge3" class="edge">
<title>SelectYearComponent&#45;&gt;BatchModule</title>
<path fill="none" stroke="#000000" d="M122.9561,-122.0225C122.9561,-139.3734 122.9561,-163 122.9561,-163 122.9561,-163 205.7004,-163 205.7004,-163"/>
<polygon fill="#000000" stroke="#000000" points="205.7004,-166.5001 215.7004,-163 205.7003,-159.5001 205.7004,-166.5001"/>
</g>
<!-- BatchModalComponent  -->
<g id="node5" class="node">
<title>BatchModalComponent </title>
<polygon fill="#fb8072" stroke="#000000" points="508.0386,-252 353.9614,-252 353.9614,-216 508.0386,-216 508.0386,-252"/>
<text text-anchor="middle" x="431" y="-229.8" font-family="Times,serif" font-size="14.00" fill="#000000">BatchModalComponent </text>
</g>
<!-- BatchModule&#45;&gt;BatchModalComponent  -->
<g id="edge4" class="edge">
<title>BatchModule&#45;&gt;BatchModalComponent </title>
<path fill="none" stroke="#000000" stroke-dasharray="5,2" d="M308.303,-175C349.5442,-175 403.4102,-175 403.4102,-175 403.4102,-175 403.4102,-205.9775 403.4102,-205.9775"/>
<polygon fill="#000000" stroke="#000000" points="399.9103,-205.9774 403.4102,-215.9775 406.9103,-205.9775 399.9103,-205.9774"/>
</g>
<!-- BatchViewComponent  -->
<g id="node6" class="node">
<title>BatchViewComponent </title>
<polygon fill="#fb8072" stroke="#000000" points="335.8073,-252 188.1927,-252 188.1927,-216 335.8073,-216 335.8073,-252"/>
<text text-anchor="middle" x="262" y="-229.8" font-family="Times,serif" font-size="14.00" fill="#000000">BatchViewComponent </text>
</g>
<!-- BatchModule&#45;&gt;BatchViewComponent  -->
<g id="edge5" class="edge">
<title>BatchModule&#45;&gt;BatchViewComponent </title>
<path fill="none" stroke="#000000" stroke-dasharray="5,2" d="M262,-187.1061C262,-187.1061 262,-205.991 262,-205.991"/>
<polygon fill="#000000" stroke="#000000" points="258.5001,-205.9909 262,-215.991 265.5001,-205.991 258.5001,-205.9909"/>
</g>
<!-- SelectYearComponent  -->
<g id="node7" class="node">
<title>SelectYearComponent </title>
<polygon fill="#fb8072" stroke="#000000" points="170.2366,-252 23.7634,-252 23.7634,-216 170.2366,-216 170.2366,-252"/>
<text text-anchor="middle" x="97" y="-229.8" font-family="Times,serif" font-size="14.00" fill="#000000">SelectYearComponent </text>
</g>
<!-- BatchModule&#45;&gt;SelectYearComponent  -->
<g id="edge6" class="edge">
<title>BatchModule&#45;&gt;SelectYearComponent </title>
<path fill="none" stroke="#000000" stroke-dasharray="5,2" d="M215.4927,-175C160.3397,-175 75.7939,-175 75.7939,-175 75.7939,-175 75.7939,-205.9775 75.7939,-205.9775"/>
<polygon fill="#000000" stroke="#000000" points="72.2938,-205.9775 75.7939,-215.9775 79.2938,-205.9774 72.2938,-205.9775"/>
</g>
</g>
</svg>
