<?xml version="1.0" encoding="UTF-8" standalone="no"?>
<!DOCTYPE svg PUBLIC "-//W3C//DTD SVG 1.1//EN"
 "http://www.w3.org/Graphics/SVG/1.1/DTD/svg11.dtd">
<!-- Generated by graphviz version 2.40.1 (20161225.0304)
 -->
<!-- Title: dependencies Pages: 1 -->
<svg width="504pt" height="284pt"
 viewBox="0.00 0.00 504.00 284.00" xmlns="http://www.w3.org/2000/svg" xmlns:xlink="http://www.w3.org/1999/xlink">
<g id="graph0" class="graph" transform="scale(1 1) rotate(0) translate(4 280)">
<title>dependencies</title>
<polygon fill="#ffffff" stroke="transparent" points="-4,4 -4,-280 500,-280 500,4 -4,4"/>
<text text-anchor="start" x="227.0091" y="-42.4" font-family="sans-serif" font-weight="bold" font-size="14.00" fill="#000000">Legend</text>
<polygon fill="#ffffb3" stroke="transparent" points="14,-10 14,-30 34,-30 34,-10 14,-10"/>
<text text-anchor="start" x="37.629" y="-15.4" font-family="sans-serif" font-size="14.00" fill="#000000"> &#160;Declarations</text>
<polygon fill="#8dd3c7" stroke="transparent" points="127,-10 127,-30 147,-30 147,-10 127,-10"/>
<text text-anchor="start" x="150.7251" y="-15.4" font-family="sans-serif" font-size="14.00" fill="#000000"> &#160;Module</text>
<polygon fill="#80b1d3" stroke="transparent" points="213,-10 213,-30 233,-30 233,-10 213,-10"/>
<text text-anchor="start" x="236.7812" y="-15.4" font-family="sans-serif" font-size="14.00" fill="#000000"> &#160;Bootstrap</text>
<polygon fill="#fdb462" stroke="transparent" points="310,-10 310,-30 330,-30 330,-10 310,-10"/>
<text text-anchor="start" x="333.6732" y="-15.4" font-family="sans-serif" font-size="14.00" fill="#000000"> &#160;Providers</text>
<polygon fill="#fb8072" stroke="transparent" points="406,-10 406,-30 426,-30 426,-10 406,-10"/>
<text text-anchor="start" x="429.7258" y="-15.4" font-family="sans-serif" font-size="14.00" fill="#000000"> &#160;Exports</text>
<g id="clust1" class="cluster">
<title>cluster_UserModule</title>
<polygon fill="none" stroke="#000000" stroke-dasharray="1,5" points="80.5,-70 80.5,-268 415.5,-268 415.5,-70 80.5,-70"/>
</g>
<g id="clust2" class="cluster">
<title>cluster_UserModule_declarations</title>
<polygon fill="none" stroke="#000000" points="91.5,-78 91.5,-130 404.5,-130 404.5,-78 91.5,-78"/>
</g>
<g id="clust6" class="cluster">
<title>cluster_UserModule_exports</title>
<polygon fill="none" stroke="#000000" points="88.5,-208 88.5,-260 407.5,-260 407.5,-208 88.5,-208"/>
</g>
<!-- TraineeTogglePipe -->
<g id="node1" class="node">
<title>TraineeTogglePipe</title>
<polygon fill="#ffffb3" stroke="#000000" points="396.2935,-122 272.7065,-122 272.7065,-86 396.2935,-86 396.2935,-122"/>
<text text-anchor="middle" x="334.5" y="-99.8" font-family="Times,serif" font-size="14.00" fill="#000000">TraineeTogglePipe</text>
</g>
<!-- UserModule -->
<g id="node3" class="node">
<title>UserModule</title>
<polygon fill="#8dd3c7" stroke="#000000" points="220.4762,-187 217.4762,-191 196.4762,-191 193.4762,-187 134.5238,-187 134.5238,-151 220.4762,-151 220.4762,-187"/>
<text text-anchor="middle" x="177.5" y="-164.8" font-family="Times,serif" font-size="14.00" fill="#000000">UserModule</text>
</g>
<!-- TraineeTogglePipe&#45;&gt;UserModule -->
<g id="edge1" class="edge">
<title>TraineeTogglePipe&#45;&gt;UserModule</title>
<path fill="none" stroke="#000000" d="M355.1322,-122.0225C355.1322,-139.3734 355.1322,-163 355.1322,-163 355.1322,-163 230.4998,-163 230.4998,-163"/>
<polygon fill="#000000" stroke="#000000" points="230.4998,-159.5001 220.4998,-163 230.4998,-166.5001 230.4998,-159.5001"/>
</g>
<!-- ViewtraineesComponent -->
<g id="node2" class="node">
<title>ViewtraineesComponent</title>
<polygon fill="#ffffb3" stroke="#000000" points="255.1811,-122 99.8189,-122 99.8189,-86 255.1811,-86 255.1811,-122"/>
<text text-anchor="middle" x="177.5" y="-99.8" font-family="Times,serif" font-size="14.00" fill="#000000">ViewtraineesComponent</text>
</g>
<!-- ViewtraineesComponent&#45;&gt;UserModule -->
<g id="edge2" class="edge">
<title>ViewtraineesComponent&#45;&gt;UserModule</title>
<path fill="none" stroke="#000000" d="M177.5,-122.1061C177.5,-122.1061 177.5,-140.991 177.5,-140.991"/>
<polygon fill="#000000" stroke="#000000" points="174.0001,-140.9909 177.5,-150.991 181.0001,-140.991 174.0001,-140.9909"/>
</g>
<!-- TraineeTogglePipe  -->
<g id="node4" class="node">
<title>TraineeTogglePipe </title>
<polygon fill="#fb8072" stroke="#000000" points="399.7934,-252 273.2066,-252 273.2066,-216 399.7934,-216 399.7934,-252"/>
<text text-anchor="middle" x="336.5" y="-229.8" font-family="Times,serif" font-size="14.00" fill="#000000">TraineeTogglePipe </text>
</g>
<!-- UserModule&#45;&gt;TraineeTogglePipe  -->
<g id="edge3" class="edge">
<title>UserModule&#45;&gt;TraineeTogglePipe </title>
<path fill="none" stroke="#000000" stroke-dasharray="5,2" d="M220.7267,-175C260.7515,-175 314.1178,-175 314.1178,-175 314.1178,-175 314.1178,-205.9775 314.1178,-205.9775"/>
<polygon fill="#000000" stroke="#000000" points="310.6179,-205.9774 314.1178,-215.9775 317.6179,-205.9775 310.6179,-205.9774"/>
</g>
<!-- ViewtraineesComponent  -->
<g id="node5" class="node">
<title>ViewtraineesComponent </title>
<polygon fill="#fb8072" stroke="#000000" points="254.6813,-252 96.3187,-252 96.3187,-216 254.6813,-216 254.6813,-252"/>
<text text-anchor="middle" x="175.5" y="-229.8" font-family="Times,serif" font-size="14.00" fill="#000000">ViewtraineesComponent </text>
</g>
<!-- UserModule&#45;&gt;ViewtraineesComponent  -->
<g id="edge4" class="edge">
<title>UserModule&#45;&gt;ViewtraineesComponent </title>
<path fill="none" stroke="#000000" stroke-dasharray="5,2" d="M177.5,-187.1061C177.5,-187.1061 177.5,-205.991 177.5,-205.991"/>
<polygon fill="#000000" stroke="#000000" points="174.0001,-205.9909 177.5,-215.991 181.0001,-205.991 174.0001,-205.9909"/>
</g>
</g>
</svg>
