<?xml version="1.0" encoding="UTF-8" standalone="no"?>
<!DOCTYPE svg PUBLIC "-//W3C//DTD SVG 1.1//EN"
 "http://www.w3.org/Graphics/SVG/1.1/DTD/svg11.dtd">
<!-- Generated by graphviz version 2.40.1 (20161225.0304)
 -->
<!-- Title: dependencies Pages: 1 -->
<svg width="889pt" height="284pt"
 viewBox="0.00 0.00 889.00 284.00" xmlns="http://www.w3.org/2000/svg" xmlns:xlink="http://www.w3.org/1999/xlink">
<g id="graph0" class="graph" transform="scale(1 1) rotate(0) translate(4 280)">
<title>dependencies</title>
<polygon fill="#ffffff" stroke="transparent" points="-4,4 -4,-280 885,-280 885,4 -4,4"/>
<text text-anchor="start" x="419.5091" y="-42.4" font-family="sans-serif" font-weight="bold" font-size="14.00" fill="#000000">Legend</text>
<polygon fill="#ffffb3" stroke="transparent" points="206.5,-10 206.5,-30 226.5,-30 226.5,-10 206.5,-10"/>
<text text-anchor="start" x="230.129" y="-15.4" font-family="sans-serif" font-size="14.00" fill="#000000"> &#160;Declarations</text>
<polygon fill="#8dd3c7" stroke="transparent" points="319.5,-10 319.5,-30 339.5,-30 339.5,-10 319.5,-10"/>
<text text-anchor="start" x="343.2251" y="-15.4" font-family="sans-serif" font-size="14.00" fill="#000000"> &#160;Module</text>
<polygon fill="#80b1d3" stroke="transparent" points="405.5,-10 405.5,-30 425.5,-30 425.5,-10 405.5,-10"/>
<text text-anchor="start" x="429.2812" y="-15.4" font-family="sans-serif" font-size="14.00" fill="#000000"> &#160;Bootstrap</text>
<polygon fill="#fdb462" stroke="transparent" points="502.5,-10 502.5,-30 522.5,-30 522.5,-10 502.5,-10"/>
<text text-anchor="start" x="526.1732" y="-15.4" font-family="sans-serif" font-size="14.00" fill="#000000"> &#160;Providers</text>
<polygon fill="#fb8072" stroke="transparent" points="598.5,-10 598.5,-30 618.5,-30 618.5,-10 598.5,-10"/>
<text text-anchor="start" x="622.2258" y="-15.4" font-family="sans-serif" font-size="14.00" fill="#000000"> &#160;Exports</text>
<g id="clust1" class="cluster">
<title>cluster_UserModule</title>
<polygon fill="none" stroke="#000000" stroke-dasharray="1,5" points="8,-70 8,-268 873,-268 873,-70 8,-70"/>
</g>
<g id="clust2" class="cluster">
<title>cluster_UserModule_declarations</title>
<polygon fill="none" stroke="#000000" points="16,-78 16,-130 865,-130 865,-78 16,-78"/>
</g>
<g id="clust9" class="cluster">
<title>cluster_UserModule_exports</title>
<polygon fill="none" stroke="#000000" points="94,-208 94,-260 786,-260 786,-208 94,-208"/>
</g>
<!-- DeleteTraineeComponent -->
<g id="node1" class="node">
<title>DeleteTraineeComponent</title>
<polygon fill="#ffffb3" stroke="#000000" points="857.1121,-122 696.8879,-122 696.8879,-86 857.1121,-86 857.1121,-122"/>
<text text-anchor="middle" x="777" y="-99.8" font-family="Times,serif" font-size="14.00" fill="#000000">DeleteTraineeComponent</text>
</g>
<!-- UserModule -->
<g id="node6" class="node">
<title>UserModule</title>
<polygon fill="#8dd3c7" stroke="#000000" points="488.9762,-187 485.9762,-191 464.9762,-191 461.9762,-187 403.0238,-187 403.0238,-151 488.9762,-151 488.9762,-187"/>
<text text-anchor="middle" x="446" y="-164.8" font-family="Times,serif" font-size="14.00" fill="#000000">UserModule</text>
</g>
<!-- DeleteTraineeComponent&#45;&gt;UserModule -->
<g id="edge1" class="edge">
<title>DeleteTraineeComponent&#45;&gt;UserModule</title>
<path fill="none" stroke="#000000" d="M737.375,-122.1061C737.375,-141.3391 737.375,-169 737.375,-169 737.375,-169 498.9934,-169 498.9934,-169"/>
<polygon fill="#000000" stroke="#000000" points="498.9934,-165.5001 488.9934,-169 498.9933,-172.5001 498.9934,-165.5001"/>
</g>
<!-- SwitchBatchComponent -->
<g id="node2" class="node">
<title>SwitchBatchComponent</title>
<polygon fill="#ffffb3" stroke="#000000" points="678.3739,-122 525.6261,-122 525.6261,-86 678.3739,-86 678.3739,-122"/>
<text text-anchor="middle" x="602" y="-99.8" font-family="Times,serif" font-size="14.00" fill="#000000">SwitchBatchComponent</text>
</g>
<!-- SwitchBatchComponent&#45;&gt;UserModule -->
<g id="edge2" class="edge">
<title>SwitchBatchComponent&#45;&gt;UserModule</title>
<path fill="none" stroke="#000000" d="M560.9799,-122.027C560.9799,-138.3976 560.9799,-160 560.9799,-160 560.9799,-160 499.1414,-160 499.1414,-160"/>
<polygon fill="#000000" stroke="#000000" points="499.1414,-156.5001 489.1414,-160 499.1413,-163.5001 499.1414,-156.5001"/>
</g>
<!-- TraineeTogglePipe -->
<g id="node3" class="node">
<title>TraineeTogglePipe</title>
<polygon fill="#ffffb3" stroke="#000000" points="507.7935,-122 384.2065,-122 384.2065,-86 507.7935,-86 507.7935,-122"/>
<text text-anchor="middle" x="446" y="-99.8" font-family="Times,serif" font-size="14.00" fill="#000000">TraineeTogglePipe</text>
</g>
<!-- TraineeTogglePipe&#45;&gt;UserModule -->
<g id="edge3" class="edge">
<title>TraineeTogglePipe&#45;&gt;UserModule</title>
<path fill="none" stroke="#000000" d="M446,-122.1061C446,-122.1061 446,-140.991 446,-140.991"/>
<polygon fill="#000000" stroke="#000000" points="442.5001,-140.9909 446,-150.991 449.5001,-140.991 442.5001,-140.9909"/>
</g>
<!-- UpdateTraineeComponent -->
<g id="node4" class="node">
<title>UpdateTraineeComponent</title>
<polygon fill="#ffffb3" stroke="#000000" points="366.0071,-122 201.9929,-122 201.9929,-86 366.0071,-86 366.0071,-122"/>
<text text-anchor="middle" x="284" y="-99.8" font-family="Times,serif" font-size="14.00" fill="#000000">UpdateTraineeComponent</text>
</g>
<!-- UpdateTraineeComponent&#45;&gt;UserModule -->
<g id="edge4" class="edge">
<title>UpdateTraineeComponent&#45;&gt;UserModule</title>
<path fill="none" stroke="#000000" d="M325.125,-122.027C325.125,-138.3976 325.125,-160 325.125,-160 325.125,-160 392.7028,-160 392.7028,-160"/>
<polygon fill="#000000" stroke="#000000" points="392.7028,-163.5001 402.7028,-160 392.7027,-156.5001 392.7028,-163.5001"/>
</g>
<!-- ViewTraineesComponent -->
<g id="node5" class="node">
<title>ViewTraineesComponent</title>
<polygon fill="#ffffb3" stroke="#000000" points="183.8431,-122 24.1569,-122 24.1569,-86 183.8431,-86 183.8431,-122"/>
<text text-anchor="middle" x="104" y="-99.8" font-family="Times,serif" font-size="14.00" fill="#000000">ViewTraineesComponent</text>
</g>
<!-- ViewTraineesComponent&#45;&gt;UserModule -->
<g id="edge5" class="edge">
<title>ViewTraineesComponent&#45;&gt;UserModule</title>
<path fill="none" stroke="#000000" d="M143.125,-122.1061C143.125,-141.3391 143.125,-169 143.125,-169 143.125,-169 392.927,-169 392.927,-169"/>
<polygon fill="#000000" stroke="#000000" points="392.9271,-172.5001 402.927,-169 392.927,-165.5001 392.9271,-172.5001"/>
</g>
<!-- DeleteTraineeComponent  -->
<g id="node7" class="node">
<title>DeleteTraineeComponent </title>
<polygon fill="#fb8072" stroke="#000000" points="778.1116,-252 613.8884,-252 613.8884,-216 778.1116,-216 778.1116,-252"/>
<text text-anchor="middle" x="696" y="-229.8" font-family="Times,serif" font-size="14.00" fill="#000000">DeleteTraineeComponent </text>
</g>
<!-- UserModule&#45;&gt;DeleteTraineeComponent  -->
<g id="edge6" class="edge">
<title>UserModule&#45;&gt;DeleteTraineeComponent </title>
<path fill="none" stroke="#000000" stroke-dasharray="5,2" d="M489.4384,-178C548.316,-178 646.1906,-178 646.1906,-178 646.1906,-178 646.1906,-205.973 646.1906,-205.973"/>
<polygon fill="#000000" stroke="#000000" points="642.6906,-205.973 646.1906,-215.973 649.6906,-205.973 642.6906,-205.973"/>
</g>
<!-- TraineeTogglePipe  -->
<g id="node8" class="node">
<title>TraineeTogglePipe </title>
<polygon fill="#fb8072" stroke="#000000" points="596.2934,-252 469.7066,-252 469.7066,-216 596.2934,-216 596.2934,-252"/>
<text text-anchor="middle" x="533" y="-229.8" font-family="Times,serif" font-size="14.00" fill="#000000">TraineeTogglePipe </text>
</g>
<!-- UserModule&#45;&gt;TraineeTogglePipe  -->
<g id="edge7" class="edge">
<title>UserModule&#45;&gt;TraineeTogglePipe </title>
<path fill="none" stroke="#000000" stroke-dasharray="5,2" d="M479.2958,-187.1061C479.2958,-187.1061 479.2958,-205.991 479.2958,-205.991"/>
<polygon fill="#000000" stroke="#000000" points="475.7958,-205.9909 479.2958,-215.991 482.7958,-205.991 475.7958,-205.9909"/>
</g>
<!-- UpdateTraineeComponent  -->
<g id="node9" class="node">
<title>UpdateTraineeComponent </title>
<polygon fill="#fb8072" stroke="#000000" points="452.0064,-252 283.9936,-252 283.9936,-216 452.0064,-216 452.0064,-252"/>
<text text-anchor="middle" x="368" y="-229.8" font-family="Times,serif" font-size="14.00" fill="#000000">UpdateTraineeComponent </text>
</g>
<!-- UserModule&#45;&gt;UpdateTraineeComponent  -->
<g id="edge8" class="edge">
<title>UserModule&#45;&gt;UpdateTraineeComponent </title>
<path fill="none" stroke="#000000" stroke-dasharray="5,2" d="M427.5076,-187.1061C427.5076,-187.1061 427.5076,-205.991 427.5076,-205.991"/>
<polygon fill="#000000" stroke="#000000" points="424.0076,-205.9909 427.5076,-215.991 431.0076,-205.991 424.0076,-205.9909"/>
</g>
<!-- ViewTraineesComponent  -->
<g id="node10" class="node">
<title>ViewTraineesComponent </title>
<polygon fill="#fb8072" stroke="#000000" points="265.8434,-252 102.1566,-252 102.1566,-216 265.8434,-216 265.8434,-252"/>
<text text-anchor="middle" x="184" y="-229.8" font-family="Times,serif" font-size="14.00" fill="#000000">ViewTraineesComponent </text>
</g>
<!-- UserModule&#45;&gt;ViewTraineesComponent  -->
<g id="edge9" class="edge">
<title>UserModule&#45;&gt;ViewTraineesComponent </title>
<path fill="none" stroke="#000000" stroke-dasharray="5,2" d="M402.7839,-178C340.7132,-178 233.7092,-178 233.7092,-178 233.7092,-178 233.7092,-205.973 233.7092,-205.973"/>
<polygon fill="#000000" stroke="#000000" points="230.2092,-205.973 233.7092,-215.973 237.2092,-205.973 230.2092,-205.973"/>
</g>
</g>
</svg>
