<?xml version="1.0" encoding="UTF-8" standalone="no"?>
<!DOCTYPE svg PUBLIC "-//W3C//DTD SVG 1.1//EN"
 "http://www.w3.org/Graphics/SVG/1.1/DTD/svg11.dtd">
<!-- Generated by graphviz version 2.40.1 (20161225.0304)
 -->
<!-- Title: dependencies Pages: 1 -->
<svg width="907pt" height="284pt"
 viewBox="0.00 0.00 907.00 284.00" xmlns="http://www.w3.org/2000/svg" xmlns:xlink="http://www.w3.org/1999/xlink">
<g id="graph0" class="graph" transform="scale(1 1) rotate(0) translate(4 280)">
<title>dependencies</title>
<polygon fill="#ffffff" stroke="transparent" points="-4,4 -4,-280 903,-280 903,4 -4,4"/>
<text text-anchor="start" x="428.5091" y="-42.4" font-family="sans-serif" font-weight="bold" font-size="14.00" fill="#000000">Legend</text>
<polygon fill="#ffffb3" stroke="transparent" points="215.5,-10 215.5,-30 235.5,-30 235.5,-10 215.5,-10"/>
<text text-anchor="start" x="239.129" y="-15.4" font-family="sans-serif" font-size="14.00" fill="#000000"> &#160;Declarations</text>
<polygon fill="#8dd3c7" stroke="transparent" points="328.5,-10 328.5,-30 348.5,-30 348.5,-10 328.5,-10"/>
<text text-anchor="start" x="352.2251" y="-15.4" font-family="sans-serif" font-size="14.00" fill="#000000"> &#160;Module</text>
<polygon fill="#80b1d3" stroke="transparent" points="414.5,-10 414.5,-30 434.5,-30 434.5,-10 414.5,-10"/>
<text text-anchor="start" x="438.2812" y="-15.4" font-family="sans-serif" font-size="14.00" fill="#000000"> &#160;Bootstrap</text>
<polygon fill="#fdb462" stroke="transparent" points="511.5,-10 511.5,-30 531.5,-30 531.5,-10 511.5,-10"/>
<text text-anchor="start" x="535.1732" y="-15.4" font-family="sans-serif" font-size="14.00" fill="#000000"> &#160;Providers</text>
<polygon fill="#fb8072" stroke="transparent" points="607.5,-10 607.5,-30 627.5,-30 627.5,-10 607.5,-10"/>
<text text-anchor="start" x="631.2258" y="-15.4" font-family="sans-serif" font-size="14.00" fill="#000000"> &#160;Exports</text>
<g id="clust1" class="cluster">
<title>cluster_UserModule</title>
<polygon fill="none" stroke="#000000" stroke-dasharray="1,5" points="8,-70 8,-268 891,-268 891,-70 8,-70"/>
</g>
<g id="clust2" class="cluster">
<title>cluster_UserModule_declarations</title>
<polygon fill="none" stroke="#000000" points="25,-78 25,-130 874,-130 874,-78 25,-78"/>
</g>
<g id="clust9" class="cluster">
<title>cluster_UserModule_exports</title>
<polygon fill="none" stroke="#000000" points="16,-208 16,-260 883,-260 883,-208 16,-208"/>
</g>
<!-- DeleteTraineeComponent -->
<g id="node1" class="node">
<title>DeleteTraineeComponent</title>
<polygon fill="#ffffb3" stroke="#000000" points="866.1121,-122 705.8879,-122 705.8879,-86 866.1121,-86 866.1121,-122"/>
<text text-anchor="middle" x="786" y="-99.8" font-family="Times,serif" font-size="14.00" fill="#000000">DeleteTraineeComponent</text>
</g>
<!-- UserModule -->
<g id="node6" class="node">
<title>UserModule</title>
<polygon fill="#8dd3c7" stroke="#000000" points="497.9762,-187 494.9762,-191 473.9762,-191 470.9762,-187 412.0238,-187 412.0238,-151 497.9762,-151 497.9762,-187"/>
<text text-anchor="middle" x="455" y="-164.8" font-family="Times,serif" font-size="14.00" fill="#000000">UserModule</text>
</g>
<!-- DeleteTraineeComponent&#45;&gt;UserModule -->
<g id="edge1" class="edge">
<title>DeleteTraineeComponent&#45;&gt;UserModule</title>
<path fill="none" stroke="#000000" d="M814.5186,-122.2667C814.5186,-140.5552 814.5186,-166 814.5186,-166 814.5186,-166 508.0092,-166 508.0092,-166"/>
<polygon fill="#000000" stroke="#000000" points="508.0093,-162.5001 498.0092,-166 508.0092,-169.5001 508.0093,-162.5001"/>
</g>
<!-- SwitchBatchComponent -->
<g id="node2" class="node">
<title>SwitchBatchComponent</title>
<polygon fill="#ffffb3" stroke="#000000" points="687.3739,-122 534.6261,-122 534.6261,-86 687.3739,-86 687.3739,-122"/>
<text text-anchor="middle" x="611" y="-99.8" font-family="Times,serif" font-size="14.00" fill="#000000">SwitchBatchComponent</text>
</g>
<!-- SwitchBatchComponent&#45;&gt;UserModule -->
<g id="edge2" class="edge">
<title>SwitchBatchComponent&#45;&gt;UserModule</title>
<path fill="none" stroke="#000000" d="M637.229,-122.0091C637.229,-138.0494 637.229,-159 637.229,-159 637.229,-159 508.1857,-159 508.1857,-159"/>
<polygon fill="#000000" stroke="#000000" points="508.1858,-155.5001 498.1857,-159 508.1857,-162.5001 508.1858,-155.5001"/>
</g>
<!-- TraineeTogglePipe -->
<g id="node3" class="node">
<title>TraineeTogglePipe</title>
<polygon fill="#ffffb3" stroke="#000000" points="516.7935,-122 393.2065,-122 393.2065,-86 516.7935,-86 516.7935,-122"/>
<text text-anchor="middle" x="455" y="-99.8" font-family="Times,serif" font-size="14.00" fill="#000000">TraineeTogglePipe</text>
</g>
<!-- TraineeTogglePipe&#45;&gt;UserModule -->
<g id="edge3" class="edge">
<title>TraineeTogglePipe&#45;&gt;UserModule</title>
<path fill="none" stroke="#000000" d="M455,-122.1061C455,-122.1061 455,-140.991 455,-140.991"/>
<polygon fill="#000000" stroke="#000000" points="451.5001,-140.9909 455,-150.991 458.5001,-140.991 451.5001,-140.9909"/>
</g>
<!-- UpdateTraineeComponent -->
<g id="node4" class="node">
<title>UpdateTraineeComponent</title>
<polygon fill="#ffffb3" stroke="#000000" points="375.0071,-122 210.9929,-122 210.9929,-86 375.0071,-86 375.0071,-122"/>
<text text-anchor="middle" x="293" y="-99.8" font-family="Times,serif" font-size="14.00" fill="#000000">UpdateTraineeComponent</text>
</g>
<!-- UpdateTraineeComponent&#45;&gt;UserModule -->
<g id="edge4" class="edge">
<title>UpdateTraineeComponent&#45;&gt;UserModule</title>
<path fill="none" stroke="#000000" d="M319.5844,-122.0091C319.5844,-138.0494 319.5844,-159 319.5844,-159 319.5844,-159 401.7813,-159 401.7813,-159"/>
<polygon fill="#000000" stroke="#000000" points="401.7814,-162.5001 411.7813,-159 401.7813,-155.5001 401.7814,-162.5001"/>
</g>
<!-- ViewTraineesComponent -->
<g id="node5" class="node">
<title>ViewTraineesComponent</title>
<polygon fill="#ffffb3" stroke="#000000" points="192.8431,-122 33.1569,-122 33.1569,-86 192.8431,-86 192.8431,-122"/>
<text text-anchor="middle" x="113" y="-99.8" font-family="Times,serif" font-size="14.00" fill="#000000">ViewTraineesComponent</text>
</g>
<!-- ViewTraineesComponent&#45;&gt;UserModule -->
<g id="edge5" class="edge">
<title>ViewTraineesComponent&#45;&gt;UserModule</title>
<path fill="none" stroke="#000000" d="M136.1405,-122.2667C136.1405,-140.5552 136.1405,-166 136.1405,-166 136.1405,-166 401.9972,-166 401.9972,-166"/>
<polygon fill="#000000" stroke="#000000" points="401.9972,-169.5001 411.9972,-166 401.9972,-162.5001 401.9972,-169.5001"/>
</g>
<!-- DeleteTraineeComponent  -->
<g id="node7" class="node">
<title>DeleteTraineeComponent </title>
<polygon fill="#fb8072" stroke="#000000" points="875.1116,-252 710.8884,-252 710.8884,-216 875.1116,-216 875.1116,-252"/>
<text text-anchor="middle" x="793" y="-229.8" font-family="Times,serif" font-size="14.00" fill="#000000">DeleteTraineeComponent </text>
</g>
<!-- UserModule&#45;&gt;DeleteTraineeComponent  -->
<g id="edge6" class="edge">
<title>UserModule&#45;&gt;DeleteTraineeComponent </title>
<path fill="none" stroke="#000000" stroke-dasharray="5,2" d="M498.1128,-173C582.8048,-173 762.7314,-173 762.7314,-173 762.7314,-173 762.7314,-205.698 762.7314,-205.698"/>
<polygon fill="#000000" stroke="#000000" points="759.2315,-205.698 762.7314,-215.698 766.2315,-205.698 759.2315,-205.698"/>
</g>
<!-- SwitchBatchComponent  -->
<g id="node8" class="node">
<title>SwitchBatchComponent </title>
<polygon fill="#fb8072" stroke="#000000" points="693.3742,-252 536.6258,-252 536.6258,-216 693.3742,-216 693.3742,-252"/>
<text text-anchor="middle" x="615" y="-229.8" font-family="Times,serif" font-size="14.00" fill="#000000">SwitchBatchComponent </text>
</g>
<!-- UserModule&#45;&gt;SwitchBatchComponent  -->
<g id="edge7" class="edge">
<title>UserModule&#45;&gt;SwitchBatchComponent </title>
<path fill="none" stroke="#000000" stroke-dasharray="5,2" d="M498.2286,-180C536.7315,-180 587.021,-180 587.021,-180 587.021,-180 587.021,-205.7181 587.021,-205.7181"/>
<polygon fill="#000000" stroke="#000000" points="583.5211,-205.718 587.021,-215.7181 590.5211,-205.7181 583.5211,-205.718"/>
</g>
<!-- TraineeTogglePipe  -->
<g id="node9" class="node">
<title>TraineeTogglePipe </title>
<polygon fill="#fb8072" stroke="#000000" points="518.2934,-252 391.7066,-252 391.7066,-216 518.2934,-216 518.2934,-252"/>
<text text-anchor="middle" x="455" y="-229.8" font-family="Times,serif" font-size="14.00" fill="#000000">TraineeTogglePipe </text>
</g>
<!-- UserModule&#45;&gt;TraineeTogglePipe  -->
<g id="edge8" class="edge">
<title>UserModule&#45;&gt;TraineeTogglePipe </title>
<path fill="none" stroke="#000000" stroke-dasharray="5,2" d="M455,-187.1061C455,-187.1061 455,-205.991 455,-205.991"/>
<polygon fill="#000000" stroke="#000000" points="451.5001,-205.9909 455,-215.991 458.5001,-205.991 451.5001,-205.9909"/>
</g>
<!-- UpdateTraineeComponent  -->
<g id="node10" class="node">
<title>UpdateTraineeComponent </title>
<polygon fill="#fb8072" stroke="#000000" points="374.0064,-252 205.9936,-252 205.9936,-216 374.0064,-216 374.0064,-252"/>
<text text-anchor="middle" x="290" y="-229.8" font-family="Times,serif" font-size="14.00" fill="#000000">UpdateTraineeComponent </text>
</g>
<!-- UserModule&#45;&gt;UpdateTraineeComponent  -->
<g id="edge9" class="edge">
<title>UserModule&#45;&gt;UpdateTraineeComponent </title>
<path fill="none" stroke="#000000" stroke-dasharray="5,2" d="M411.9236,-180C355.9145,-180 265.1656,-180 265.1656,-180 265.1656,-180 265.1656,-205.7181 265.1656,-205.7181"/>
<polygon fill="#000000" stroke="#000000" points="261.6657,-205.718 265.1656,-215.7181 268.6657,-205.7181 261.6657,-205.718"/>
</g>
<!-- ViewTraineesComponent  -->
<g id="node11" class="node">
<title>ViewTraineesComponent </title>
<polygon fill="#fb8072" stroke="#000000" points="187.8434,-252 24.1566,-252 24.1566,-216 187.8434,-216 187.8434,-252"/>
<text text-anchor="middle" x="106" y="-229.8" font-family="Times,serif" font-size="14.00" fill="#000000">ViewTraineesComponent </text>
</g>
<!-- UserModule&#45;&gt;ViewTraineesComponent  -->
<g id="edge10" class="edge">
<title>UserModule&#45;&gt;ViewTraineesComponent </title>
<path fill="none" stroke="#000000" stroke-dasharray="5,2" d="M411.7866,-173C314.0817,-173 84.6095,-173 84.6095,-173 84.6095,-173 84.6095,-205.698 84.6095,-205.698"/>
<polygon fill="#000000" stroke="#000000" points="81.1096,-205.698 84.6095,-215.698 88.1096,-205.698 81.1096,-205.698"/>
</g>
</g>
</svg>
