<?xml version="1.0" encoding="UTF-8" standalone="no"?>
<!DOCTYPE svg PUBLIC "-//W3C//DTD SVG 1.1//EN"
 "http://www.w3.org/Graphics/SVG/1.1/DTD/svg11.dtd">
<!-- Generated by graphviz version 2.40.1 (20161225.0304)
 -->
<!-- Title: dependencies Pages: 1 -->
<svg width="504pt" height="284pt"
 viewBox="0.00 0.00 504.00 284.00" xmlns="http://www.w3.org/2000/svg" xmlns:xlink="http://www.w3.org/1999/xlink">
<g id="graph0" class="graph" transform="scale(1 1) rotate(0) translate(4 280)">
<title>dependencies</title>
<polygon fill="#ffffff" stroke="transparent" points="-4,4 -4,-280 500,-280 500,4 -4,4"/>
<text text-anchor="start" x="227.0091" y="-42.4" font-family="sans-serif" font-weight="bold" font-size="14.00" fill="#000000">Legend</text>
<polygon fill="#ffffb3" stroke="transparent" points="14,-10 14,-30 34,-30 34,-10 14,-10"/>
<text text-anchor="start" x="37.629" y="-15.4" font-family="sans-serif" font-size="14.00" fill="#000000"> &#160;Declarations</text>
<polygon fill="#8dd3c7" stroke="transparent" points="127,-10 127,-30 147,-30 147,-10 127,-10"/>
<text text-anchor="start" x="150.7251" y="-15.4" font-family="sans-serif" font-size="14.00" fill="#000000"> &#160;Module</text>
<polygon fill="#80b1d3" stroke="transparent" points="213,-10 213,-30 233,-30 233,-10 213,-10"/>
<text text-anchor="start" x="236.7812" y="-15.4" font-family="sans-serif" font-size="14.00" fill="#000000"> &#160;Bootstrap</text>
<polygon fill="#fdb462" stroke="transparent" points="310,-10 310,-30 330,-30 330,-10 310,-10"/>
<text text-anchor="start" x="333.6732" y="-15.4" font-family="sans-serif" font-size="14.00" fill="#000000"> &#160;Providers</text>
<polygon fill="#fb8072" stroke="transparent" points="406,-10 406,-30 426,-30 426,-10 406,-10"/>
<text text-anchor="start" x="429.7258" y="-15.4" font-family="sans-serif" font-size="14.00" fill="#000000"> &#160;Exports</text>
<g id="clust1" class="cluster">
<title>cluster_UserModule</title>
<polygon fill="none" stroke="#000000" stroke-dasharray="1,5" points="78,-70 78,-268 418,-268 418,-70 78,-70"/>
</g>
<g id="clust2" class="cluster">
<title>cluster_UserModule_declarations</title>
<polygon fill="none" stroke="#000000" points="89,-78 89,-130 407,-130 407,-78 89,-78"/>
</g>
<g id="clust6" class="cluster">
<title>cluster_UserModule_exports</title>
<polygon fill="none" stroke="#000000" points="86,-208 86,-260 410,-260 410,-208 86,-208"/>
</g>
<!-- TraineeTogglePipe -->
<g id="node1" class="node">
<title>TraineeTogglePipe</title>
<polygon fill="#ffffb3" stroke="#000000" points="398.7935,-122 275.2065,-122 275.2065,-86 398.7935,-86 398.7935,-122"/>
<text text-anchor="middle" x="337" y="-99.8" font-family="Times,serif" font-size="14.00" fill="#000000">TraineeTogglePipe</text>
</g>
<!-- UserModule -->
<g id="node3" class="node">
<title>UserModule</title>
<polygon fill="#8dd3c7" stroke="#000000" points="220.9762,-187 217.9762,-191 196.9762,-191 193.9762,-187 135.0238,-187 135.0238,-151 220.9762,-151 220.9762,-187"/>
<text text-anchor="middle" x="178" y="-164.8" font-family="Times,serif" font-size="14.00" fill="#000000">UserModule</text>
</g>
<!-- TraineeTogglePipe&#45;&gt;UserModule -->
<g id="edge1" class="edge">
<title>TraineeTogglePipe&#45;&gt;UserModule</title>
<path fill="none" stroke="#000000" d="M357.6322,-122.0225C357.6322,-139.3734 357.6322,-163 357.6322,-163 357.6322,-163 231.0264,-163 231.0264,-163"/>
<polygon fill="#000000" stroke="#000000" points="231.0264,-159.5001 221.0264,-163 231.0264,-166.5001 231.0264,-159.5001"/>
</g>
<!-- ViewTraineesComponent -->
<g id="node2" class="node">
<title>ViewTraineesComponent</title>
<polygon fill="#ffffb3" stroke="#000000" points="256.8431,-122 97.1569,-122 97.1569,-86 256.8431,-86 256.8431,-122"/>
<text text-anchor="middle" x="177" y="-99.8" font-family="Times,serif" font-size="14.00" fill="#000000">ViewTraineesComponent</text>
</g>
<!-- ViewTraineesComponent&#45;&gt;UserModule -->
<g id="edge2" class="edge">
<title>ViewTraineesComponent&#45;&gt;UserModule</title>
<path fill="none" stroke="#000000" d="M178,-122.1061C178,-122.1061 178,-140.991 178,-140.991"/>
<polygon fill="#000000" stroke="#000000" points="174.5001,-140.9909 178,-150.991 181.5001,-140.991 174.5001,-140.9909"/>
</g>
<!-- TraineeTogglePipe  -->
<g id="node4" class="node">
<title>TraineeTogglePipe </title>
<polygon fill="#fb8072" stroke="#000000" points="402.2934,-252 275.7066,-252 275.7066,-216 402.2934,-216 402.2934,-252"/>
<text text-anchor="middle" x="339" y="-229.8" font-family="Times,serif" font-size="14.00" fill="#000000">TraineeTogglePipe </text>
</g>
<!-- UserModule&#45;&gt;TraineeTogglePipe  -->
<g id="edge3" class="edge">
<title>UserModule&#45;&gt;TraineeTogglePipe </title>
<path fill="none" stroke="#000000" stroke-dasharray="5,2" d="M221.0997,-175C261.7913,-175 316.6178,-175 316.6178,-175 316.6178,-175 316.6178,-205.9775 316.6178,-205.9775"/>
<polygon fill="#000000" stroke="#000000" points="313.1179,-205.9774 316.6178,-215.9775 320.1179,-205.9775 313.1179,-205.9774"/>
</g>
<!-- ViewTraineesComponent  -->
<g id="node5" class="node">
<title>ViewTraineesComponent </title>
<polygon fill="#fb8072" stroke="#000000" points="257.8434,-252 94.1566,-252 94.1566,-216 257.8434,-216 257.8434,-252"/>
<text text-anchor="middle" x="176" y="-229.8" font-family="Times,serif" font-size="14.00" fill="#000000">ViewTraineesComponent </text>
</g>
<!-- UserModule&#45;&gt;ViewTraineesComponent  -->
<g id="edge4" class="edge">
<title>UserModule&#45;&gt;ViewTraineesComponent </title>
<path fill="none" stroke="#000000" stroke-dasharray="5,2" d="M178,-187.1061C178,-187.1061 178,-205.991 178,-205.991"/>
<polygon fill="#000000" stroke="#000000" points="174.5001,-205.9909 178,-215.991 181.5001,-205.991 174.5001,-205.9909"/>
</g>
</g>
</svg>
