<?xml version="1.0" encoding="UTF-8" standalone="no"?>
<!DOCTYPE svg PUBLIC "-//W3C//DTD SVG 1.1//EN"
 "http://www.w3.org/Graphics/SVG/1.1/DTD/svg11.dtd">
<!-- Generated by graphviz version 2.40.1 (20161225.0304)
 -->
<!-- Title: dependencies Pages: 1 -->
<svg width="504pt" height="284pt"
 viewBox="0.00 0.00 504.00 284.00" xmlns="http://www.w3.org/2000/svg" xmlns:xlink="http://www.w3.org/1999/xlink">
<g id="graph0" class="graph" transform="scale(1 1) rotate(0) translate(4 280)">
<title>dependencies</title>
<polygon fill="#ffffff" stroke="transparent" points="-4,4 -4,-280 500,-280 500,4 -4,4"/>
<text text-anchor="start" x="227.0091" y="-42.4" font-family="sans-serif" font-weight="bold" font-size="14.00" fill="#000000">Legend</text>
<polygon fill="#ffffb3" stroke="transparent" points="14,-10 14,-30 34,-30 34,-10 14,-10"/>
<text text-anchor="start" x="37.629" y="-15.4" font-family="sans-serif" font-size="14.00" fill="#000000"> &#160;Declarations</text>
<polygon fill="#8dd3c7" stroke="transparent" points="127,-10 127,-30 147,-30 147,-10 127,-10"/>
<text text-anchor="start" x="150.7251" y="-15.4" font-family="sans-serif" font-size="14.00" fill="#000000"> &#160;Module</text>
<polygon fill="#80b1d3" stroke="transparent" points="213,-10 213,-30 233,-30 233,-10 213,-10"/>
<text text-anchor="start" x="236.7812" y="-15.4" font-family="sans-serif" font-size="14.00" fill="#000000"> &#160;Bootstrap</text>
<polygon fill="#fdb462" stroke="transparent" points="310,-10 310,-30 330,-30 330,-10 310,-10"/>
<text text-anchor="start" x="333.6732" y="-15.4" font-family="sans-serif" font-size="14.00" fill="#000000"> &#160;Providers</text>
<polygon fill="#fb8072" stroke="transparent" points="406,-10 406,-30 426,-30 426,-10 406,-10"/>
<text text-anchor="start" x="429.7258" y="-15.4" font-family="sans-serif" font-size="14.00" fill="#000000"> &#160;Exports</text>
<g id="clust1" class="cluster">
<title>cluster_Team1Module</title>
<polygon fill="none" stroke="#000000" stroke-dasharray="1,5" points="27,-70 27,-268 469,-268 469,-70 27,-70"/>
</g>
<g id="clust2" class="cluster">
<title>cluster_Team1Module_declarations</title>
<polygon fill="none" stroke="#000000" points="187,-78 187,-130 461,-130 461,-78 187,-78"/>
</g>
<g id="clust5" class="cluster">
<title>cluster_Team1Module_imports</title>
<polygon fill="none" stroke="#000000" points="35,-78 35,-130 179,-130 179,-78 35,-78"/>
</g>
<g id="clust6" class="cluster">
<title>cluster_Team1Module_exports</title>
<polygon fill="none" stroke="#000000" points="112,-208 112,-260 393,-260 393,-208 112,-208"/>
</g>
<!-- FooterComponent -->
<g id="node1" class="node">
<title>FooterComponent</title>
<polygon fill="#ffffb3" stroke="#000000" points="452.8809,-122 335.1191,-122 335.1191,-86 452.8809,-86 452.8809,-122"/>
<text text-anchor="middle" x="394" y="-99.8" font-family="Times,serif" font-size="14.00" fill="#000000">FooterComponent</text>
</g>
<!-- Team1Module -->
<g id="node3" class="node">
<title>Team1Module</title>
<polygon fill="#8dd3c7" stroke="#000000" points="305.4231,-187 302.4231,-191 281.4231,-191 278.4231,-187 206.5769,-187 206.5769,-151 305.4231,-151 305.4231,-187"/>
<text text-anchor="middle" x="256" y="-164.8" font-family="Times,serif" font-size="14.00" fill="#000000">Team1Module</text>
</g>
<!-- FooterComponent&#45;&gt;Team1Module -->
<g id="edge1" class="edge">
<title>FooterComponent&#45;&gt;Team1Module</title>
<path fill="none" stroke="#000000" d="M359.875,-122.1061C359.875,-141.3391 359.875,-169 359.875,-169 359.875,-169 315.5037,-169 315.5037,-169"/>
<polygon fill="#000000" stroke="#000000" points="315.5038,-165.5001 305.5037,-169 315.5037,-172.5001 315.5038,-165.5001"/>
</g>
<!-- HeaderComponent -->
<g id="node2" class="node">
<title>HeaderComponent</title>
<polygon fill="#ffffb3" stroke="#000000" points="316.7437,-122 195.2563,-122 195.2563,-86 316.7437,-86 316.7437,-122"/>
<text text-anchor="middle" x="256" y="-99.8" font-family="Times,serif" font-size="14.00" fill="#000000">HeaderComponent</text>
</g>
<!-- HeaderComponent&#45;&gt;Team1Module -->
<g id="edge2" class="edge">
<title>HeaderComponent&#45;&gt;Team1Module</title>
<path fill="none" stroke="#000000" d="M256,-122.1061C256,-122.1061 256,-140.991 256,-140.991"/>
<polygon fill="#000000" stroke="#000000" points="252.5001,-140.9909 256,-150.991 259.5001,-140.991 252.5001,-140.9909"/>
</g>
<!-- FooterComponent  -->
<g id="node5" class="node">
<title>FooterComponent </title>
<polygon fill="#fb8072" stroke="#000000" points="384.8814,-252 263.1186,-252 263.1186,-216 384.8814,-216 384.8814,-252"/>
<text text-anchor="middle" x="324" y="-229.8" font-family="Times,serif" font-size="14.00" fill="#000000">FooterComponent </text>
</g>
<!-- Team1Module&#45;&gt;FooterComponent  -->
<g id="edge4" class="edge">
<title>Team1Module&#45;&gt;FooterComponent </title>
<path fill="none" stroke="#000000" stroke-dasharray="5,2" d="M284.2604,-187.1061C284.2604,-187.1061 284.2604,-205.991 284.2604,-205.991"/>
<polygon fill="#000000" stroke="#000000" points="280.7604,-205.9909 284.2604,-215.991 287.7604,-205.991 280.7604,-205.9909"/>
</g>
<!-- HeaderComponent  -->
<g id="node6" class="node">
<title>HeaderComponent </title>
<polygon fill="#fb8072" stroke="#000000" points="245.7436,-252 120.2564,-252 120.2564,-216 245.7436,-216 245.7436,-252"/>
<text text-anchor="middle" x="183" y="-229.8" font-family="Times,serif" font-size="14.00" fill="#000000">HeaderComponent </text>
</g>
<!-- Team1Module&#45;&gt;HeaderComponent  -->
<g id="edge5" class="edge">
<title>Team1Module&#45;&gt;HeaderComponent </title>
<path fill="none" stroke="#000000" stroke-dasharray="5,2" d="M226.2053,-187.1061C226.2053,-187.1061 226.2053,-205.991 226.2053,-205.991"/>
<polygon fill="#000000" stroke="#000000" points="222.7054,-205.9909 226.2053,-215.991 229.7054,-205.991 222.7054,-205.9909"/>
</g>
<!-- AppRoutingModule -->
<g id="node4" class="node">
<title>AppRoutingModule</title>
<polygon fill="#8dd3c7" stroke="#000000" points="171.2744,-122 168.2744,-126 147.2744,-126 144.2744,-122 42.7256,-122 42.7256,-86 171.2744,-86 171.2744,-122"/>
<text text-anchor="middle" x="107" y="-99.8" font-family="Times,serif" font-size="14.00" fill="#000000">AppRoutingModule</text>
</g>
<!-- AppRoutingModule&#45;&gt;Team1Module -->
<g id="edge3" class="edge">
<title>AppRoutingModule&#45;&gt;Team1Module</title>
<path fill="none" stroke="#000000" d="M145.8827,-122.1061C145.8827,-141.3391 145.8827,-169 145.8827,-169 145.8827,-169 196.7387,-169 196.7387,-169"/>
<polygon fill="#000000" stroke="#000000" points="196.7388,-172.5001 206.7387,-169 196.7387,-165.5001 196.7388,-172.5001"/>
</g>
</g>
</svg>
