<svg id="e531a949-9174-4b02-b503-1d7281d622d2" data-name="Layer 1" xmlns="http://www.w3.org/2000/svg" width="134.62" height="134.62" viewBox="0 0 134.62 134.62"><title>cancel_exclamation_point</title><path d="M75.1,142.61A67.31,67.31,0,1,1,142.41,75.3,67.39,67.39,0,0,1,75.1,142.61ZM75.1,11A64.31,64.31,0,1,0,139.41,75.3,64.38,64.38,0,0,0,75.1,11Z" transform="translate(-7.79 -7.99)" fill="#f26a26"/><rect x="73.39" y="9.18" width="3" height="131.83" transform="translate(-38.95 66.95) rotate(-45)" fill="#f26a26"/><polygon points="70.22 62.44 70.22 19.71 64.27 19.71 64.27 56.49 70.22 62.44" fill="#f26a26"/><path d="M79,117.86a6.2,6.2,0,0,0-1.88-1.28,5.69,5.69,0,0,0-2.31-.48,5.55,5.55,0,0,0-2.33.48,6.23,6.23,0,0,0-1.86,1.28,5.6,5.6,0,0,0-1.24,1.88,6,6,0,0,0-.45,2.31,5.79,5.79,0,0,0,5.88,5.88,6,6,0,0,0,2.31-.45A5.63,5.63,0,0,0,79,126.23a6.37,6.37,0,0,0,1.28-1.85,5.55,5.55,0,0,0,.48-2.33,5.69,5.69,0,0,0-.48-2.31A6.38,6.38,0,0,0,79,117.86Z" transform="translate(-7.79 -7.99)" fill="#f26a26"/><path d="M72.28,94.72c.07,1.77.17,3.63.3,5.59s.25,4.14.38,6.53h4.16q.18-3.59.38-6.53c.12-2,.22-3.82.29-5.59s.11-3.51.15-5.21c0-1.13,0-2.32.06-3.53L72.06,80v4c0,1.92,0,3.73.07,5.44S72.22,93,72.28,94.72Z" transform="translate(-7.79 -7.99)" fill="#f26a26"/></svg>