<svg id="a8792a5f-0ab4-4e8e-a84c-0a0c09596c1d" data-name="Layer 1" xmlns="http://www.w3.org/2000/svg" width="120.26" height="89.13" viewBox="0 0 120.26 89.13"><title>associates</title><path d="M128.13,109.76v-.67c-.13-2-.53-6.81-1.33-9a9.74,9.74,0,0,0-4-5.34,62.33,62.33,0,0,0-8-3.21,86.47,86.47,0,0,1-9.89-4c-1.2-.67-2.27-4.14-2.4-5.34,0-.14.27-.41.93-1.07a23.77,23.77,0,0,0,5-9c1.2-4.67,2.27-14.29-2.14-20.17-2.54-3.34-6.41-5.22-11.63-5.35h-.53c-5.21.13-9.09,2-11.63,5.35C78,57.92,79,67.54,80.3,72.21a23.62,23.62,0,0,0,4.94,9c.13.26.8.8.94,1.07.4,1.06-1.21,4.67-2.41,5.34a96.66,96.66,0,0,1-9.75,4h-.14c-.93.4-1.74.67-2.54.93A36.85,36.85,0,0,1,65.6,90c-1.87-1.07-3.34-6-3.34-7.49,0-.13.13-.4,1.2-1.6a29.93,29.93,0,0,0,6.28-11.63c1.6-6.14,2.94-18.57-2.81-26.19-3.2-4.41-8.28-6.68-15-6.81H51.3c-6.68.27-11.76,2.54-15,6.95-5.74,7.61-4.41,20-2.8,26.19A31.1,31.1,0,0,0,39.81,80.9h0A12.83,12.83,0,0,1,41,82.5c.53,1.61-1.6,6.42-3.34,7.49-2.14,1.2-7.88,3.34-13.1,5.34-5.61,2.14-9.35,3.48-10.29,4.14a12.38,12.38,0,0,0-5.07,6.82c-.67,2.8-1.07,9.22-1.34,11.76v.67l.54.53c1.47,1.47,9.08,6.15,43.42,6.15,34.08,0,41.83-4.81,43.43-6.28l.54-.54v-.67c0-.8-.14-1.73-.27-2.94,25-.13,30.87-3.74,32.07-4.81Zm-76.3,12.56c-30.2,0-38.75-3.74-40.89-4.94a54.74,54.74,0,0,1,1.47-10.16,10.13,10.13,0,0,1,3.88-5.34c.8-.54,6.15-2.54,9.75-3.88,5.48-2,11.23-4.14,13.5-5.48,2.81-1.6,5.88-7.88,4.68-11.09a6.67,6.67,0,0,0-1.87-2.67h0a26.79,26.79,0,0,1-5.62-10.29C35.26,62.86,34.06,51.63,39,44.82c2.67-3.61,6.81-5.48,12.56-5.61h.53c5.75.13,9.89,2.14,12.56,5.61,5,6.68,3.74,18,2.27,23.65a28.78,28.78,0,0,1-5.61,10.29c-1.47,1.6-2,2.41-2.14,3.61,0,2.14,1.61,8.42,4.81,10.29a23.45,23.45,0,0,0,3.08,1.47c1.2.53,2.54,1.07,4,1.6,2,.8,4.27,1.61,6.41,2.41,3.61,1.33,9,3.34,9.75,3.87,1.61,1.07,2.81,2.27,3.88,5.35a25.58,25.58,0,0,1,.94,4.81c.13.93.26,2,.4,2.94s.13,1.6.26,2.4C90.59,118.58,82,122.32,51.83,122.32ZM95.26,112a26.63,26.63,0,0,0-1.2-5.74c-1.34-3.74-2.94-5.48-5.08-6.82a89.57,89.57,0,0,0-10.42-4.14c-1.07-.4-2.14-.8-3.07-1.2a100.18,100.18,0,0,0,9.75-4C87.51,88.78,89.92,84,89,81.3a8.74,8.74,0,0,0-1.47-2.14,20.48,20.48,0,0,1-4.14-7.61c-1.07-4.15-2-12.7,1.74-17.64,2-2.68,5.07-4,9.35-4.15h.27c4.27.14,7.35,1.47,9.35,4.15,3.74,4.94,2.81,13.49,1.74,17.64a20.61,20.61,0,0,1-4.28,7.61c-1.07,1.2-1.6,2-1.6,2.94,0,1.74,1.2,6.55,3.87,8,1.74,1.07,6.15,2.67,10.29,4.14,2.54.94,6.82,2.54,7.35,2.94a6.94,6.94,0,0,1,2.81,3.88,40.29,40.29,0,0,1,1.07,7.35C123.46,109.36,116.78,111.9,95.26,112Z" transform="translate(-7.87 -36.27)" fill="#f26a26"/></svg>