<svg id="b30b3dd3-9cdb-4144-95f0-dd372fdaa0a4" data-name="Layer 1" xmlns="http://www.w3.org/2000/svg" width="125.06" height="125.06" viewBox="0 0 125.06 125.06"><title>pie_chart</title><path d="M135.85,70.8H83.54A1.5,1.5,0,0,1,82,69.3V17a1.5,1.5,0,0,1,1.5-1.5A53.87,53.87,0,0,1,137.35,69.3,1.5,1.5,0,0,1,135.85,70.8ZM85,67.8h49.29A50.87,50.87,0,0,0,85,18.51Z" transform="translate(-12.29 -15.49)" fill="#f26a26"/><path d="M66.1,140.55a53.82,53.82,0,0,1,0-107.63,1.5,1.5,0,0,1,1.5,1.5V85.24h50.82a1.5,1.5,0,0,1,1.5,1.5A53.87,53.87,0,0,1,66.1,140.55ZM64.6,35.94a50.82,50.82,0,1,0,52.29,52.3H66.1a1.5,1.5,0,0,1-1.5-1.5Z" transform="translate(-12.29 -15.49)" fill="#f26a26"/><path d="M26.32,120.88a1.5,1.5,0,0,1-1-2.64L65,84.24A1.5,1.5,0,0,1,67,86.52l-39.67,34A1.5,1.5,0,0,1,26.32,120.88Z" transform="translate(-12.29 -15.49)" fill="#f26a26"/><path d="M83.65,45.88a1.5,1.5,0,0,1-1-2.64L107,22.57A1.5,1.5,0,0,1,109,24.86L84.62,45.53A1.47,1.47,0,0,1,83.65,45.88Z" transform="translate(-12.29 -15.49)" fill="#f26a26"/><path d="M84.65,69.22a1.48,1.48,0,0,1-1.15-.55,1.49,1.49,0,0,1,.2-2.11l38.66-32a1.5,1.5,0,0,1,1.92,2.31l-38.67,32A1.51,1.51,0,0,1,84.65,69.22Z" transform="translate(-12.29 -15.49)" fill="#f26a26"/><path d="M111,70.55a1.5,1.5,0,0,1-.95-2.66l21.33-17.34a1.51,1.51,0,0,1,2.11.22,1.49,1.49,0,0,1-.22,2.11L111.93,70.21A1.47,1.47,0,0,1,111,70.55Z" transform="translate(-12.29 -15.49)" fill="#f26a26"/></svg>