<svg id="f169b213-6ab4-433f-912f-ffda0076f950" data-name="Layer 1" xmlns="http://www.w3.org/2000/svg" width="134.79" height="139.77" viewBox="0 0 134.79 139.77"><title>presenter_and_student</title><path d="M107.72,140.06c0-.26-.06-.52-.08-.78s0-.62-.11-.93-.1-.78-.16-1.17-.1-.79-.15-1.16a19.48,19.48,0,0,0-.73-3.74,7,7,0,0,0-3-4.1c-.67-.45-5.92-2.39-7.64-3l-1.7-.62c-1.13-.42-2.3-.85-3.37-1.28s-2.22-.84-3.17-1.27a17.73,17.73,0,0,1-2.45-1.17c-2.58-1.5-3.91-6.52-3.91-8.32.12-1.09.61-1.77,1.75-3a22.49,22.49,0,0,0,4.37-8C88.56,97.05,89.5,88.2,85.66,83c-2.13-2.77-5.4-4.23-9.72-4.33h-.41c-4.45.11-7.63,1.52-9.71,4.33-3.82,5.26-2.9,14.07-1.75,18.44a20.7,20.7,0,0,0,4.37,8A5.47,5.47,0,0,1,70,111.68c1,2.61-1.47,7.69-3.8,9a92.67,92.67,0,0,1-10.69,4.34c-4.62,1.71-7.19,2.73-7.64,3a7.77,7.77,0,0,0-3,4.09A42.24,42.24,0,0,0,43.75,140c2.24,1.2,9.68,3.79,32,3.79C96.76,143.75,104.77,141.48,107.72,140.06Z" transform="translate(-9.21 -6.9)" fill="none"/><path d="M110.48,138.44c.67,0-.24-2.66-.27-2.81a20.78,20.78,0,0,0-.94-4.36,9.62,9.62,0,0,0-4.1-5.5,66,66,0,0,0-8.29-3.3c-.61-.23-1.23-.46-1.81-.7-.24-.16-3.79-1.45-3.94-1.54a28.21,28.21,0,0,1-4.41-2c-1.32-.75-2.51-4.5-2.52-5.67a5.65,5.65,0,0,1,.89-1.11,23.82,23.82,0,0,0,5-9.28c.35-1.36,3.31-13.49-2.25-20.86-2.57-3.53-6.6-5.37-12-5.48h-.54c-5.42.22-9.46,2.09-12,5.58-5.56,7.37-2.61,19.51-2.26,20.87a24.71,24.71,0,0,0,5,9.13,5.19,5.19,0,0,0,.38.48,3.6,3.6,0,0,1,.54.73c.39,1.16-1.27,4.84-2.52,5.61-.71.4-8.19,3.39-8.61,3.55l-1.69.65-2.41.91A41.47,41.47,0,0,0,46,125.77a10,10,0,0,0-4.11,5.52c-.24,1-.87,7.23-.87,7.28-.07.81-.13,1.52-.19,2.05v.63l.49.5c1.16,1.15,7,4.92,34.43,4.92,26.85,0,33.13-3.84,34.42-5l.5-.49v-.63a16.14,16.14,0,0,0-.15-1.79Zm-34.74,5.31c-22.31,0-29.75-2.59-32-3.79a42.24,42.24,0,0,1,1.13-7.79,7.77,7.77,0,0,1,3-4.09c.45-.3,3-1.32,7.64-3a92.67,92.67,0,0,0,10.69-4.34c2.33-1.34,4.78-6.42,3.8-9a5.47,5.47,0,0,0-1.53-2.21,20.7,20.7,0,0,1-4.37-8C62.92,97.09,62,88.28,65.82,83c2.08-2.81,5.26-4.22,9.71-4.33h.41c4.32.1,7.59,1.56,9.72,4.33,3.84,5.18,2.9,14,1.75,18.44a22.49,22.49,0,0,1-4.37,8c-1.14,1.25-1.63,1.93-1.75,3,0,1.8,1.33,6.82,3.91,8.32A17.73,17.73,0,0,0,87.65,122c.95.43,2,.85,3.17,1.27s2.24.86,3.37,1.28l1.7.62c1.72.64,7,2.58,7.64,3a7,7,0,0,1,3,4.1,19.48,19.48,0,0,1,.73,3.74c0,.37.1.76.15,1.16s.11.79.16,1.17.08.62.11.93,0,.52.08.78C104.77,141.48,96.76,143.75,75.74,143.75Z" transform="translate(-9.21 -6.9)" fill="#f26a26"/><path d="M12.11,90.42H9.21V70.25c0-12.45,6.44-20.19,18.62-22.37l.75-.14,8.93,8.93L47,47.15l.56,0c10.2-.47,19.79-2.8,38.6-13.37a7.64,7.64,0,0,1,3.77-1c3,0,4.42,2.15,5.69,4.05,4.73,7,4.06,9.21-.5,12.64-9.37,7-22.6,13.69-36.45,18.34v4.26H55.81V65.72l1-.32c13.7-4.5,27.39-11.31,36.6-18.24,3.14-2.35,3.79-2.84-.16-8.7-1.42-2.12-2.06-2.77-3.29-2.77a4.79,4.79,0,0,0-2.35.59C68.73,46.89,58.47,49.45,48.28,50L37.51,60.77l-9.9-9.9C17.18,53,12.11,59.33,12.11,70.25Z" transform="translate(-9.21 -6.9)" fill="#f26a26"/><path d="M10.66,90.42" transform="translate(-9.21 -6.9)" fill="none" stroke="#f26a26" stroke-miterlimit="10" stroke-width="3"/><path d="M37.51,45.78A17.22,17.22,0,1,1,54.73,28.57,17.24,17.24,0,0,1,37.51,45.78Zm0-31.54A14.33,14.33,0,1,0,51.83,28.57,14.34,14.34,0,0,0,37.51,14.24Z" transform="translate(-9.21 -6.9)" fill="#f26a26"/><polygon points="33.5 46.6 36.39 43.66 36.39 35.03 33.5 36.34 33.5 46.6" fill="#f26a26"/><path d="M135.32,6.9H51.4a8.72,8.72,0,0,0-8.53,7l2.75,1.35a5.8,5.8,0,0,1,5.78-5.5h83.92a5.8,5.8,0,0,1,5.79,5.79V64.84a5.8,5.8,0,0,1-5.79,5.79H55.81v2.89h79.51A8.7,8.7,0,0,0,144,64.84V15.58A8.7,8.7,0,0,0,135.32,6.9Z" transform="translate(-9.21 -6.9)" fill="#f26a26"/></svg>