<svg id="bfb025aa-b00d-4f33-988d-36452229e508" data-name="Layer 1" xmlns="http://www.w3.org/2000/svg" width="144.9" height="115.98" viewBox="0 0 144.9 115.98"><title>viewing_screen</title><path d="M124.05,81.83a7.94,7.94,0,0,1-2,1.78c-.4.9-.81,1.7-1.23,2.47v5.66h-3.47A26.23,26.23,0,0,1,115,95h16.38v5.56c0,1.86-2,3.43-4.42,3.43h-1.92c1.45.73,3.15,1.62,5,2.65a6.69,6.69,0,0,0,4.58-6.08V93.34a1.6,1.6,0,0,0-1.6-1.6h-9Z" transform="translate(-2.06 -20.47)" fill="#f26a26"/><path d="M75.75,103.94H9.69c-2.4,0-4.42-1.57-4.42-3.43V95h48l2.29,2.48a1.6,1.6,0,0,0,1.18.52H79.49a1.64,1.64,0,0,0,1.09-.43L83.34,95h1.28a23.54,23.54,0,0,1-2.36-3.12,1.53,1.53,0,0,0-.64.34l-2.76,2.57H57.43l-2.28-2.48A1.61,1.61,0,0,0,54,91.74H15.84v-60a8,8,0,0,1,8-8h89a8,8,0,0,1,8,8v14a29.26,29.26,0,0,1,3.2,7v-21a11.24,11.24,0,0,0-11.22-11.23h-89A11.24,11.24,0,0,0,12.63,31.7v60h-9a1.6,1.6,0,0,0-1.6,1.6v7.17c0,3.66,3.42,6.63,7.63,6.63H69.25C71.51,106,73.73,104.86,75.75,103.94Z" transform="translate(-2.06 -20.47)" fill="#f26a26"/><polygon points="56.75 112.34 56.75 112.34 56.75 112.34 56.75 112.34" fill="none"/><path d="M147,131.78c0-2-.18-3.08-1.87-8.63-2-6.5-18.08-15.36-25.57-18.63a1.66,1.66,0,0,0-1.38,0l-18.37,8.88-.12-.06-16.36-8.79a1.63,1.63,0,0,0-1.38-.08c-6.52,2.54-25.56,11.43-27.45,18.72-1.27,4.92-1.83,7.49-1.93,8a2.07,2.07,0,0,0,0,.35,4.31,4.31,0,0,0,2.25,4.16c1.5.78,3.3.75,5.21.71h78c.54,0,1.08,0,1.6,0h.11l1.6,0C143.73,136.45,147,136,147,131.78Zm-5.66,1.38-1.49,0h-.1c-.56,0-1.14,0-1.72,0H58.89l-.07-.26h0v.26a6.52,6.52,0,0,1-2.54-.32c-.24-.13-.46-.34-.49-1v-.07c.14-.67.7-3.18,1.85-7.62s15.06-12.29,24.64-16.15l.11,0,.11.06L99,116.73a1.65,1.65,0,0,0,1.5,0l18.44-8.91.12.05c10.91,4.9,21.84,12.63,22.93,16.21,1.65,5.41,1.73,6.19,1.73,7.67C143.67,133,143.34,133.16,141.3,133.16Z" transform="translate(-2.06 -20.47)" fill="#f26a26"/><path d="M74.48,66.11c-.9,2.53.37,9,2.57,13a5.34,5.34,0,0,0,2.69,2.39l.11,0,0,.11A36.13,36.13,0,0,0,83.3,88c.38.59.73,1.14,1.08,1.71a18.23,18.23,0,0,0,3.84,4.66l.11.08v.14a35.21,35.21,0,0,1-.76,6,1.66,1.66,0,0,0,.19,1.25,1.64,1.64,0,0,0,1,.74,1.58,1.58,0,0,0,1.24-.19,1.66,1.66,0,0,0,.75-1,40.3,40.3,0,0,0,.89-7.65,1.63,1.63,0,0,0-.71-1.4A13.84,13.84,0,0,1,87.19,88c-.36-.59-.71-1.14-1.06-1.69l0-.06a31.15,31.15,0,0,1-3.47-6.64,1.75,1.75,0,0,0-1.5-1.09,2,2,0,0,1-1.18-1C78,74,77.13,68.48,77.53,67.27l0-.09.08-.05a2,2,0,0,1,.88-.14,1.52,1.52,0,0,0,1.22-.48,1.66,1.66,0,0,0,.48-1.22C79.8,54.2,83.89,48.24,87.4,45.18a1.67,1.67,0,0,0,.42-1.92l-.07-.12-.12-.22.21-.14a8.71,8.71,0,0,1,4.3-1.06l.1-1.79,1.54-1.06a3.71,3.71,0,0,1,.55-1.64l.16-.27.24.2A10.33,10.33,0,0,0,98.53,39a64.33,64.33,0,0,1,8.58,3c8.26,3.27,12.76,11.75,12.33,23.25A1.66,1.66,0,0,0,121.06,67a3.37,3.37,0,0,1,.46,0l0,.26.27-.08c.43,1.24-.37,6.69-2.37,10.35a2,2,0,0,1-1.15,1A1.65,1.65,0,0,0,117,79.6a32.45,32.45,0,0,1-3.49,6.61c-.39.6-.78,1.21-1.17,1.86a14.79,14.79,0,0,1-3.39,4.11,1.69,1.69,0,0,0-.64,1.32,34,34,0,0,0,1,8,1.67,1.67,0,0,0,2,1.16,1.65,1.65,0,0,0,1.15-2,29,29,0,0,1-.83-6.3v-.13l.09-.08a19.52,19.52,0,0,0,3.44-4.38c.37-.61.74-1.18,1.1-1.75l.26.08-.22-.14a38.36,38.36,0,0,0,3.46-6.35l0-.1.09,0a5.45,5.45,0,0,0,2.48-2.32c2.2-4,3.48-10.49,2.58-13a3.44,3.44,0,0,0-2-2.07l-.17-.06v-.18c0-12-5.39-21.25-14.38-24.8a64.07,64.07,0,0,0-9-3.14,5.89,5.89,0,0,1-3-1.61l0-.1a1.63,1.63,0,0,0-.69-1.08,1.59,1.59,0,0,0-1.25-.26c-1.56.31-3,2.51-3.52,3.83a6.3,6.3,0,0,0-.43,1.65l0,.21-.21,0c-2.13.3-5.84,1.34-6.84,5a1.82,1.82,0,0,0-.08.89l0,.12-.09.1c-4.25,4.76-6.41,11.18-6.42,19.1v.2l-.18.06A3.38,3.38,0,0,0,74.48,66.11Z" transform="translate(-2.06 -20.47)" fill="#f26a26"/><path d="M35.79,44.73A10.85,10.85,0,1,0,46.65,34,10.8,10.8,0,0,0,35.79,44.73Zm10.86-7.89A7.65,7.65,0,0,1,54,44.73a7.65,7.65,0,0,1-7.36,7.89,7.66,7.66,0,0,1-7.39-7.89A7.66,7.66,0,0,1,46.65,36.84Z" transform="translate(-2.06 -20.47)" fill="#f26a26"/><path d="M60.07,63.09a44.91,44.91,0,0,0-26.89,0c-3.82,1.26-6.83,5.19-6.58,8.57l.78,10A1.63,1.63,0,0,0,29.11,83H64.17A1.62,1.62,0,0,0,65.9,81.7c.28-3.37.54-6.75.77-10C67,68.21,64,64.37,60.07,63.09ZM62.63,79.2l-.08,1H30.74l-.67-8.7c-.15-2,1.68-4.87,4.37-5.76a40.69,40.69,0,0,1,24.37,0c2.45.79,4.58,3.6,4.4,5.77C63,74,62.84,76.61,62.63,79.2Z" transform="translate(-2.06 -20.47)" fill="#f26a26"/></svg>