<?xml version="1.0" encoding="UTF-8" standalone="no"?>
<!DOCTYPE svg PUBLIC "-//W3C//DTD SVG 1.1//EN"
 "http://www.w3.org/Graphics/SVG/1.1/DTD/svg11.dtd">
<!-- Generated by graphviz version 2.40.1 (20161225.0304)
 -->
<!-- Title: dependencies Pages: 1 -->
<svg width="504pt" height="211pt"
 viewBox="0.00 0.00 504.00 211.00" xmlns="http://www.w3.org/2000/svg" xmlns:xlink="http://www.w3.org/1999/xlink">
<g id="graph0" class="graph" transform="scale(1 1) rotate(0) translate(4 207)">
<title>dependencies</title>
<polygon fill="#ffffff" stroke="transparent" points="-4,4 -4,-207 500,-207 500,4 -4,4"/>
<text text-anchor="start" x="227.0091" y="-42.4" font-family="sans-serif" font-weight="bold" font-size="14.00" fill="#000000">Legend</text>
<polygon fill="#ffffb3" stroke="transparent" points="14,-10 14,-30 34,-30 34,-10 14,-10"/>
<text text-anchor="start" x="37.629" y="-15.4" font-family="sans-serif" font-size="14.00" fill="#000000"> &#160;Declarations</text>
<polygon fill="#8dd3c7" stroke="transparent" points="127,-10 127,-30 147,-30 147,-10 127,-10"/>
<text text-anchor="start" x="150.7251" y="-15.4" font-family="sans-serif" font-size="14.00" fill="#000000"> &#160;Module</text>
<polygon fill="#80b1d3" stroke="transparent" points="213,-10 213,-30 233,-30 233,-10 213,-10"/>
<text text-anchor="start" x="236.7812" y="-15.4" font-family="sans-serif" font-size="14.00" fill="#000000"> &#160;Bootstrap</text>
<polygon fill="#fdb462" stroke="transparent" points="310,-10 310,-30 330,-30 330,-10 310,-10"/>
<text text-anchor="start" x="333.6732" y="-15.4" font-family="sans-serif" font-size="14.00" fill="#000000"> &#160;Providers</text>
<polygon fill="#fb8072" stroke="transparent" points="406,-10 406,-30 426,-30 426,-10 406,-10"/>
<text text-anchor="start" x="429.7258" y="-15.4" font-family="sans-serif" font-size="14.00" fill="#000000"> &#160;Exports</text>
<g id="clust1" class="cluster">
<title>cluster_BatchRouteModule</title>
<polygon fill="none" stroke="#000000" stroke-dasharray="1,5" points="108,-70 108,-195 388,-195 388,-70 108,-70"/>
</g>
<g id="clust3" class="cluster">
<title>cluster_BatchRouteModule_imports</title>
<polygon fill="none" stroke="#000000" points="116,-78 116,-130 380,-130 380,-78 116,-78"/>
</g>
<!-- BatchModule -->
<g id="node1" class="node">
<title>BatchModule</title>
<polygon fill="#8dd3c7" stroke="#000000" points="372.2064,-122 369.2064,-126 348.2064,-126 345.2064,-122 279.7936,-122 279.7936,-86 372.2064,-86 372.2064,-122"/>
<text text-anchor="middle" x="326" y="-99.8" font-family="Times,serif" font-size="14.00" fill="#000000">BatchModule</text>
</g>
<!-- BatchRouteModule -->
<g id="node3" class="node">
<title>BatchRouteModule</title>
<polygon fill="#8dd3c7" stroke="#000000" points="317.6485,-187 314.6485,-191 293.6485,-191 290.6485,-187 192.3515,-187 192.3515,-151 317.6485,-151 317.6485,-187"/>
<text text-anchor="middle" x="255" y="-164.8" font-family="Times,serif" font-size="14.00" fill="#000000">BatchRouteModule</text>
</g>
<!-- BatchModule&#45;&gt;BatchRouteModule -->
<g id="edge1" class="edge">
<title>BatchModule&#45;&gt;BatchRouteModule</title>
<path fill="none" stroke="#000000" d="M298.8605,-122.1061C298.8605,-122.1061 298.8605,-140.991 298.8605,-140.991"/>
<polygon fill="#000000" stroke="#000000" points="295.3605,-140.9909 298.8605,-150.991 302.3605,-140.991 295.3605,-140.9909"/>
</g>
<!-- BatchRoutingModule -->
<g id="node2" class="node">
<title>BatchRoutingModule</title>
<polygon fill="#8dd3c7" stroke="#000000" points="261.8244,-122 258.8244,-126 237.8244,-126 234.8244,-122 124.1756,-122 124.1756,-86 261.8244,-86 261.8244,-122"/>
<text text-anchor="middle" x="193" y="-99.8" font-family="Times,serif" font-size="14.00" fill="#000000">BatchRoutingModule</text>
</g>
<!-- BatchRoutingModule&#45;&gt;BatchRouteModule -->
<g id="edge2" class="edge">
<title>BatchRoutingModule&#45;&gt;BatchRouteModule</title>
<path fill="none" stroke="#000000" d="M226.919,-122.1061C226.919,-122.1061 226.919,-140.991 226.919,-140.991"/>
<polygon fill="#000000" stroke="#000000" points="223.4191,-140.9909 226.919,-150.991 230.4191,-140.991 223.4191,-140.9909"/>
</g>
</g>
</svg>
