<?xml version="1.0" encoding="UTF-8" standalone="no"?>
<!DOCTYPE svg PUBLIC "-//W3C//DTD SVG 1.1//EN"
 "http://www.w3.org/Graphics/SVG/1.1/DTD/svg11.dtd">
<!-- Generated by graphviz version 2.40.1 (20161225.0304)
 -->
<!-- Title: dependencies Pages: 1 -->
<svg width="958pt" height="211pt"
 viewBox="0.00 0.00 958.00 211.00" xmlns="http://www.w3.org/2000/svg" xmlns:xlink="http://www.w3.org/1999/xlink">
<g id="graph0" class="graph" transform="scale(1 1) rotate(0) translate(4 207)">
<title>dependencies</title>
<polygon fill="#ffffff" stroke="transparent" points="-4,4 -4,-207 954,-207 954,4 -4,4"/>
<text text-anchor="start" x="454.0091" y="-42.4" font-family="sans-serif" font-weight="bold" font-size="14.00" fill="#000000">Legend</text>
<polygon fill="#ffffb3" stroke="transparent" points="241,-10 241,-30 261,-30 261,-10 241,-10"/>
<text text-anchor="start" x="264.629" y="-15.4" font-family="sans-serif" font-size="14.00" fill="#000000"> &#160;Declarations</text>
<polygon fill="#8dd3c7" stroke="transparent" points="354,-10 354,-30 374,-30 374,-10 354,-10"/>
<text text-anchor="start" x="377.7251" y="-15.4" font-family="sans-serif" font-size="14.00" fill="#000000"> &#160;Module</text>
<polygon fill="#80b1d3" stroke="transparent" points="440,-10 440,-30 460,-30 460,-10 440,-10"/>
<text text-anchor="start" x="463.7812" y="-15.4" font-family="sans-serif" font-size="14.00" fill="#000000"> &#160;Bootstrap</text>
<polygon fill="#fdb462" stroke="transparent" points="537,-10 537,-30 557,-30 557,-10 537,-10"/>
<text text-anchor="start" x="560.6732" y="-15.4" font-family="sans-serif" font-size="14.00" fill="#000000"> &#160;Providers</text>
<polygon fill="#fb8072" stroke="transparent" points="633,-10 633,-30 653,-30 653,-10 633,-10"/>
<text text-anchor="start" x="656.7258" y="-15.4" font-family="sans-serif" font-size="14.00" fill="#000000"> &#160;Exports</text>
<g id="clust1" class="cluster">
<title>cluster_AppModule</title>
<polygon fill="none" stroke="#000000" stroke-dasharray="1,5" points="8,-70 8,-195 942,-195 942,-70 8,-70"/>
</g>
<g id="clust2" class="cluster">
<title>cluster_AppModule_declarations</title>
<polygon fill="none" stroke="#000000" points="382,-78 382,-130 934,-130 934,-78 382,-78"/>
</g>
<g id="clust7" class="cluster">
<title>cluster_AppModule_imports</title>
<polygon fill="none" stroke="#000000" points="16,-78 16,-130 374,-130 374,-78 16,-78"/>
</g>
<!-- FooterComponent -->
<g id="node1" class="node">
<title>FooterComponent</title>
<polygon fill="#ffffb3" stroke="#000000" points="925.8809,-122 808.1191,-122 808.1191,-86 925.8809,-86 925.8809,-122"/>
<text text-anchor="middle" x="867" y="-99.8" font-family="Times,serif" font-size="14.00" fill="#000000">FooterComponent</text>
</g>
<!-- AppModule -->
<g id="node5" class="node">
<title>AppModule</title>
<polygon fill="#8dd3c7" stroke="#000000" points="494.6571,-187 491.6571,-191 470.6571,-191 467.6571,-187 411.3429,-187 411.3429,-151 494.6571,-151 494.6571,-187"/>
<text text-anchor="middle" x="453" y="-164.8" font-family="Times,serif" font-size="14.00" fill="#000000">AppModule</text>
</g>
<!-- FooterComponent&#45;&gt;AppModule -->
<g id="edge1" class="edge">
<title>FooterComponent&#45;&gt;AppModule</title>
<path fill="none" stroke="#000000" d="M867,-122.2921C867,-144.2057 867,-178 867,-178 867,-178 504.9748,-178 504.9748,-178"/>
<polygon fill="#000000" stroke="#000000" points="504.9749,-174.5001 494.9748,-178 504.9748,-181.5001 504.9749,-174.5001"/>
</g>
<!-- HeaderComponent -->
<g id="node2" class="node">
<title>HeaderComponent</title>
<polygon fill="#ffffb3" stroke="#000000" points="789.7437,-122 668.2563,-122 668.2563,-86 789.7437,-86 789.7437,-122"/>
<text text-anchor="middle" x="729" y="-99.8" font-family="Times,serif" font-size="14.00" fill="#000000">HeaderComponent</text>
</g>
<!-- HeaderComponent&#45;&gt;AppModule -->
<g id="edge2" class="edge">
<title>HeaderComponent&#45;&gt;AppModule</title>
<path fill="none" stroke="#000000" d="M729,-122.1061C729,-141.3391 729,-169 729,-169 729,-169 504.9185,-169 504.9185,-169"/>
<polygon fill="#000000" stroke="#000000" points="504.9185,-165.5001 494.9185,-169 504.9184,-172.5001 504.9185,-165.5001"/>
</g>
<!-- HomeComponent -->
<g id="node3" class="node">
<title>HomeComponent</title>
<polygon fill="#ffffb3" stroke="#000000" points="649.5451,-122 534.4549,-122 534.4549,-86 649.5451,-86 649.5451,-122"/>
<text text-anchor="middle" x="592" y="-99.8" font-family="Times,serif" font-size="14.00" fill="#000000">HomeComponent</text>
</g>
<!-- HomeComponent&#45;&gt;AppModule -->
<g id="edge3" class="edge">
<title>HomeComponent&#45;&gt;AppModule</title>
<path fill="none" stroke="#000000" d="M592,-122.027C592,-138.3976 592,-160 592,-160 592,-160 504.7046,-160 504.7046,-160"/>
<polygon fill="#000000" stroke="#000000" points="504.7046,-156.5001 494.7046,-160 504.7045,-163.5001 504.7046,-156.5001"/>
</g>
<!-- ManageComponent -->
<g id="node4" class="node">
<title>ManageComponent</title>
<polygon fill="#ffffb3" stroke="#000000" points="516.4215,-122 389.5785,-122 389.5785,-86 516.4215,-86 516.4215,-122"/>
<text text-anchor="middle" x="453" y="-99.8" font-family="Times,serif" font-size="14.00" fill="#000000">ManageComponent</text>
</g>
<!-- ManageComponent&#45;&gt;AppModule -->
<g id="edge4" class="edge">
<title>ManageComponent&#45;&gt;AppModule</title>
<path fill="none" stroke="#000000" d="M453,-122.1061C453,-122.1061 453,-140.991 453,-140.991"/>
<polygon fill="#000000" stroke="#000000" points="449.5001,-140.9909 453,-150.991 456.5001,-140.991 449.5001,-140.9909"/>
</g>
<!-- AppRoutingModule -->
<g id="node6" class="node">
<title>AppRoutingModule</title>
<polygon fill="#8dd3c7" stroke="#000000" points="366.2744,-122 363.2744,-126 342.2744,-126 339.2744,-122 237.7256,-122 237.7256,-86 366.2744,-86 366.2744,-122"/>
<text text-anchor="middle" x="302" y="-99.8" font-family="Times,serif" font-size="14.00" fill="#000000">AppRoutingModule</text>
</g>
<!-- AppRoutingModule&#45;&gt;AppModule -->
<g id="edge5" class="edge">
<title>AppRoutingModule&#45;&gt;AppModule</title>
<path fill="none" stroke="#000000" d="M302,-122.027C302,-138.3976 302,-160 302,-160 302,-160 401.3389,-160 401.3389,-160"/>
<polygon fill="#000000" stroke="#000000" points="401.3389,-163.5001 411.3389,-160 401.3388,-156.5001 401.3389,-163.5001"/>
</g>
<!-- BatchModule -->
<g id="node7" class="node">
<title>BatchModule</title>
<polygon fill="#8dd3c7" stroke="#000000" points="220.2064,-122 217.2064,-126 196.2064,-126 193.2064,-122 127.7936,-122 127.7936,-86 220.2064,-86 220.2064,-122"/>
<text text-anchor="middle" x="174" y="-99.8" font-family="Times,serif" font-size="14.00" fill="#000000">BatchModule</text>
</g>
<!-- BatchModule&#45;&gt;AppModule -->
<g id="edge6" class="edge">
<title>BatchModule&#45;&gt;AppModule</title>
<path fill="none" stroke="#000000" d="M174,-122.1061C174,-141.3391 174,-169 174,-169 174,-169 401.2309,-169 401.2309,-169"/>
<polygon fill="#000000" stroke="#000000" points="401.2309,-172.5001 411.2309,-169 401.2308,-165.5001 401.2309,-172.5001"/>
</g>
<!-- UserModule -->
<g id="node8" class="node">
<title>UserModule</title>
<polygon fill="#8dd3c7" stroke="#000000" points="109.9762,-122 106.9762,-126 85.9762,-126 82.9762,-122 24.0238,-122 24.0238,-86 109.9762,-86 109.9762,-122"/>
<text text-anchor="middle" x="67" y="-99.8" font-family="Times,serif" font-size="14.00" fill="#000000">UserModule</text>
</g>
<!-- UserModule&#45;&gt;AppModule -->
<g id="edge7" class="edge">
<title>UserModule&#45;&gt;AppModule</title>
<path fill="none" stroke="#000000" d="M67,-122.2921C67,-144.2057 67,-178 67,-178 67,-178 401.3245,-178 401.3245,-178"/>
<polygon fill="#000000" stroke="#000000" points="401.3245,-181.5001 411.3245,-178 401.3245,-174.5001 401.3245,-181.5001"/>
</g>
</g>
</svg>
