<?xml version="1.0" encoding="UTF-8" standalone="no"?>
<!DOCTYPE svg PUBLIC "-//W3C//DTD SVG 1.1//EN"
 "http://www.w3.org/Graphics/SVG/1.1/DTD/svg11.dtd">
<!-- Generated by graphviz version 2.40.1 (20161225.0304)
 -->
<!-- Title: dependencies Pages: 1 -->
<svg width="978pt" height="284pt"
 viewBox="0.00 0.00 978.00 284.00" xmlns="http://www.w3.org/2000/svg" xmlns:xlink="http://www.w3.org/1999/xlink">
<g id="graph0" class="graph" transform="scale(1 1) rotate(0) translate(4 280)">
<title>dependencies</title>
<polygon fill="#ffffff" stroke="transparent" points="-4,4 -4,-280 974,-280 974,4 -4,4"/>
<text text-anchor="start" x="464.0091" y="-42.4" font-family="sans-serif" font-weight="bold" font-size="14.00" fill="#000000">Legend</text>
<polygon fill="#ffffb3" stroke="transparent" points="251,-10 251,-30 271,-30 271,-10 251,-10"/>
<text text-anchor="start" x="274.629" y="-15.4" font-family="sans-serif" font-size="14.00" fill="#000000"> &#160;Declarations</text>
<polygon fill="#8dd3c7" stroke="transparent" points="364,-10 364,-30 384,-30 384,-10 364,-10"/>
<text text-anchor="start" x="387.7251" y="-15.4" font-family="sans-serif" font-size="14.00" fill="#000000"> &#160;Module</text>
<polygon fill="#80b1d3" stroke="transparent" points="450,-10 450,-30 470,-30 470,-10 450,-10"/>
<text text-anchor="start" x="473.7812" y="-15.4" font-family="sans-serif" font-size="14.00" fill="#000000"> &#160;Bootstrap</text>
<polygon fill="#fdb462" stroke="transparent" points="547,-10 547,-30 567,-30 567,-10 547,-10"/>
<text text-anchor="start" x="570.6732" y="-15.4" font-family="sans-serif" font-size="14.00" fill="#000000"> &#160;Providers</text>
<polygon fill="#fb8072" stroke="transparent" points="643,-10 643,-30 663,-30 663,-10 643,-10"/>
<text text-anchor="start" x="666.7258" y="-15.4" font-family="sans-serif" font-size="14.00" fill="#000000"> &#160;Exports</text>
<g id="clust1" class="cluster">
<title>cluster_AppModule</title>
<polygon fill="none" stroke="#000000" stroke-dasharray="1,5" points="8,-70 8,-268 962,-268 962,-70 8,-70"/>
</g>
<g id="clust2" class="cluster">
<title>cluster_AppModule_declarations</title>
<polygon fill="none" stroke="#000000" points="278,-78 278,-130 954,-130 954,-78 278,-78"/>
</g>
<g id="clust8" class="cluster">
<title>cluster_AppModule_imports</title>
<polygon fill="none" stroke="#000000" points="16,-78 16,-130 270,-130 270,-78 16,-78"/>
</g>
<g id="clust10" class="cluster">
<title>cluster_AppModule_bootstrap</title>
<polygon fill="none" stroke="#000000" points="426,-208 426,-260 550,-260 550,-208 426,-208"/>
</g>
<!-- AppComponent -->
<g id="node1" class="node">
<title>AppComponent</title>
<polygon fill="#ffffb3" stroke="#000000" points="945.9399,-122 840.0601,-122 840.0601,-86 945.9399,-86 945.9399,-122"/>
<text text-anchor="middle" x="893" y="-99.8" font-family="Times,serif" font-size="14.00" fill="#000000">AppComponent</text>
</g>
<!-- AppModule -->
<g id="node6" class="node">
<title>AppModule</title>
<polygon fill="#8dd3c7" stroke="#000000" points="529.6571,-187 526.6571,-191 505.6571,-191 502.6571,-187 446.3429,-187 446.3429,-151 529.6571,-151 529.6571,-187"/>
<text text-anchor="middle" x="488" y="-164.8" font-family="Times,serif" font-size="14.00" fill="#000000">AppModule</text>
</g>
<!-- AppComponent&#45;&gt;AppModule -->
<g id="edge1" class="edge">
<title>AppComponent&#45;&gt;AppModule</title>
<path fill="none" stroke="#000000" d="M893,-122.2921C893,-144.2057 893,-178 893,-178 893,-178 539.8167,-178 539.8167,-178"/>
<polygon fill="#000000" stroke="#000000" points="539.8167,-174.5001 529.8167,-178 539.8167,-181.5001 539.8167,-174.5001"/>
</g>
<!-- FooterComponent -->
<g id="node2" class="node">
<title>FooterComponent</title>
<polygon fill="#ffffb3" stroke="#000000" points="821.8809,-122 704.1191,-122 704.1191,-86 821.8809,-86 821.8809,-122"/>
<text text-anchor="middle" x="763" y="-99.8" font-family="Times,serif" font-size="14.00" fill="#000000">FooterComponent</text>
</g>
<!-- FooterComponent&#45;&gt;AppModule -->
<g id="edge2" class="edge">
<title>FooterComponent&#45;&gt;AppModule</title>
<path fill="none" stroke="#000000" d="M763,-122.1061C763,-141.3391 763,-169 763,-169 763,-169 539.7666,-169 539.7666,-169"/>
<polygon fill="#000000" stroke="#000000" points="539.7666,-165.5001 529.7666,-169 539.7665,-172.5001 539.7666,-165.5001"/>
</g>
<!-- HeaderComponent -->
<g id="node3" class="node">
<title>HeaderComponent</title>
<polygon fill="#ffffb3" stroke="#000000" points="685.7437,-122 564.2563,-122 564.2563,-86 685.7437,-86 685.7437,-122"/>
<text text-anchor="middle" x="625" y="-99.8" font-family="Times,serif" font-size="14.00" fill="#000000">HeaderComponent</text>
</g>
<!-- HeaderComponent&#45;&gt;AppModule -->
<g id="edge3" class="edge">
<title>HeaderComponent&#45;&gt;AppModule</title>
<path fill="none" stroke="#000000" d="M625,-122.027C625,-138.3976 625,-160 625,-160 625,-160 539.8489,-160 539.8489,-160"/>
<polygon fill="#000000" stroke="#000000" points="539.849,-156.5001 529.8489,-160 539.8489,-163.5001 539.849,-156.5001"/>
</g>
<!-- HomeComponent -->
<g id="node4" class="node">
<title>HomeComponent</title>
<polygon fill="#ffffb3" stroke="#000000" points="545.5451,-122 430.4549,-122 430.4549,-86 545.5451,-86 545.5451,-122"/>
<text text-anchor="middle" x="488" y="-99.8" font-family="Times,serif" font-size="14.00" fill="#000000">HomeComponent</text>
</g>
<!-- HomeComponent&#45;&gt;AppModule -->
<g id="edge4" class="edge">
<title>HomeComponent&#45;&gt;AppModule</title>
<path fill="none" stroke="#000000" d="M488,-122.1061C488,-122.1061 488,-140.991 488,-140.991"/>
<polygon fill="#000000" stroke="#000000" points="484.5001,-140.9909 488,-150.991 491.5001,-140.991 484.5001,-140.9909"/>
</g>
<!-- ManageComponent -->
<g id="node5" class="node">
<title>ManageComponent</title>
<polygon fill="#ffffb3" stroke="#000000" points="412.4215,-122 285.5785,-122 285.5785,-86 412.4215,-86 412.4215,-122"/>
<text text-anchor="middle" x="349" y="-99.8" font-family="Times,serif" font-size="14.00" fill="#000000">ManageComponent</text>
</g>
<!-- ManageComponent&#45;&gt;AppModule -->
<g id="edge5" class="edge">
<title>ManageComponent&#45;&gt;AppModule</title>
<path fill="none" stroke="#000000" d="M349,-122.027C349,-138.3976 349,-160 349,-160 349,-160 436.2954,-160 436.2954,-160"/>
<polygon fill="#000000" stroke="#000000" points="436.2955,-163.5001 446.2954,-160 436.2954,-156.5001 436.2955,-163.5001"/>
</g>
<!-- AppComponent  -->
<g id="node9" class="node">
<title>AppComponent </title>
<polygon fill="#80b1d3" stroke="#000000" points="542.439,-252 433.561,-252 433.561,-216 542.439,-216 542.439,-252"/>
<text text-anchor="middle" x="488" y="-229.8" font-family="Times,serif" font-size="14.00" fill="#000000">AppComponent </text>
</g>
<!-- AppModule&#45;&gt;AppComponent  -->
<g id="edge8" class="edge">
<title>AppModule&#45;&gt;AppComponent </title>
<path fill="none" stroke="#000000" stroke-dasharray="1,5" d="M488,-187.1061C488,-187.1061 488,-205.991 488,-205.991"/>
<polygon fill="#000000" stroke="#000000" points="484.5001,-205.9909 488,-215.991 491.5001,-205.991 484.5001,-205.9909"/>
</g>
<!-- AppRoutingModule -->
<g id="node7" class="node">
<title>AppRoutingModule</title>
<polygon fill="#8dd3c7" stroke="#000000" points="262.2744,-122 259.2744,-126 238.2744,-126 235.2744,-122 133.7256,-122 133.7256,-86 262.2744,-86 262.2744,-122"/>
<text text-anchor="middle" x="198" y="-99.8" font-family="Times,serif" font-size="14.00" fill="#000000">AppRoutingModule</text>
</g>
<!-- AppRoutingModule&#45;&gt;AppModule -->
<g id="edge6" class="edge">
<title>AppRoutingModule&#45;&gt;AppModule</title>
<path fill="none" stroke="#000000" d="M198,-122.1061C198,-141.3391 198,-169 198,-169 198,-169 436.1412,-169 436.1412,-169"/>
<polygon fill="#000000" stroke="#000000" points="436.1413,-172.5001 446.1412,-169 436.1412,-165.5001 436.1413,-172.5001"/>
</g>
<!-- BatchModule -->
<g id="node8" class="node">
<title>BatchModule</title>
<polygon fill="#8dd3c7" stroke="#000000" points="116.2064,-122 113.2064,-126 92.2064,-126 89.2064,-122 23.7936,-122 23.7936,-86 116.2064,-86 116.2064,-122"/>
<text text-anchor="middle" x="70" y="-99.8" font-family="Times,serif" font-size="14.00" fill="#000000">BatchModule</text>
</g>
<!-- BatchModule&#45;&gt;AppModule -->
<g id="edge7" class="edge">
<title>BatchModule&#45;&gt;AppModule</title>
<path fill="none" stroke="#000000" d="M70,-122.2921C70,-144.2057 70,-178 70,-178 70,-178 436.0067,-178 436.0067,-178"/>
<polygon fill="#000000" stroke="#000000" points="436.0068,-181.5001 446.0067,-178 436.0067,-174.5001 436.0068,-181.5001"/>
</g>
</g>
</svg>
