<?xml version="1.0" encoding="UTF-8" standalone="no"?>
<!DOCTYPE svg PUBLIC "-//W3C//DTD SVG 1.1//EN"
 "http://www.w3.org/Graphics/SVG/1.1/DTD/svg11.dtd">
<!-- Generated by graphviz version 2.40.1 (20161225.0304)
 -->
<!-- Title: dependencies Pages: 1 -->
<svg width="1086pt" height="211pt"
 viewBox="0.00 0.00 1086.00 211.00" xmlns="http://www.w3.org/2000/svg" xmlns:xlink="http://www.w3.org/1999/xlink">
<g id="graph0" class="graph" transform="scale(1 1) rotate(0) translate(4 207)">
<title>dependencies</title>
<polygon fill="#ffffff" stroke="transparent" points="-4,4 -4,-207 1082,-207 1082,4 -4,4"/>
<text text-anchor="start" x="518.0091" y="-42.4" font-family="sans-serif" font-weight="bold" font-size="14.00" fill="#000000">Legend</text>
<polygon fill="#ffffb3" stroke="transparent" points="305,-10 305,-30 325,-30 325,-10 305,-10"/>
<text text-anchor="start" x="328.629" y="-15.4" font-family="sans-serif" font-size="14.00" fill="#000000"> &#160;Declarations</text>
<polygon fill="#8dd3c7" stroke="transparent" points="418,-10 418,-30 438,-30 438,-10 418,-10"/>
<text text-anchor="start" x="441.7251" y="-15.4" font-family="sans-serif" font-size="14.00" fill="#000000"> &#160;Module</text>
<polygon fill="#80b1d3" stroke="transparent" points="504,-10 504,-30 524,-30 524,-10 504,-10"/>
<text text-anchor="start" x="527.7812" y="-15.4" font-family="sans-serif" font-size="14.00" fill="#000000"> &#160;Bootstrap</text>
<polygon fill="#fdb462" stroke="transparent" points="601,-10 601,-30 621,-30 621,-10 601,-10"/>
<text text-anchor="start" x="624.6732" y="-15.4" font-family="sans-serif" font-size="14.00" fill="#000000"> &#160;Providers</text>
<polygon fill="#fb8072" stroke="transparent" points="697,-10 697,-30 717,-30 717,-10 697,-10"/>
<text text-anchor="start" x="720.7258" y="-15.4" font-family="sans-serif" font-size="14.00" fill="#000000"> &#160;Exports</text>
<g id="clust1" class="cluster">
<title>cluster_AppModule</title>
<polygon fill="none" stroke="#000000" stroke-dasharray="1,5" points="8,-70 8,-195 1070,-195 1070,-70 8,-70"/>
</g>
<g id="clust2" class="cluster">
<title>cluster_AppModule_declarations</title>
<polygon fill="none" stroke="#000000" points="382,-78 382,-130 1062,-130 1062,-78 382,-78"/>
</g>
<g id="clust8" class="cluster">
<title>cluster_AppModule_imports</title>
<polygon fill="none" stroke="#000000" points="16,-78 16,-130 374,-130 374,-78 16,-78"/>
</g>
<!-- ErrorComponent -->
<g id="node1" class="node">
<title>ErrorComponent</title>
<polygon fill="#ffffb3" stroke="#000000" points="1054.3669,-122 943.6331,-122 943.6331,-86 1054.3669,-86 1054.3669,-122"/>
<text text-anchor="middle" x="999" y="-99.8" font-family="Times,serif" font-size="14.00" fill="#000000">ErrorComponent</text>
</g>
<!-- AppModule -->
<g id="node6" class="node">
<title>AppModule</title>
<polygon fill="#8dd3c7" stroke="#000000" points="563.6571,-187 560.6571,-191 539.6571,-191 536.6571,-187 480.3429,-187 480.3429,-151 563.6571,-151 563.6571,-187"/>
<text text-anchor="middle" x="522" y="-164.8" font-family="Times,serif" font-size="14.00" fill="#000000">AppModule</text>
</g>
<!-- ErrorComponent&#45;&gt;AppModule -->
<g id="edge1" class="edge">
<title>ErrorComponent&#45;&gt;AppModule</title>
<path fill="none" stroke="#000000" d="M999,-122.2921C999,-144.2057 999,-178 999,-178 999,-178 573.9125,-178 573.9125,-178"/>
<polygon fill="#000000" stroke="#000000" points="573.9125,-174.5001 563.9125,-178 573.9125,-181.5001 573.9125,-174.5001"/>
</g>
<!-- FooterComponent -->
<g id="node2" class="node">
<title>FooterComponent</title>
<polygon fill="#ffffb3" stroke="#000000" points="925.8809,-122 808.1191,-122 808.1191,-86 925.8809,-86 925.8809,-122"/>
<text text-anchor="middle" x="867" y="-99.8" font-family="Times,serif" font-size="14.00" fill="#000000">FooterComponent</text>
</g>
<!-- FooterComponent&#45;&gt;AppModule -->
<g id="edge2" class="edge">
<title>FooterComponent&#45;&gt;AppModule</title>
<path fill="none" stroke="#000000" d="M867,-122.1061C867,-141.3391 867,-169 867,-169 867,-169 573.9589,-169 573.9589,-169"/>
<polygon fill="#000000" stroke="#000000" points="573.9589,-165.5001 563.9589,-169 573.9588,-172.5001 573.9589,-165.5001"/>
</g>
<!-- HeaderComponent -->
<g id="node3" class="node">
<title>HeaderComponent</title>
<polygon fill="#ffffb3" stroke="#000000" points="789.7437,-122 668.2563,-122 668.2563,-86 789.7437,-86 789.7437,-122"/>
<text text-anchor="middle" x="729" y="-99.8" font-family="Times,serif" font-size="14.00" fill="#000000">HeaderComponent</text>
</g>
<!-- HeaderComponent&#45;&gt;AppModule -->
<g id="edge3" class="edge">
<title>HeaderComponent&#45;&gt;AppModule</title>
<path fill="none" stroke="#000000" d="M729,-122.027C729,-138.3976 729,-160 729,-160 729,-160 573.8895,-160 573.8895,-160"/>
<polygon fill="#000000" stroke="#000000" points="573.8896,-156.5001 563.8895,-160 573.8895,-163.5001 573.8896,-156.5001"/>
</g>
<!-- HomeComponent -->
<g id="node4" class="node">
<title>HomeComponent</title>
<polygon fill="#ffffb3" stroke="#000000" points="649.5451,-122 534.4549,-122 534.4549,-86 649.5451,-86 649.5451,-122"/>
<text text-anchor="middle" x="592" y="-99.8" font-family="Times,serif" font-size="14.00" fill="#000000">HomeComponent</text>
</g>
<!-- HomeComponent&#45;&gt;AppModule -->
<g id="edge4" class="edge">
<title>HomeComponent&#45;&gt;AppModule</title>
<path fill="none" stroke="#000000" d="M549.0281,-122.1061C549.0281,-122.1061 549.0281,-140.991 549.0281,-140.991"/>
<polygon fill="#000000" stroke="#000000" points="545.5281,-140.9909 549.0281,-150.991 552.5281,-140.991 545.5281,-140.9909"/>
</g>
<!-- ManageComponent -->
<g id="node5" class="node">
<title>ManageComponent</title>
<polygon fill="#ffffb3" stroke="#000000" points="516.4215,-122 389.5785,-122 389.5785,-86 516.4215,-86 516.4215,-122"/>
<text text-anchor="middle" x="453" y="-99.8" font-family="Times,serif" font-size="14.00" fill="#000000">ManageComponent</text>
</g>
<!-- ManageComponent&#45;&gt;AppModule -->
<g id="edge5" class="edge">
<title>ManageComponent&#45;&gt;AppModule</title>
<path fill="none" stroke="#000000" d="M498.1911,-122.1061C498.1911,-122.1061 498.1911,-140.991 498.1911,-140.991"/>
<polygon fill="#000000" stroke="#000000" points="494.6912,-140.9909 498.1911,-150.991 501.6912,-140.991 494.6912,-140.9909"/>
</g>
<!-- AppRoutingModule -->
<g id="node7" class="node">
<title>AppRoutingModule</title>
<polygon fill="#8dd3c7" stroke="#000000" points="366.2744,-122 363.2744,-126 342.2744,-126 339.2744,-122 237.7256,-122 237.7256,-86 366.2744,-86 366.2744,-122"/>
<text text-anchor="middle" x="302" y="-99.8" font-family="Times,serif" font-size="14.00" fill="#000000">AppRoutingModule</text>
</g>
<!-- AppRoutingModule&#45;&gt;AppModule -->
<g id="edge6" class="edge">
<title>AppRoutingModule&#45;&gt;AppModule</title>
<path fill="none" stroke="#000000" d="M302,-122.027C302,-138.3976 302,-160 302,-160 302,-160 470.1018,-160 470.1018,-160"/>
<polygon fill="#000000" stroke="#000000" points="470.1019,-163.5001 480.1018,-160 470.1018,-156.5001 470.1019,-163.5001"/>
</g>
<!-- BatchModule -->
<g id="node8" class="node">
<title>BatchModule</title>
<polygon fill="#8dd3c7" stroke="#000000" points="220.2064,-122 217.2064,-126 196.2064,-126 193.2064,-122 127.7936,-122 127.7936,-86 220.2064,-86 220.2064,-122"/>
<text text-anchor="middle" x="174" y="-99.8" font-family="Times,serif" font-size="14.00" fill="#000000">BatchModule</text>
</g>
<!-- BatchModule&#45;&gt;AppModule -->
<g id="edge7" class="edge">
<title>BatchModule&#45;&gt;AppModule</title>
<path fill="none" stroke="#000000" d="M174,-122.1061C174,-141.3391 174,-169 174,-169 174,-169 470.0231,-169 470.0231,-169"/>
<polygon fill="#000000" stroke="#000000" points="470.0231,-172.5001 480.0231,-169 470.023,-165.5001 470.0231,-172.5001"/>
</g>
<!-- UserModule -->
<g id="node9" class="node">
<title>UserModule</title>
<polygon fill="#8dd3c7" stroke="#000000" points="109.9762,-122 106.9762,-126 85.9762,-126 82.9762,-122 24.0238,-122 24.0238,-86 109.9762,-86 109.9762,-122"/>
<text text-anchor="middle" x="67" y="-99.8" font-family="Times,serif" font-size="14.00" fill="#000000">UserModule</text>
</g>
<!-- UserModule&#45;&gt;AppModule -->
<g id="edge8" class="edge">
<title>UserModule&#45;&gt;AppModule</title>
<path fill="none" stroke="#000000" d="M67,-122.2921C67,-144.2057 67,-178 67,-178 67,-178 470.0103,-178 470.0103,-178"/>
<polygon fill="#000000" stroke="#000000" points="470.0103,-181.5001 480.0103,-178 470.0102,-174.5001 470.0103,-181.5001"/>
</g>
</g>
</svg>
