<?xml version="1.0" encoding="UTF-8" standalone="no"?>
<!DOCTYPE svg PUBLIC "-//W3C//DTD SVG 1.1//EN"
 "http://www.w3.org/Graphics/SVG/1.1/DTD/svg11.dtd">
<!-- Generated by graphviz version 2.40.1 (20161225.0304)
 -->
<!-- Title: dependencies Pages: 1 -->
<svg width="2243pt" height="363pt"
 viewBox="0.00 0.00 2243.00 363.00" xmlns="http://www.w3.org/2000/svg" xmlns:xlink="http://www.w3.org/1999/xlink">
<g id="graph0" class="graph" transform="scale(1 1) rotate(0) translate(4 359)">
<title>dependencies</title>
<polygon fill="#ffffff" stroke="transparent" points="-4,4 -4,-359 2239,-359 2239,4 -4,4"/>
<text text-anchor="start" x="1096.5091" y="-42.4" font-family="sans-serif" font-weight="bold" font-size="14.00" fill="#000000">Legend</text>
<polygon fill="#ffffb3" stroke="transparent" points="883.5,-10 883.5,-30 903.5,-30 903.5,-10 883.5,-10"/>
<text text-anchor="start" x="907.129" y="-15.4" font-family="sans-serif" font-size="14.00" fill="#000000"> &#160;Declarations</text>
<polygon fill="#8dd3c7" stroke="transparent" points="996.5,-10 996.5,-30 1016.5,-30 1016.5,-10 996.5,-10"/>
<text text-anchor="start" x="1020.2251" y="-15.4" font-family="sans-serif" font-size="14.00" fill="#000000"> &#160;Module</text>
<polygon fill="#80b1d3" stroke="transparent" points="1082.5,-10 1082.5,-30 1102.5,-30 1102.5,-10 1082.5,-10"/>
<text text-anchor="start" x="1106.2812" y="-15.4" font-family="sans-serif" font-size="14.00" fill="#000000"> &#160;Bootstrap</text>
<polygon fill="#fdb462" stroke="transparent" points="1179.5,-10 1179.5,-30 1199.5,-30 1199.5,-10 1179.5,-10"/>
<text text-anchor="start" x="1203.1732" y="-15.4" font-family="sans-serif" font-size="14.00" fill="#000000"> &#160;Providers</text>
<polygon fill="#fb8072" stroke="transparent" points="1275.5,-10 1275.5,-30 1295.5,-30 1295.5,-10 1275.5,-10"/>
<text text-anchor="start" x="1299.2258" y="-15.4" font-family="sans-serif" font-size="14.00" fill="#000000"> &#160;Exports</text>
<g id="clust1" class="cluster">
<title>cluster_AppModule</title>
<polygon fill="none" stroke="#000000" stroke-dasharray="1,5" points="915,-146 915,-274 1589,-274 1589,-146 915,-146"/>
</g>
<g id="clust2" class="cluster">
<title>cluster_AppModule_declarations</title>
<polygon fill="none" stroke="#000000" points="1179,-154 1179,-206 1581,-206 1581,-154 1179,-154"/>
</g>
<g id="clust6" class="cluster">
<title>cluster_AppModule_imports</title>
<polygon fill="none" stroke="#000000" points="923,-154 923,-206 1171,-206 1171,-154 923,-154"/>
</g>
<g id="clust16" class="cluster">
<title>cluster_BatchModule</title>
<polygon fill="none" stroke="#000000" stroke-dasharray="1,5" points="555,-146 555,-347 907,-347 907,-146 555,-146"/>
</g>
<g id="clust17" class="cluster">
<title>cluster_BatchModule_declarations</title>
<polygon fill="none" stroke="#000000" points="564,-154 564,-206 892,-206 892,-154 564,-154"/>
</g>
<g id="clust21" class="cluster">
<title>cluster_BatchModule_exports</title>
<polygon fill="none" stroke="#000000" points="563,-287 563,-339 899,-339 899,-287 563,-287"/>
</g>
<g id="clust24" class="cluster">
<title>cluster_BatchRouteModule</title>
<polygon fill="none" stroke="#000000" stroke-dasharray="1,5" points="377,-214 377,-339 547,-339 547,-214 377,-214"/>
</g>
<g id="clust26" class="cluster">
<title>cluster_BatchRouteModule_imports</title>
<polygon fill="none" stroke="#000000" points="385,-222 385,-274 539,-274 539,-222 385,-222"/>
</g>
<g id="clust36" class="cluster">
<title>cluster_HomeModule</title>
<polygon fill="none" stroke="#000000" stroke-dasharray="1,5" points="1917,-70 1917,-206 2227,-206 2227,-70 1917,-70"/>
</g>
<g id="clust37" class="cluster">
<title>cluster_HomeModule_declarations</title>
<polygon fill="none" stroke="#000000" points="2087,-78 2087,-130 2219,-130 2219,-78 2087,-78"/>
</g>
<g id="clust39" class="cluster">
<title>cluster_HomeModule_imports</title>
<polygon fill="none" stroke="#000000" points="1925,-78 1925,-130 2079,-130 2079,-78 1925,-78"/>
</g>
<g id="clust49" class="cluster">
<title>cluster_UserModule</title>
<polygon fill="none" stroke="#000000" stroke-dasharray="1,5" points="8,-70 8,-138 1909,-138 1909,-70 8,-70"/>
</g>
<g id="clust50" class="cluster">
<title>cluster_UserModule_declarations</title>
<polygon fill="none" stroke="#000000" points="886,-78 886,-130 1901,-130 1901,-78 886,-78"/>
</g>
<g id="clust58" class="cluster">
<title>cluster_UserModule_exports</title>
<polygon fill="none" stroke="#000000" points="16,-78 16,-130 878,-130 878,-78 16,-78"/>
</g>
<!-- ErrorComponent -->
<g id="node1" class="node">
<title>ErrorComponent</title>
<polygon fill="#ffffb3" stroke="#000000" points="1573.3669,-198 1462.6331,-198 1462.6331,-162 1573.3669,-162 1573.3669,-198"/>
<text text-anchor="middle" x="1518" y="-175.8" font-family="Times,serif" font-size="14.00" fill="#000000">ErrorComponent</text>
</g>
<!-- AppModule -->
<g id="node4" class="node">
<title>AppModule</title>
<polygon fill="#8dd3c7" stroke="#000000" points="1289.6571,-266 1286.6571,-270 1265.6571,-270 1262.6571,-266 1206.3429,-266 1206.3429,-230 1289.6571,-230 1289.6571,-266"/>
<text text-anchor="middle" x="1248" y="-243.8" font-family="Times,serif" font-size="14.00" fill="#000000">AppModule</text>
</g>
<!-- ErrorComponent&#45;&gt;AppModule -->
<g id="edge1" class="edge">
<title>ErrorComponent&#45;&gt;AppModule</title>
<path fill="none" stroke="#000000" d="M1518,-198.2921C1518,-220.2057 1518,-254 1518,-254 1518,-254 1299.8913,-254 1299.8913,-254"/>
<polygon fill="#000000" stroke="#000000" points="1299.8913,-250.5001 1289.8913,-254 1299.8912,-257.5001 1299.8913,-250.5001"/>
</g>
<!-- FooterComponent -->
<g id="node2" class="node">
<title>FooterComponent</title>
<polygon fill="#ffffb3" stroke="#000000" points="1444.8809,-198 1327.1191,-198 1327.1191,-162 1444.8809,-162 1444.8809,-198"/>
<text text-anchor="middle" x="1386" y="-175.8" font-family="Times,serif" font-size="14.00" fill="#000000">FooterComponent</text>
</g>
<!-- FooterComponent&#45;&gt;AppModule -->
<g id="edge2" class="edge">
<title>FooterComponent&#45;&gt;AppModule</title>
<path fill="none" stroke="#000000" d="M1386,-198.2667C1386,-216.5552 1386,-242 1386,-242 1386,-242 1299.779,-242 1299.779,-242"/>
<polygon fill="#000000" stroke="#000000" points="1299.7791,-238.5001 1289.779,-242 1299.779,-245.5001 1299.7791,-238.5001"/>
</g>
<!-- HeaderComponent -->
<g id="node3" class="node">
<title>HeaderComponent</title>
<polygon fill="#ffffb3" stroke="#000000" points="1308.7437,-198 1187.2563,-198 1187.2563,-162 1308.7437,-162 1308.7437,-198"/>
<text text-anchor="middle" x="1248" y="-175.8" font-family="Times,serif" font-size="14.00" fill="#000000">HeaderComponent</text>
</g>
<!-- HeaderComponent&#45;&gt;AppModule -->
<g id="edge3" class="edge">
<title>HeaderComponent&#45;&gt;AppModule</title>
<path fill="none" stroke="#000000" d="M1248,-198.2228C1248,-198.2228 1248,-219.7269 1248,-219.7269"/>
<polygon fill="#000000" stroke="#000000" points="1244.5001,-219.7269 1248,-229.7269 1251.5001,-219.727 1244.5001,-219.7269"/>
</g>
<!-- AppRoutingModule -->
<g id="node5" class="node">
<title>AppRoutingModule</title>
<polygon fill="#8dd3c7" stroke="#000000" points="1163.2744,-198 1160.2744,-202 1139.2744,-202 1136.2744,-198 1034.7256,-198 1034.7256,-162 1163.2744,-162 1163.2744,-198"/>
<text text-anchor="middle" x="1099" y="-175.8" font-family="Times,serif" font-size="14.00" fill="#000000">AppRoutingModule</text>
</g>
<!-- AppRoutingModule&#45;&gt;AppModule -->
<g id="edge4" class="edge">
<title>AppRoutingModule&#45;&gt;AppModule</title>
<path fill="none" stroke="#000000" d="M1099,-198.2921C1099,-220.2057 1099,-254 1099,-254 1099,-254 1196.0987,-254 1196.0987,-254"/>
<polygon fill="#000000" stroke="#000000" points="1196.0987,-257.5001 1206.0987,-254 1196.0986,-250.5001 1196.0987,-257.5001"/>
</g>
<!-- UserModule -->
<g id="node6" class="node">
<title>UserModule</title>
<polygon fill="#8dd3c7" stroke="#000000" points="1016.9762,-198 1013.9762,-202 992.9762,-202 989.9762,-198 931.0238,-198 931.0238,-162 1016.9762,-162 1016.9762,-198"/>
<text text-anchor="middle" x="974" y="-175.8" font-family="Times,serif" font-size="14.00" fill="#000000">UserModule</text>
</g>
<!-- UserModule&#45;&gt;AppModule -->
<g id="edge5" class="edge">
<title>UserModule&#45;&gt;AppModule</title>
<path fill="none" stroke="#000000" d="M988.3294,-198.1532C988.3294,-221.7566 988.3294,-260 988.3294,-260 988.3294,-260 1196.2794,-260 1196.2794,-260"/>
<polygon fill="#000000" stroke="#000000" points="1196.2795,-263.5001 1206.2794,-260 1196.2794,-256.5001 1196.2795,-263.5001"/>
</g>
<!-- BatchModule -->
<g id="node9" class="node">
<title>BatchModule</title>
<polygon fill="#8dd3c7" stroke="#000000" points="691.2064,-266 688.2064,-270 667.2064,-270 664.2064,-266 598.7936,-266 598.7936,-230 691.2064,-230 691.2064,-266"/>
<text text-anchor="middle" x="645" y="-243.8" font-family="Times,serif" font-size="14.00" fill="#000000">BatchModule</text>
</g>
<!-- UserModule&#45;&gt;BatchModule -->
<g id="edge8" class="edge">
<title>UserModule&#45;&gt;BatchModule</title>
<path fill="none" stroke="#000000" d="M959.6706,-198.2667C959.6706,-216.5552 959.6706,-242 959.6706,-242 959.6706,-242 701.4307,-242 701.4307,-242"/>
<polygon fill="#000000" stroke="#000000" points="701.4308,-238.5001 691.4307,-242 701.4307,-245.5001 701.4308,-238.5001"/>
</g>
<!-- AddTraineeComponent  -->
<g id="node23" class="node">
<title>AddTraineeComponent </title>
<polygon fill="#fb8072" stroke="#000000" points="869.6869,-122 718.3131,-122 718.3131,-86 869.6869,-86 869.6869,-122"/>
<text text-anchor="middle" x="794" y="-99.8" font-family="Times,serif" font-size="14.00" fill="#000000">AddTraineeComponent </text>
</g>
<!-- UserModule&#45;&gt;AddTraineeComponent  -->
<g id="edge22" class="edge">
<title>UserModule&#45;&gt;AddTraineeComponent </title>
<path fill="none" stroke="#000000" stroke-dasharray="5,2" d="M966.8353,-161.7181C966.8353,-146.0522 966.8353,-126 966.8353,-126 966.8353,-126 801.787,-126 801.787,-126 801.787,-126 801.787,-125.6168 801.787,-125.6168"/>
<polygon fill="#000000" stroke="#000000" points="805.2873,-132.1678 801.787,-122.1679 798.2873,-132.168 805.2873,-132.1678"/>
</g>
<!-- DeleteTraineeComponent  -->
<g id="node24" class="node">
<title>DeleteTraineeComponent </title>
<polygon fill="#fb8072" stroke="#000000" points="700.1116,-122 535.8884,-122 535.8884,-86 700.1116,-86 700.1116,-122"/>
<text text-anchor="middle" x="618" y="-99.8" font-family="Times,serif" font-size="14.00" fill="#000000">DeleteTraineeComponent </text>
</g>
<!-- UserModule&#45;&gt;DeleteTraineeComponent  -->
<g id="edge23" class="edge">
<title>UserModule&#45;&gt;DeleteTraineeComponent </title>
<path fill="none" stroke="#000000" stroke-dasharray="5,2" d="M959.6706,-161.9489C959.6706,-147.627 959.6706,-130 959.6706,-130 959.6706,-130 635.9511,-130 635.9511,-130 635.9511,-130 635.9511,-129.2058 635.9511,-129.2058"/>
<polygon fill="#000000" stroke="#000000" points="639.4512,-132.0578 635.9511,-122.0579 632.4512,-132.0579 639.4512,-132.0578"/>
</g>
<!-- TraineeTogglePipe  -->
<g id="node25" class="node">
<title>TraineeTogglePipe </title>
<polygon fill="#fb8072" stroke="#000000" points="518.2934,-122 391.7066,-122 391.7066,-86 518.2934,-86 518.2934,-122"/>
<text text-anchor="middle" x="455" y="-99.8" font-family="Times,serif" font-size="14.00" fill="#000000">TraineeTogglePipe </text>
</g>
<!-- UserModule&#45;&gt;TraineeTogglePipe  -->
<g id="edge24" class="edge">
<title>UserModule&#45;&gt;TraineeTogglePipe </title>
<path fill="none" stroke="#000000" stroke-dasharray="5,2" d="M952.506,-161.963C952.506,-148.7087 952.506,-133 952.506,-133 952.506,-133 455.8673,-133 455.8673,-133 455.8673,-133 455.8673,-131.9201 455.8673,-131.9201"/>
<polygon fill="#000000" stroke="#000000" points="459.3674,-132.2014 455.8673,-122.2015 452.3674,-132.2015 459.3674,-132.2014"/>
</g>
<!-- UpdateTraineeComponent  -->
<g id="node26" class="node">
<title>UpdateTraineeComponent </title>
<polygon fill="#fb8072" stroke="#000000" points="374.0064,-122 205.9936,-122 205.9936,-86 374.0064,-86 374.0064,-122"/>
<text text-anchor="middle" x="290" y="-99.8" font-family="Times,serif" font-size="14.00" fill="#000000">UpdateTraineeComponent </text>
</g>
<!-- UserModule&#45;&gt;UpdateTraineeComponent  -->
<g id="edge25" class="edge">
<title>UserModule&#45;&gt;UpdateTraineeComponent </title>
<path fill="none" stroke="#000000" stroke-dasharray="5,2" d="M945.3413,-161.5146C945.3413,-149.8601 945.3413,-137 945.3413,-137 945.3413,-137 290,-137 290,-137 290,-137 290,-132.0449 290,-132.0449"/>
<polygon fill="#000000" stroke="#000000" points="293.5001,-132.0448 290,-122.0449 286.5001,-132.0449 293.5001,-132.0448"/>
</g>
<!-- ViewTraineesComponent  -->
<g id="node27" class="node">
<title>ViewTraineesComponent </title>
<polygon fill="#fb8072" stroke="#000000" points="187.8434,-122 24.1566,-122 24.1566,-86 187.8434,-86 187.8434,-122"/>
<text text-anchor="middle" x="106" y="-99.8" font-family="Times,serif" font-size="14.00" fill="#000000">ViewTraineesComponent </text>
</g>
<!-- UserModule&#45;&gt;ViewTraineesComponent  -->
<g id="edge26" class="edge">
<title>UserModule&#45;&gt;ViewTraineesComponent </title>
<path fill="none" stroke="#000000" stroke-dasharray="5,2" d="M938.1766,-161.8701C938.1766,-151.6855 938.1766,-141 938.1766,-141 938.1766,-141 106,-141 106,-141 106,-141 106,-132.0664 106,-132.0664"/>
<polygon fill="#000000" stroke="#000000" points="109.5001,-132.0664 106,-122.0664 102.5001,-132.0665 109.5001,-132.0664"/>
</g>
<!-- BatchModalComponent -->
<g id="node7" class="node">
<title>BatchModalComponent</title>
<polygon fill="#ffffb3" stroke="#000000" points="884.0393,-198 733.9607,-198 733.9607,-162 884.0393,-162 884.0393,-198"/>
<text text-anchor="middle" x="809" y="-175.8" font-family="Times,serif" font-size="14.00" fill="#000000">BatchModalComponent</text>
</g>
<!-- BatchModalComponent&#45;&gt;BatchModule -->
<g id="edge6" class="edge">
<title>BatchModalComponent&#45;&gt;BatchModule</title>
<path fill="none" stroke="#000000" d="M835.1731,-198.027C835.1731,-214.3976 835.1731,-236 835.1731,-236 835.1731,-236 701.5216,-236 701.5216,-236"/>
<polygon fill="#000000" stroke="#000000" points="701.5216,-232.5001 691.5216,-236 701.5215,-239.5001 701.5216,-232.5001"/>
</g>
<!-- BatchViewComponent -->
<g id="node8" class="node">
<title>BatchViewComponent</title>
<polygon fill="#ffffb3" stroke="#000000" points="716.3075,-198 571.6925,-198 571.6925,-162 716.3075,-162 716.3075,-198"/>
<text text-anchor="middle" x="644" y="-175.8" font-family="Times,serif" font-size="14.00" fill="#000000">BatchViewComponent</text>
</g>
<!-- BatchViewComponent&#45;&gt;BatchModule -->
<g id="edge7" class="edge">
<title>BatchViewComponent&#45;&gt;BatchModule</title>
<path fill="none" stroke="#000000" d="M645,-198.2228C645,-198.2228 645,-219.7269 645,-219.7269"/>
<polygon fill="#000000" stroke="#000000" points="641.5001,-219.7269 645,-229.7269 648.5001,-219.727 641.5001,-219.7269"/>
</g>
<!-- BatchModalComponent  -->
<g id="node10" class="node">
<title>BatchModalComponent </title>
<polygon fill="#fb8072" stroke="#000000" points="891.0386,-331 736.9614,-331 736.9614,-295 891.0386,-295 891.0386,-331"/>
<text text-anchor="middle" x="814" y="-308.8" font-family="Times,serif" font-size="14.00" fill="#000000">BatchModalComponent </text>
</g>
<!-- BatchModule&#45;&gt;BatchModalComponent  -->
<g id="edge9" class="edge">
<title>BatchModule&#45;&gt;BatchModalComponent </title>
<path fill="none" stroke="#000000" stroke-dasharray="5,2" d="M691.1939,-248C732.3378,-248 786.0769,-248 786.0769,-248 786.0769,-248 786.0769,-284.8939 786.0769,-284.8939"/>
<polygon fill="#000000" stroke="#000000" points="782.577,-284.8938 786.0769,-294.8939 789.577,-284.8939 782.577,-284.8938"/>
</g>
<!-- BatchViewComponent  -->
<g id="node11" class="node">
<title>BatchViewComponent </title>
<polygon fill="#fb8072" stroke="#000000" points="718.8073,-331 571.1927,-331 571.1927,-295 718.8073,-295 718.8073,-331"/>
<text text-anchor="middle" x="645" y="-308.8" font-family="Times,serif" font-size="14.00" fill="#000000">BatchViewComponent </text>
</g>
<!-- BatchModule&#45;&gt;BatchViewComponent  -->
<g id="edge10" class="edge">
<title>BatchModule&#45;&gt;BatchViewComponent </title>
<path fill="none" stroke="#000000" stroke-dasharray="5,2" d="M629.6323,-266.1061C629.6323,-266.1061 629.6323,-284.991 629.6323,-284.991"/>
<polygon fill="#000000" stroke="#000000" points="626.1324,-284.9909 629.6323,-294.991 633.1324,-284.991 626.1324,-284.9909"/>
</g>
<!-- BatchModule&#45;&gt;BatchViewComponent  -->
<g id="edge11" class="edge">
<title>BatchModule&#45;&gt;BatchViewComponent </title>
<path fill="none" stroke="#000000" stroke-dasharray="1,5" d="M660.3677,-266.1061C660.3677,-266.1061 660.3677,-284.991 660.3677,-284.991"/>
<polygon fill="#000000" stroke="#000000" points="656.8678,-284.9909 660.3677,-294.991 663.8678,-284.991 656.8678,-284.9909"/>
</g>
<!-- BatchRouteModule -->
<g id="node13" class="node">
<title>BatchRouteModule</title>
<polygon fill="#8dd3c7" stroke="#000000" points="531.6485,-331 528.6485,-335 507.6485,-335 504.6485,-331 406.3515,-331 406.3515,-295 531.6485,-295 531.6485,-331"/>
<text text-anchor="middle" x="469" y="-308.8" font-family="Times,serif" font-size="14.00" fill="#000000">BatchRouteModule</text>
</g>
<!-- BatchModule&#45;&gt;BatchRouteModule -->
<g id="edge12" class="edge">
<title>BatchModule&#45;&gt;BatchRouteModule</title>
<path fill="none" stroke="#000000" d="M598.7241,-248C576.0343,-248 553.5203,-248 553.5203,-248 553.5203,-248 553.5203,-313 553.5203,-313 553.5203,-313 541.7542,-313 541.7542,-313"/>
<polygon fill="#000000" stroke="#000000" points="541.7543,-309.5001 531.7542,-313 541.7542,-316.5001 541.7543,-309.5001"/>
</g>
<!-- BatchRoutingModule -->
<g id="node12" class="node">
<title>BatchRoutingModule</title>
<polygon fill="#8dd3c7" stroke="#000000" points="530.8244,-266 527.8244,-270 506.8244,-270 503.8244,-266 393.1756,-266 393.1756,-230 530.8244,-230 530.8244,-266"/>
<text text-anchor="middle" x="462" y="-243.8" font-family="Times,serif" font-size="14.00" fill="#000000">BatchRoutingModule</text>
</g>
<!-- BatchRoutingModule&#45;&gt;BatchRouteModule -->
<g id="edge13" class="edge">
<title>BatchRoutingModule&#45;&gt;BatchRouteModule</title>
<path fill="none" stroke="#000000" d="M468.419,-266.1061C468.419,-266.1061 468.419,-284.991 468.419,-284.991"/>
<polygon fill="#000000" stroke="#000000" points="464.9191,-284.9909 468.419,-294.991 471.9191,-284.991 464.9191,-284.9909"/>
</g>
<!-- HomeComponent -->
<g id="node14" class="node">
<title>HomeComponent</title>
<polygon fill="#ffffb3" stroke="#000000" points="2210.5451,-122 2095.4549,-122 2095.4549,-86 2210.5451,-86 2210.5451,-122"/>
<text text-anchor="middle" x="2153" y="-99.8" font-family="Times,serif" font-size="14.00" fill="#000000">HomeComponent</text>
</g>
<!-- HomeModule -->
<g id="node15" class="node">
<title>HomeModule</title>
<polygon fill="#8dd3c7" stroke="#000000" points="2123.7619,-198 2120.7619,-202 2099.7619,-202 2096.7619,-198 2030.2381,-198 2030.2381,-162 2123.7619,-162 2123.7619,-198"/>
<text text-anchor="middle" x="2077" y="-175.8" font-family="Times,serif" font-size="14.00" fill="#000000">HomeModule</text>
</g>
<!-- HomeComponent&#45;&gt;HomeModule -->
<g id="edge14" class="edge">
<title>HomeComponent&#45;&gt;HomeModule</title>
<path fill="none" stroke="#000000" d="M2109.5544,-122.0109C2109.5544,-122.0109 2109.5544,-151.855 2109.5544,-151.855"/>
<polygon fill="#000000" stroke="#000000" points="2106.0544,-151.8549 2109.5544,-161.855 2113.0544,-151.855 2106.0544,-151.8549"/>
</g>
<!-- HomeRoutingModule -->
<g id="node16" class="node">
<title>HomeRoutingModule</title>
<polygon fill="#8dd3c7" stroke="#000000" points="2071.3795,-122 2068.3795,-126 2047.3795,-126 2044.3795,-122 1932.6205,-122 1932.6205,-86 2071.3795,-86 2071.3795,-122"/>
<text text-anchor="middle" x="2002" y="-99.8" font-family="Times,serif" font-size="14.00" fill="#000000">HomeRoutingModule</text>
</g>
<!-- HomeRoutingModule&#45;&gt;HomeModule -->
<g id="edge15" class="edge">
<title>HomeRoutingModule&#45;&gt;HomeModule</title>
<path fill="none" stroke="#000000" d="M2050.7795,-122.0109C2050.7795,-122.0109 2050.7795,-151.855 2050.7795,-151.855"/>
<polygon fill="#000000" stroke="#000000" points="2047.2795,-151.8549 2050.7795,-161.855 2054.2795,-151.855 2047.2795,-151.8549"/>
</g>
<!-- AddTraineeComponent -->
<g id="node17" class="node">
<title>AddTraineeComponent</title>
<polygon fill="#ffffb3" stroke="#000000" points="1893.1867,-122 1744.8133,-122 1744.8133,-86 1893.1867,-86 1893.1867,-122"/>
<text text-anchor="middle" x="1819" y="-99.8" font-family="Times,serif" font-size="14.00" fill="#000000">AddTraineeComponent</text>
</g>
<!-- AddTraineeComponent&#45;&gt;UserModule -->
<g id="edge16" class="edge">
<title>AddTraineeComponent&#45;&gt;UserModule</title>
<path fill="none" stroke="#000000" d="M1819,-122.0091C1819,-138.0494 1819,-159 1819,-159 1819,-159 1009.8234,-159 1009.8234,-159 1009.8234,-159 1009.8234,-159.292 1009.8234,-159.292"/>
<polygon fill="#000000" stroke="#000000" points="1006.3238,-151.9198 1009.8234,-161.92 1013.3238,-151.9201 1006.3238,-151.9198"/>
</g>
<!-- DeleteTraineeComponent -->
<g id="node18" class="node">
<title>DeleteTraineeComponent</title>
<polygon fill="#ffffb3" stroke="#000000" points="1727.1121,-122 1566.8879,-122 1566.8879,-86 1727.1121,-86 1727.1121,-122"/>
<text text-anchor="middle" x="1647" y="-99.8" font-family="Times,serif" font-size="14.00" fill="#000000">DeleteTraineeComponent</text>
</g>
<!-- DeleteTraineeComponent&#45;&gt;UserModule -->
<g id="edge17" class="edge">
<title>DeleteTraineeComponent&#45;&gt;UserModule</title>
<path fill="none" stroke="#000000" d="M1650.3696,-122.1243C1650.3696,-136.7832 1650.3696,-155 1650.3696,-155 1650.3696,-155 1002.6587,-155 1002.6587,-155 1002.6587,-155 1002.6587,-155.6831 1002.6587,-155.6831"/>
<polygon fill="#000000" stroke="#000000" points="999.1589,-151.8313 1002.6587,-161.8314 1006.1589,-151.8314 999.1589,-151.8313"/>
</g>
<!-- SwitchBatchComponent -->
<g id="node19" class="node">
<title>SwitchBatchComponent</title>
<polygon fill="#ffffb3" stroke="#000000" points="1548.3739,-122 1395.6261,-122 1395.6261,-86 1548.3739,-86 1548.3739,-122"/>
<text text-anchor="middle" x="1472" y="-99.8" font-family="Times,serif" font-size="14.00" fill="#000000">SwitchBatchComponent</text>
</g>
<!-- SwitchBatchComponent&#45;&gt;UserModule -->
<g id="edge18" class="edge">
<title>SwitchBatchComponent&#45;&gt;UserModule</title>
<path fill="none" stroke="#000000" d="M1420.2517,-122.1467C1420.2517,-135.7395 1420.2517,-152 1420.2517,-152 1420.2517,-152 995.4941,-152 995.4941,-152 995.4941,-152 995.4941,-152.9793 995.4941,-152.9793"/>
<polygon fill="#000000" stroke="#000000" points="991.9942,-151.793 995.4941,-161.793 998.9942,-151.7931 991.9942,-151.793"/>
</g>
<!-- TraineeTogglePipe -->
<g id="node20" class="node">
<title>TraineeTogglePipe</title>
<polygon fill="#ffffb3" stroke="#000000" points="1377.7935,-122 1254.2065,-122 1254.2065,-86 1377.7935,-86 1377.7935,-122"/>
<text text-anchor="middle" x="1316" y="-99.8" font-family="Times,serif" font-size="14.00" fill="#000000">TraineeTogglePipe</text>
</g>
<!-- TraineeTogglePipe&#45;&gt;UserModule -->
<g id="edge19" class="edge">
<title>TraineeTogglePipe&#45;&gt;UserModule</title>
<path fill="none" stroke="#000000" d="M1281.6126,-122.1505C1281.6126,-134.2708 1281.6126,-148 1281.6126,-148 1281.6126,-148 988.3294,-148 988.3294,-148 988.3294,-148 988.3294,-151.7566 988.3294,-151.7566"/>
<polygon fill="#000000" stroke="#000000" points="984.8295,-151.7566 988.3294,-161.7566 991.8295,-151.7566 984.8295,-151.7566"/>
</g>
<!-- UpdateTraineeComponent -->
<g id="node21" class="node">
<title>UpdateTraineeComponent</title>
<polygon fill="#ffffb3" stroke="#000000" points="1236.0071,-122 1071.9929,-122 1071.9929,-86 1236.0071,-86 1236.0071,-122"/>
<text text-anchor="middle" x="1154" y="-99.8" font-family="Times,serif" font-size="14.00" fill="#000000">UpdateTraineeComponent</text>
</g>
<!-- UpdateTraineeComponent&#45;&gt;UserModule -->
<g id="edge20" class="edge">
<title>UpdateTraineeComponent&#45;&gt;UserModule</title>
<path fill="none" stroke="#000000" d="M1117.5669,-122.1274C1117.5669,-132.7109 1117.5669,-144 1117.5669,-144 1117.5669,-144 981.1647,-144 981.1647,-144 981.1647,-144 981.1647,-151.5782 981.1647,-151.5782"/>
<polygon fill="#000000" stroke="#000000" points="977.6648,-151.5781 981.1647,-161.5782 984.6648,-151.5782 977.6648,-151.5781"/>
</g>
<!-- ViewTraineesComponent -->
<g id="node22" class="node">
<title>ViewTraineesComponent</title>
<polygon fill="#ffffb3" stroke="#000000" points="1053.8431,-122 894.1569,-122 894.1569,-86 1053.8431,-86 1053.8431,-122"/>
<text text-anchor="middle" x="974" y="-99.8" font-family="Times,serif" font-size="14.00" fill="#000000">ViewTraineesComponent</text>
</g>
<!-- ViewTraineesComponent&#45;&gt;UserModule -->
<g id="edge21" class="edge">
<title>ViewTraineesComponent&#45;&gt;UserModule</title>
<path fill="none" stroke="#000000" d="M974,-122.0109C974,-122.0109 974,-151.855 974,-151.855"/>
<polygon fill="#000000" stroke="#000000" points="970.5001,-151.8549 974,-161.855 977.5001,-151.855 970.5001,-151.8549"/>
</g>
</g>
</svg>
