<?xml version="1.0" encoding="UTF-8" standalone="no"?>
<!DOCTYPE svg PUBLIC "-//W3C//DTD SVG 1.1//EN"
 "http://www.w3.org/Graphics/SVG/1.1/DTD/svg11.dtd">
<!-- Generated by graphviz version 2.40.1 (20161225.0304)
 -->
<!-- Title: dependencies Pages: 1 -->
<svg width="2303pt" height="290pt"
 viewBox="0.00 0.00 2303.00 290.00" xmlns="http://www.w3.org/2000/svg" xmlns:xlink="http://www.w3.org/1999/xlink">
<g id="graph0" class="graph" transform="scale(1 1) rotate(0) translate(4 286)">
<title>dependencies</title>
<polygon fill="#ffffff" stroke="transparent" points="-4,4 -4,-286 2299,-286 2299,4 -4,4"/>
<text text-anchor="start" x="1126.5091" y="-42.4" font-family="sans-serif" font-weight="bold" font-size="14.00" fill="#000000">Legend</text>
<polygon fill="#ffffb3" stroke="transparent" points="913.5,-10 913.5,-30 933.5,-30 933.5,-10 913.5,-10"/>
<text text-anchor="start" x="937.129" y="-15.4" font-family="sans-serif" font-size="14.00" fill="#000000"> &#160;Declarations</text>
<polygon fill="#8dd3c7" stroke="transparent" points="1026.5,-10 1026.5,-30 1046.5,-30 1046.5,-10 1026.5,-10"/>
<text text-anchor="start" x="1050.2251" y="-15.4" font-family="sans-serif" font-size="14.00" fill="#000000"> &#160;Module</text>
<polygon fill="#80b1d3" stroke="transparent" points="1112.5,-10 1112.5,-30 1132.5,-30 1132.5,-10 1112.5,-10"/>
<text text-anchor="start" x="1136.2812" y="-15.4" font-family="sans-serif" font-size="14.00" fill="#000000"> &#160;Bootstrap</text>
<polygon fill="#fdb462" stroke="transparent" points="1209.5,-10 1209.5,-30 1229.5,-30 1229.5,-10 1209.5,-10"/>
<text text-anchor="start" x="1233.1732" y="-15.4" font-family="sans-serif" font-size="14.00" fill="#000000"> &#160;Providers</text>
<polygon fill="#fb8072" stroke="transparent" points="1305.5,-10 1305.5,-30 1325.5,-30 1325.5,-10 1305.5,-10"/>
<text text-anchor="start" x="1329.2258" y="-15.4" font-family="sans-serif" font-size="14.00" fill="#000000"> &#160;Exports</text>
<g id="clust1" class="cluster">
<title>cluster_AppModule</title>
<polygon fill="none" stroke="#000000" stroke-dasharray="1,5" points="8,-70 8,-274 961,-274 961,-70 8,-70"/>
</g>
<g id="clust2" class="cluster">
<title>cluster_AppModule_declarations</title>
<polygon fill="none" stroke="#000000" points="16,-78 16,-130 691,-130 691,-78 16,-78"/>
</g>
<g id="clust8" class="cluster">
<title>cluster_AppModule_imports</title>
<polygon fill="none" stroke="#000000" points="699,-78 699,-130 953,-130 953,-78 699,-78"/>
</g>
<g id="clust10" class="cluster">
<title>cluster_AppModule_bootstrap</title>
<polygon fill="none" stroke="#000000" points="422,-214 422,-266 546,-266 546,-214 422,-214"/>
</g>
<g id="clust18" class="cluster">
<title>cluster_BatchModule</title>
<polygon fill="none" stroke="#000000" stroke-dasharray="1,5" points="1274,-138 1274,-206 2287,-206 2287,-138 1274,-138"/>
</g>
<g id="clust19" class="cluster">
<title>cluster_BatchModule_declarations</title>
<polygon fill="none" stroke="#000000" points="1790,-146 1790,-198 2279,-198 2279,-146 1790,-146"/>
</g>
<g id="clust24" class="cluster">
<title>cluster_BatchModule_exports</title>
<polygon fill="none" stroke="#000000" points="1282,-146 1282,-198 1782,-198 1782,-146 1282,-146"/>
</g>
<g id="clust27" class="cluster">
<title>cluster_Team1Module</title>
<polygon fill="none" stroke="#000000" stroke-dasharray="1,5" points="969,-146 969,-274 1266,-274 1266,-146 969,-146"/>
</g>
<g id="clust32" class="cluster">
<title>cluster_Team1Module_exports</title>
<polygon fill="none" stroke="#000000" points="977,-214 977,-266 1258,-266 1258,-214 977,-214"/>
</g>
<!-- AppComponent -->
<g id="node1" class="node">
<title>AppComponent</title>
<polygon fill="#ffffb3" stroke="#000000" points="406.9399,-122 301.0601,-122 301.0601,-86 406.9399,-86 406.9399,-122"/>
<text text-anchor="middle" x="354" y="-99.8" font-family="Times,serif" font-size="14.00" fill="#000000">AppComponent</text>
</g>
<!-- AppModule -->
<g id="node6" class="node">
<title>AppModule</title>
<polygon fill="#8dd3c7" stroke="#000000" points="525.6571,-190 522.6571,-194 501.6571,-194 498.6571,-190 442.3429,-190 442.3429,-154 525.6571,-154 525.6571,-190"/>
<text text-anchor="middle" x="484" y="-167.8" font-family="Times,serif" font-size="14.00" fill="#000000">AppModule</text>
</g>
<!-- AppComponent&#45;&gt;AppModule -->
<g id="edge1" class="edge">
<title>AppComponent&#45;&gt;AppModule</title>
<path fill="none" stroke="#000000" d="M354,-122.0225C354,-139.3734 354,-163 354,-163 354,-163 432.1516,-163 432.1516,-163"/>
<polygon fill="#000000" stroke="#000000" points="432.1516,-166.5001 442.1516,-163 432.1516,-159.5001 432.1516,-166.5001"/>
</g>
<!-- FooterComponent -->
<g id="node2" class="node">
<title>FooterComponent</title>
<polygon fill="#ffffb3" stroke="#000000" points="542.8809,-122 425.1191,-122 425.1191,-86 542.8809,-86 542.8809,-122"/>
<text text-anchor="middle" x="484" y="-99.8" font-family="Times,serif" font-size="14.00" fill="#000000">FooterComponent</text>
</g>
<!-- FooterComponent&#45;&gt;AppModule -->
<g id="edge2" class="edge">
<title>FooterComponent&#45;&gt;AppModule</title>
<path fill="none" stroke="#000000" d="M484,-122.2228C484,-122.2228 484,-143.7269 484,-143.7269"/>
<polygon fill="#000000" stroke="#000000" points="480.5001,-143.7269 484,-153.7269 487.5001,-143.727 480.5001,-143.7269"/>
</g>
<!-- Team1Module -->
<g id="node16" class="node">
<title>Team1Module</title>
<polygon fill="#8dd3c7" stroke="#000000" points="1075.4231,-190 1072.4231,-194 1051.4231,-194 1048.4231,-190 976.5769,-190 976.5769,-154 1075.4231,-154 1075.4231,-190"/>
<text text-anchor="middle" x="1026" y="-167.8" font-family="Times,serif" font-size="14.00" fill="#000000">Team1Module</text>
</g>
<!-- FooterComponent&#45;&gt;Team1Module -->
<g id="edge15" class="edge">
<title>FooterComponent&#45;&gt;Team1Module</title>
<path fill="none" stroke="#000000" d="M532.1489,-122.3802C532.1489,-146.2785 532.1489,-185 532.1489,-185 532.1489,-185 966.3865,-185 966.3865,-185"/>
<polygon fill="#000000" stroke="#000000" points="966.3866,-188.5001 976.3865,-185 966.3865,-181.5001 966.3866,-188.5001"/>
</g>
<!-- HeaderComponent -->
<g id="node3" class="node">
<title>HeaderComponent</title>
<polygon fill="#ffffb3" stroke="#000000" points="682.7437,-122 561.2563,-122 561.2563,-86 682.7437,-86 682.7437,-122"/>
<text text-anchor="middle" x="622" y="-99.8" font-family="Times,serif" font-size="14.00" fill="#000000">HeaderComponent</text>
</g>
<!-- HeaderComponent&#45;&gt;AppModule -->
<g id="edge3" class="edge">
<title>HeaderComponent&#45;&gt;AppModule</title>
<path fill="none" stroke="#000000" d="M601.7094,-122.0348C601.7094,-141.5762 601.7094,-170 601.7094,-170 601.7094,-170 535.8314,-170 535.8314,-170"/>
<polygon fill="#000000" stroke="#000000" points="535.8314,-166.5001 525.8314,-170 535.8313,-173.5001 535.8314,-166.5001"/>
</g>
<!-- HeaderComponent&#45;&gt;Team1Module -->
<g id="edge16" class="edge">
<title>HeaderComponent&#45;&gt;Team1Module</title>
<path fill="none" stroke="#000000" d="M642.2906,-122.302C642.2906,-140.2699 642.2906,-165 642.2906,-165 642.2906,-165 966.6222,-165 966.6222,-165"/>
<polygon fill="#000000" stroke="#000000" points="966.6223,-168.5001 976.6222,-165 966.6222,-161.5001 966.6223,-168.5001"/>
</g>
<!-- HomeComponent -->
<g id="node4" class="node">
<title>HomeComponent</title>
<polygon fill="#ffffb3" stroke="#000000" points="283.5451,-122 168.4549,-122 168.4549,-86 283.5451,-86 283.5451,-122"/>
<text text-anchor="middle" x="226" y="-99.8" font-family="Times,serif" font-size="14.00" fill="#000000">HomeComponent</text>
</g>
<!-- HomeComponent&#45;&gt;AppModule -->
<g id="edge4" class="edge">
<title>HomeComponent&#45;&gt;AppModule</title>
<path fill="none" stroke="#000000" d="M226,-122.2228C226,-142.3652 226,-172 226,-172 226,-172 432.2611,-172 432.2611,-172"/>
<polygon fill="#000000" stroke="#000000" points="432.2611,-175.5001 442.2611,-172 432.2611,-168.5001 432.2611,-175.5001"/>
</g>
<!-- ManageComponent -->
<g id="node5" class="node">
<title>ManageComponent</title>
<polygon fill="#ffffb3" stroke="#000000" points="150.4215,-122 23.5785,-122 23.5785,-86 150.4215,-86 150.4215,-122"/>
<text text-anchor="middle" x="87" y="-99.8" font-family="Times,serif" font-size="14.00" fill="#000000">ManageComponent</text>
</g>
<!-- ManageComponent&#45;&gt;AppModule -->
<g id="edge5" class="edge">
<title>ManageComponent&#45;&gt;AppModule</title>
<path fill="none" stroke="#000000" d="M87,-122.2479C87,-145.0179 87,-181 87,-181 87,-181 432.2644,-181 432.2644,-181"/>
<polygon fill="#000000" stroke="#000000" points="432.2644,-184.5001 442.2644,-181 432.2644,-177.5001 432.2644,-184.5001"/>
</g>
<!-- AppComponent  -->
<g id="node9" class="node">
<title>AppComponent </title>
<polygon fill="#80b1d3" stroke="#000000" points="538.439,-258 429.561,-258 429.561,-222 538.439,-222 538.439,-258"/>
<text text-anchor="middle" x="484" y="-235.8" font-family="Times,serif" font-size="14.00" fill="#000000">AppComponent </text>
</g>
<!-- AppModule&#45;&gt;AppComponent  -->
<g id="edge8" class="edge">
<title>AppModule&#45;&gt;AppComponent </title>
<path fill="none" stroke="#000000" stroke-dasharray="1,5" d="M484,-190.2228C484,-190.2228 484,-211.7269 484,-211.7269"/>
<polygon fill="#000000" stroke="#000000" points="480.5001,-211.7269 484,-221.7269 487.5001,-211.727 480.5001,-211.7269"/>
</g>
<!-- AppRoutingModule -->
<g id="node7" class="node">
<title>AppRoutingModule</title>
<polygon fill="#8dd3c7" stroke="#000000" points="835.2744,-122 832.2744,-126 811.2744,-126 808.2744,-122 706.7256,-122 706.7256,-86 835.2744,-86 835.2744,-122"/>
<text text-anchor="middle" x="771" y="-99.8" font-family="Times,serif" font-size="14.00" fill="#000000">AppRoutingModule</text>
</g>
<!-- AppRoutingModule&#45;&gt;AppModule -->
<g id="edge6" class="edge">
<title>AppRoutingModule&#45;&gt;AppModule</title>
<path fill="none" stroke="#000000" d="M749.5376,-122.2843C749.5376,-143.3211 749.5376,-175 749.5376,-175 749.5376,-175 535.7824,-175 535.7824,-175"/>
<polygon fill="#000000" stroke="#000000" points="535.7824,-171.5001 525.7824,-175 535.7823,-178.5001 535.7824,-171.5001"/>
</g>
<!-- AppRoutingModule&#45;&gt;Team1Module -->
<g id="edge17" class="edge">
<title>AppRoutingModule&#45;&gt;Team1Module</title>
<path fill="none" stroke="#000000" d="M792.4624,-122.027C792.4624,-138.3976 792.4624,-160 792.4624,-160 792.4624,-160 966.758,-160 966.758,-160"/>
<polygon fill="#000000" stroke="#000000" points="966.7581,-163.5001 976.758,-160 966.758,-156.5001 966.7581,-163.5001"/>
</g>
<!-- BatchModule -->
<g id="node8" class="node">
<title>BatchModule</title>
<polygon fill="#8dd3c7" stroke="#000000" points="945.2064,-122 942.2064,-126 921.2064,-126 918.2064,-122 852.7936,-122 852.7936,-86 945.2064,-86 945.2064,-122"/>
<text text-anchor="middle" x="899" y="-99.8" font-family="Times,serif" font-size="14.00" fill="#000000">BatchModule</text>
</g>
<!-- BatchModule&#45;&gt;AppModule -->
<g id="edge7" class="edge">
<title>BatchModule&#45;&gt;AppModule</title>
<path fill="none" stroke="#000000" d="M899,-122.0109C899,-144.4852 899,-180 899,-180 899,-180 535.6919,-180 535.6919,-180"/>
<polygon fill="#000000" stroke="#000000" points="535.6919,-176.5001 525.6919,-180 535.6919,-183.5001 535.6919,-176.5001"/>
</g>
<!-- BatchModalComponent  -->
<g id="node13" class="node">
<title>BatchModalComponent </title>
<polygon fill="#fb8072" stroke="#000000" points="1610.0386,-190 1455.9614,-190 1455.9614,-154 1610.0386,-154 1610.0386,-190"/>
<text text-anchor="middle" x="1533" y="-167.8" font-family="Times,serif" font-size="14.00" fill="#000000">BatchModalComponent </text>
</g>
<!-- BatchModule&#45;&gt;BatchModalComponent  -->
<g id="edge12" class="edge">
<title>BatchModule&#45;&gt;BatchModalComponent </title>
<path fill="none" stroke="#000000" stroke-dasharray="5,2" d="M945.1064,-112C1091.0007,-112 1533,-112 1533,-112 1533,-112 1533,-143.998 1533,-143.998"/>
<polygon fill="#000000" stroke="#000000" points="1529.5001,-143.998 1533,-153.998 1536.5001,-143.9981 1529.5001,-143.998"/>
</g>
<!-- BatchViewComponent  -->
<g id="node14" class="node">
<title>BatchViewComponent </title>
<polygon fill="#fb8072" stroke="#000000" points="1437.8073,-190 1290.1927,-190 1290.1927,-154 1437.8073,-154 1437.8073,-190"/>
<text text-anchor="middle" x="1364" y="-167.8" font-family="Times,serif" font-size="14.00" fill="#000000">BatchViewComponent </text>
</g>
<!-- BatchModule&#45;&gt;BatchViewComponent  -->
<g id="edge13" class="edge">
<title>BatchModule&#45;&gt;BatchViewComponent </title>
<path fill="none" stroke="#000000" stroke-dasharray="5,2" d="M945.286,-117C1062.9023,-117 1364,-117 1364,-117 1364,-117 1364,-143.9909 1364,-143.9909"/>
<polygon fill="#000000" stroke="#000000" points="1360.5001,-143.9909 1364,-153.9909 1367.5001,-143.991 1360.5001,-143.9909"/>
</g>
<!-- SelectYearComponent  -->
<g id="node15" class="node">
<title>SelectYearComponent </title>
<polygon fill="#fb8072" stroke="#000000" points="1774.2366,-190 1627.7634,-190 1627.7634,-154 1774.2366,-154 1774.2366,-190"/>
<text text-anchor="middle" x="1701" y="-167.8" font-family="Times,serif" font-size="14.00" fill="#000000">SelectYearComponent </text>
</g>
<!-- BatchModule&#45;&gt;SelectYearComponent  -->
<g id="edge14" class="edge">
<title>BatchModule&#45;&gt;SelectYearComponent </title>
<path fill="none" stroke="#000000" stroke-dasharray="5,2" d="M945.2921,-107C1116.0832,-107 1701,-107 1701,-107 1701,-107 1701,-143.8939 1701,-143.8939"/>
<polygon fill="#000000" stroke="#000000" points="1697.5001,-143.8938 1701,-153.8939 1704.5001,-143.8939 1697.5001,-143.8938"/>
</g>
<!-- BatchModalComponent -->
<g id="node10" class="node">
<title>BatchModalComponent</title>
<polygon fill="#ffffb3" stroke="#000000" points="2110.0393,-190 1959.9607,-190 1959.9607,-154 2110.0393,-154 2110.0393,-190"/>
<text text-anchor="middle" x="2035" y="-167.8" font-family="Times,serif" font-size="14.00" fill="#000000">BatchModalComponent</text>
</g>
<!-- BatchModalComponent&#45;&gt;BatchModule -->
<g id="edge9" class="edge">
<title>BatchModalComponent&#45;&gt;BatchModule</title>
<path fill="none" stroke="#000000" d="M2035,-153.8446C2035,-131.6481 2035,-97 2035,-97 2035,-97 955.2944,-97 955.2944,-97"/>
<polygon fill="#000000" stroke="#000000" points="955.2944,-93.5001 945.2944,-97 955.2943,-100.5001 955.2944,-93.5001"/>
</g>
<!-- BatchViewComponent -->
<g id="node11" class="node">
<title>BatchViewComponent</title>
<polygon fill="#ffffb3" stroke="#000000" points="1942.3075,-190 1797.6925,-190 1797.6925,-154 1942.3075,-154 1942.3075,-190"/>
<text text-anchor="middle" x="1870" y="-167.8" font-family="Times,serif" font-size="14.00" fill="#000000">BatchViewComponent</text>
</g>
<!-- BatchViewComponent&#45;&gt;BatchModule -->
<g id="edge10" class="edge">
<title>BatchViewComponent&#45;&gt;BatchModule</title>
<path fill="none" stroke="#000000" d="M1870,-153.9733C1870,-133.2328 1870,-102 1870,-102 1870,-102 955.1801,-102 955.1801,-102"/>
<polygon fill="#000000" stroke="#000000" points="955.1802,-98.5001 945.1801,-102 955.1801,-105.5001 955.1802,-98.5001"/>
</g>
<!-- SelectYearComponent -->
<g id="node12" class="node">
<title>SelectYearComponent</title>
<polygon fill="#ffffb3" stroke="#000000" points="2271.2366,-190 2128.7634,-190 2128.7634,-154 2271.2366,-154 2271.2366,-190"/>
<text text-anchor="middle" x="2200" y="-167.8" font-family="Times,serif" font-size="14.00" fill="#000000">SelectYearComponent</text>
</g>
<!-- SelectYearComponent&#45;&gt;BatchModule -->
<g id="edge11" class="edge">
<title>SelectYearComponent&#45;&gt;BatchModule</title>
<path fill="none" stroke="#000000" d="M2200,-153.8468C2200,-130.2434 2200,-92 2200,-92 2200,-92 955.3033,-92 955.3033,-92"/>
<polygon fill="#000000" stroke="#000000" points="955.3033,-88.5001 945.3033,-92 955.3032,-95.5001 955.3033,-88.5001"/>
</g>
<!-- FooterComponent  -->
<g id="node17" class="node">
<title>FooterComponent </title>
<polygon fill="#fb8072" stroke="#000000" points="1249.8814,-258 1128.1186,-258 1128.1186,-222 1249.8814,-222 1249.8814,-258"/>
<text text-anchor="middle" x="1189" y="-235.8" font-family="Times,serif" font-size="14.00" fill="#000000">FooterComponent </text>
</g>
<!-- Team1Module&#45;&gt;FooterComponent  -->
<g id="edge18" class="edge">
<title>Team1Module&#45;&gt;FooterComponent </title>
<path fill="none" stroke="#000000" stroke-dasharray="5,2" d="M1075.3477,-172C1123.3228,-172 1189,-172 1189,-172 1189,-172 1189,-211.7772 1189,-211.7772"/>
<polygon fill="#000000" stroke="#000000" points="1185.5001,-211.7772 1189,-221.7772 1192.5001,-211.7773 1185.5001,-211.7772"/>
</g>
<!-- HeaderComponent  -->
<g id="node18" class="node">
<title>HeaderComponent </title>
<polygon fill="#fb8072" stroke="#000000" points="1110.7436,-258 985.2564,-258 985.2564,-222 1110.7436,-222 1110.7436,-258"/>
<text text-anchor="middle" x="1048" y="-235.8" font-family="Times,serif" font-size="14.00" fill="#000000">HeaderComponent </text>
</g>
<!-- Team1Module&#45;&gt;HeaderComponent  -->
<g id="edge19" class="edge">
<title>Team1Module&#45;&gt;HeaderComponent </title>
<path fill="none" stroke="#000000" stroke-dasharray="5,2" d="M1030.2947,-190.2228C1030.2947,-190.2228 1030.2947,-211.7269 1030.2947,-211.7269"/>
<polygon fill="#000000" stroke="#000000" points="1026.7948,-211.7269 1030.2947,-221.7269 1033.7948,-211.727 1026.7948,-211.7269"/>
</g>
</g>
</svg>
