<?xml version="1.0" encoding="UTF-8" standalone="no"?>
<!DOCTYPE svg PUBLIC "-//W3C//DTD SVG 1.1//EN"
 "http://www.w3.org/Graphics/SVG/1.1/DTD/svg11.dtd">
<!-- Generated by graphviz version 2.40.1 (20161225.0304)
 -->
<!-- Title: dependencies Pages: 1 -->
<svg width="535pt" height="287pt"
 viewBox="0.00 0.00 535.00 287.00" xmlns="http://www.w3.org/2000/svg" xmlns:xlink="http://www.w3.org/1999/xlink">
<g id="graph0" class="graph" transform="scale(1 1) rotate(0) translate(4 283)">
<title>dependencies</title>
<polygon fill="#ffffff" stroke="transparent" points="-4,4 -4,-283 531,-283 531,4 -4,4"/>
<text text-anchor="start" x="242.5091" y="-42.4" font-family="sans-serif" font-weight="bold" font-size="14.00" fill="#000000">Legend</text>
<polygon fill="#ffffb3" stroke="transparent" points="29.5,-10 29.5,-30 49.5,-30 49.5,-10 29.5,-10"/>
<text text-anchor="start" x="53.129" y="-15.4" font-family="sans-serif" font-size="14.00" fill="#000000"> &#160;Declarations</text>
<polygon fill="#8dd3c7" stroke="transparent" points="142.5,-10 142.5,-30 162.5,-30 162.5,-10 142.5,-10"/>
<text text-anchor="start" x="166.2251" y="-15.4" font-family="sans-serif" font-size="14.00" fill="#000000"> &#160;Module</text>
<polygon fill="#80b1d3" stroke="transparent" points="228.5,-10 228.5,-30 248.5,-30 248.5,-10 228.5,-10"/>
<text text-anchor="start" x="252.2812" y="-15.4" font-family="sans-serif" font-size="14.00" fill="#000000"> &#160;Bootstrap</text>
<polygon fill="#fdb462" stroke="transparent" points="325.5,-10 325.5,-30 345.5,-30 345.5,-10 325.5,-10"/>
<text text-anchor="start" x="349.1732" y="-15.4" font-family="sans-serif" font-size="14.00" fill="#000000"> &#160;Providers</text>
<polygon fill="#fb8072" stroke="transparent" points="421.5,-10 421.5,-30 441.5,-30 441.5,-10 421.5,-10"/>
<text text-anchor="start" x="445.2258" y="-15.4" font-family="sans-serif" font-size="14.00" fill="#000000"> &#160;Exports</text>
<g id="clust1" class="cluster">
<title>cluster_AppModule</title>
<polygon fill="none" stroke="#000000" stroke-dasharray="1,5" points="225,-146 225,-271 343,-271 343,-146 225,-146"/>
</g>
<g id="clust3" class="cluster">
<title>cluster_AppModule_imports</title>
<polygon fill="none" stroke="#000000" points="233,-154 233,-206 335,-206 335,-154 233,-154"/>
</g>
<g id="clust7" class="cluster">
<title>cluster_UserModule</title>
<polygon fill="none" stroke="#000000" stroke-dasharray="1,5" points="8,-70 8,-138 519,-138 519,-70 8,-70"/>
</g>
<g id="clust8" class="cluster">
<title>cluster_UserModule_declarations</title>
<polygon fill="none" stroke="#000000" points="198,-78 198,-130 511,-130 511,-78 198,-78"/>
</g>
<g id="clust12" class="cluster">
<title>cluster_UserModule_exports</title>
<polygon fill="none" stroke="#000000" points="16,-78 16,-130 190,-130 190,-78 16,-78"/>
</g>
<!-- UserModule -->
<g id="node1" class="node">
<title>UserModule</title>
<polygon fill="#8dd3c7" stroke="#000000" points="326.9762,-198 323.9762,-202 302.9762,-202 299.9762,-198 241.0238,-198 241.0238,-162 326.9762,-162 326.9762,-198"/>
<text text-anchor="middle" x="284" y="-175.8" font-family="Times,serif" font-size="14.00" fill="#000000">UserModule</text>
</g>
<!-- AppModule -->
<g id="node2" class="node">
<title>AppModule</title>
<polygon fill="#8dd3c7" stroke="#000000" points="325.6571,-263 322.6571,-267 301.6571,-267 298.6571,-263 242.3429,-263 242.3429,-227 325.6571,-227 325.6571,-263"/>
<text text-anchor="middle" x="284" y="-240.8" font-family="Times,serif" font-size="14.00" fill="#000000">AppModule</text>
</g>
<!-- UserModule&#45;&gt;AppModule -->
<g id="edge1" class="edge">
<title>UserModule&#45;&gt;AppModule</title>
<path fill="none" stroke="#000000" d="M284,-198.1061C284,-198.1061 284,-216.991 284,-216.991"/>
<polygon fill="#000000" stroke="#000000" points="280.5001,-216.9909 284,-226.991 287.5001,-216.991 280.5001,-216.9909"/>
</g>
<!-- ViewtraineesComponent  -->
<g id="node5" class="node">
<title>ViewtraineesComponent </title>
<polygon fill="#fb8072" stroke="#000000" points="182.1813,-122 23.8187,-122 23.8187,-86 182.1813,-86 182.1813,-122"/>
<text text-anchor="middle" x="103" y="-99.8" font-family="Times,serif" font-size="14.00" fill="#000000">ViewtraineesComponent </text>
</g>
<!-- UserModule&#45;&gt;ViewtraineesComponent  -->
<g id="edge4" class="edge">
<title>UserModule&#45;&gt;ViewtraineesComponent </title>
<path fill="none" stroke="#000000" stroke-dasharray="5,2" d="M240.646,-180C187.0987,-180 103,-180 103,-180 103,-180 103,-132.0109 103,-132.0109"/>
<polygon fill="#000000" stroke="#000000" points="106.5001,-132.0109 103,-122.0109 99.5001,-132.011 106.5001,-132.0109"/>
</g>
<!-- TraineeTogglePipe -->
<g id="node3" class="node">
<title>TraineeTogglePipe</title>
<polygon fill="#ffffb3" stroke="#000000" points="502.7935,-122 379.2065,-122 379.2065,-86 502.7935,-86 502.7935,-122"/>
<text text-anchor="middle" x="441" y="-99.8" font-family="Times,serif" font-size="14.00" fill="#000000">TraineeTogglePipe</text>
</g>
<!-- TraineeTogglePipe&#45;&gt;UserModule -->
<g id="edge2" class="edge">
<title>TraineeTogglePipe&#45;&gt;UserModule</title>
<path fill="none" stroke="#000000" d="M441,-122.0109C441,-144.4852 441,-180 441,-180 441,-180 337.3165,-180 337.3165,-180"/>
<polygon fill="#000000" stroke="#000000" points="337.3166,-176.5001 327.3165,-180 337.3165,-183.5001 337.3166,-176.5001"/>
</g>
<!-- ViewtraineesComponent -->
<g id="node4" class="node">
<title>ViewtraineesComponent</title>
<polygon fill="#ffffb3" stroke="#000000" points="361.6811,-122 206.3189,-122 206.3189,-86 361.6811,-86 361.6811,-122"/>
<text text-anchor="middle" x="284" y="-99.8" font-family="Times,serif" font-size="14.00" fill="#000000">ViewtraineesComponent</text>
</g>
<!-- ViewtraineesComponent&#45;&gt;UserModule -->
<g id="edge3" class="edge">
<title>ViewtraineesComponent&#45;&gt;UserModule</title>
<path fill="none" stroke="#000000" d="M284,-122.0109C284,-122.0109 284,-151.855 284,-151.855"/>
<polygon fill="#000000" stroke="#000000" points="280.5001,-151.8549 284,-161.855 287.5001,-151.855 280.5001,-151.8549"/>
</g>
</g>
</svg>
