<?xml version="1.0" encoding="UTF-8" standalone="no"?>
<!DOCTYPE svg PUBLIC "-//W3C//DTD SVG 1.1//EN"
 "http://www.w3.org/Graphics/SVG/1.1/DTD/svg11.dtd">
<!-- Generated by graphviz version 2.40.1 (20161225.0304)
 -->
<!-- Title: dependencies Pages: 1 -->
<svg width="2196pt" height="431pt"
 viewBox="0.00 0.00 2196.00 431.00" xmlns="http://www.w3.org/2000/svg" xmlns:xlink="http://www.w3.org/1999/xlink">
<g id="graph0" class="graph" transform="scale(1 1) rotate(0) translate(4 427)">
<title>dependencies</title>
<polygon fill="#ffffff" stroke="transparent" points="-4,4 -4,-427 2192,-427 2192,4 -4,4"/>
<text text-anchor="start" x="1073.0091" y="-42.4" font-family="sans-serif" font-weight="bold" font-size="14.00" fill="#000000">Legend</text>
<polygon fill="#ffffb3" stroke="transparent" points="860,-10 860,-30 880,-30 880,-10 860,-10"/>
<text text-anchor="start" x="883.629" y="-15.4" font-family="sans-serif" font-size="14.00" fill="#000000"> &#160;Declarations</text>
<polygon fill="#8dd3c7" stroke="transparent" points="973,-10 973,-30 993,-30 993,-10 973,-10"/>
<text text-anchor="start" x="996.7251" y="-15.4" font-family="sans-serif" font-size="14.00" fill="#000000"> &#160;Module</text>
<polygon fill="#80b1d3" stroke="transparent" points="1059,-10 1059,-30 1079,-30 1079,-10 1059,-10"/>
<text text-anchor="start" x="1082.7812" y="-15.4" font-family="sans-serif" font-size="14.00" fill="#000000"> &#160;Bootstrap</text>
<polygon fill="#fdb462" stroke="transparent" points="1156,-10 1156,-30 1176,-30 1176,-10 1156,-10"/>
<text text-anchor="start" x="1179.6732" y="-15.4" font-family="sans-serif" font-size="14.00" fill="#000000"> &#160;Providers</text>
<polygon fill="#fb8072" stroke="transparent" points="1252,-10 1252,-30 1272,-30 1272,-10 1252,-10"/>
<text text-anchor="start" x="1275.7258" y="-15.4" font-family="sans-serif" font-size="14.00" fill="#000000"> &#160;Exports</text>
<g id="clust1" class="cluster">
<title>cluster_AppModule</title>
<polygon fill="none" stroke="#000000" stroke-dasharray="1,5" points="323,-146 323,-339 1179,-339 1179,-146 323,-146"/>
</g>
<g id="clust2" class="cluster">
<title>cluster_AppModule_declarations</title>
<polygon fill="none" stroke="#000000" points="363,-219 363,-271 915,-271 915,-219 363,-219"/>
</g>
<g id="clust7" class="cluster">
<title>cluster_AppModule_imports</title>
<polygon fill="none" stroke="#000000" points="923,-154 923,-271 1171,-271 1171,-154 923,-154"/>
</g>
<g id="clust17" class="cluster">
<title>cluster_BatchModule</title>
<polygon fill="none" stroke="#000000" stroke-dasharray="1,5" points="1187,-279 1187,-347 1875,-347 1875,-279 1187,-279"/>
</g>
<g id="clust18" class="cluster">
<title>cluster_BatchModule_declarations</title>
<polygon fill="none" stroke="#000000" points="1539,-287 1539,-339 1867,-339 1867,-287 1539,-287"/>
</g>
<g id="clust22" class="cluster">
<title>cluster_BatchModule_exports</title>
<polygon fill="none" stroke="#000000" points="1195,-287 1195,-339 1531,-339 1531,-287 1195,-287"/>
</g>
<g id="clust25" class="cluster">
<title>cluster_Team1Module</title>
<polygon fill="none" stroke="#000000" stroke-dasharray="1,5" points="1883,-287 1883,-415 2180,-415 2180,-287 1883,-287"/>
</g>
<g id="clust30" class="cluster">
<title>cluster_Team1Module_exports</title>
<polygon fill="none" stroke="#000000" points="1891,-355 1891,-407 2172,-407 2172,-355 1891,-355"/>
</g>
<g id="clust33" class="cluster">
<title>cluster_UserModule</title>
<polygon fill="none" stroke="#000000" stroke-dasharray="1,5" points="8,-70 8,-138 1908,-138 1908,-70 8,-70"/>
</g>
<g id="clust34" class="cluster">
<title>cluster_UserModule_declarations</title>
<polygon fill="none" stroke="#000000" points="886,-78 886,-130 1900,-130 1900,-78 886,-78"/>
</g>
<g id="clust42" class="cluster">
<title>cluster_UserModule_exports</title>
<polygon fill="none" stroke="#000000" points="16,-78 16,-130 878,-130 878,-78 16,-78"/>
</g>
<!-- FooterComponent -->
<g id="node1" class="node">
<title>FooterComponent</title>
<polygon fill="#ffffb3" stroke="#000000" points="906.8809,-263 789.1191,-263 789.1191,-227 906.8809,-227 906.8809,-263"/>
<text text-anchor="middle" x="848" y="-240.8" font-family="Times,serif" font-size="14.00" fill="#000000">FooterComponent</text>
</g>
<!-- AppModule -->
<g id="node5" class="node">
<title>AppModule</title>
<polygon fill="#8dd3c7" stroke="#000000" points="614.6571,-331 611.6571,-335 590.6571,-335 587.6571,-331 531.3429,-331 531.3429,-295 614.6571,-295 614.6571,-331"/>
<text text-anchor="middle" x="573" y="-308.8" font-family="Times,serif" font-size="14.00" fill="#000000">AppModule</text>
</g>
<!-- FooterComponent&#45;&gt;AppModule -->
<g id="edge1" class="edge">
<title>FooterComponent&#45;&gt;AppModule</title>
<path fill="none" stroke="#000000" d="M867.6468,-263.2667C867.6468,-281.5552 867.6468,-307 867.6468,-307 867.6468,-307 624.9028,-307 624.9028,-307"/>
<polygon fill="#000000" stroke="#000000" points="624.9028,-303.5001 614.9028,-307 624.9028,-310.5001 624.9028,-303.5001"/>
</g>
<!-- Team1Module -->
<g id="node13" class="node">
<title>Team1Module</title>
<polygon fill="#8dd3c7" stroke="#000000" points="1989.4231,-331 1986.4231,-335 1965.4231,-335 1962.4231,-331 1890.5769,-331 1890.5769,-295 1989.4231,-295 1989.4231,-331"/>
<text text-anchor="middle" x="1940" y="-308.8" font-family="Times,serif" font-size="14.00" fill="#000000">Team1Module</text>
</g>
<!-- FooterComponent&#45;&gt;Team1Module -->
<g id="edge13" class="edge">
<title>FooterComponent&#45;&gt;Team1Module</title>
<path fill="none" stroke="#000000" d="M828.3532,-263.2015C828.3532,-269.028 828.3532,-274 828.3532,-274 828.3532,-274 1940.824,-274 1940.824,-274 1940.824,-274 1940.824,-284.8701 1940.824,-284.8701"/>
<polygon fill="#000000" stroke="#000000" points="1937.3241,-284.8701 1940.824,-294.8701 1944.3241,-284.8701 1937.3241,-284.8701"/>
</g>
<!-- HeaderComponent -->
<g id="node2" class="node">
<title>HeaderComponent</title>
<polygon fill="#ffffb3" stroke="#000000" points="770.7437,-263 649.2563,-263 649.2563,-227 770.7437,-227 770.7437,-263"/>
<text text-anchor="middle" x="710" y="-240.8" font-family="Times,serif" font-size="14.00" fill="#000000">HeaderComponent</text>
</g>
<!-- HeaderComponent&#45;&gt;AppModule -->
<g id="edge2" class="edge">
<title>HeaderComponent&#45;&gt;AppModule</title>
<path fill="none" stroke="#000000" d="M730.2906,-263.027C730.2906,-279.3976 730.2906,-301 730.2906,-301 730.2906,-301 624.738,-301 624.738,-301"/>
<polygon fill="#000000" stroke="#000000" points="624.7381,-297.5001 614.738,-301 624.738,-304.5001 624.7381,-297.5001"/>
</g>
<!-- HeaderComponent&#45;&gt;Team1Module -->
<g id="edge14" class="edge">
<title>HeaderComponent&#45;&gt;Team1Module</title>
<path fill="none" stroke="#000000" d="M689.7094,-263.1274C689.7094,-273.7109 689.7094,-285 689.7094,-285 689.7094,-285 1916.6305,-285 1916.6305,-285 1916.6305,-285 1916.6305,-285.9793 1916.6305,-285.9793"/>
<polygon fill="#000000" stroke="#000000" points="1913.1306,-284.793 1916.6305,-294.793 1920.1306,-284.7931 1913.1306,-284.793"/>
</g>
<!-- HomeComponent -->
<g id="node3" class="node">
<title>HomeComponent</title>
<polygon fill="#ffffb3" stroke="#000000" points="630.5451,-263 515.4549,-263 515.4549,-227 630.5451,-227 630.5451,-263"/>
<text text-anchor="middle" x="573" y="-240.8" font-family="Times,serif" font-size="14.00" fill="#000000">HomeComponent</text>
</g>
<!-- HomeComponent&#45;&gt;AppModule -->
<g id="edge3" class="edge">
<title>HomeComponent&#45;&gt;AppModule</title>
<path fill="none" stroke="#000000" d="M573,-263.2228C573,-263.2228 573,-284.7269 573,-284.7269"/>
<polygon fill="#000000" stroke="#000000" points="569.5001,-284.7269 573,-294.7269 576.5001,-284.727 569.5001,-284.7269"/>
</g>
<!-- ManageComponent -->
<g id="node4" class="node">
<title>ManageComponent</title>
<polygon fill="#ffffb3" stroke="#000000" points="497.4215,-263 370.5785,-263 370.5785,-227 497.4215,-227 497.4215,-263"/>
<text text-anchor="middle" x="434" y="-240.8" font-family="Times,serif" font-size="14.00" fill="#000000">ManageComponent</text>
</g>
<!-- ManageComponent&#45;&gt;AppModule -->
<g id="edge4" class="edge">
<title>ManageComponent&#45;&gt;AppModule</title>
<path fill="none" stroke="#000000" d="M434,-263.2228C434,-283.3652 434,-313 434,-313 434,-313 521.2954,-313 521.2954,-313"/>
<polygon fill="#000000" stroke="#000000" points="521.2955,-316.5001 531.2954,-313 521.2954,-309.5001 521.2955,-316.5001"/>
</g>
<!-- AppRoutingModule -->
<g id="node6" class="node">
<title>AppRoutingModule</title>
<polygon fill="#8dd3c7" stroke="#000000" points="1163.2744,-198 1160.2744,-202 1139.2744,-202 1136.2744,-198 1034.7256,-198 1034.7256,-162 1163.2744,-162 1163.2744,-198"/>
<text text-anchor="middle" x="1099" y="-175.8" font-family="Times,serif" font-size="14.00" fill="#000000">AppRoutingModule</text>
</g>
<!-- AppRoutingModule&#45;&gt;AppModule -->
<g id="edge5" class="edge">
<title>AppRoutingModule&#45;&gt;AppModule</title>
<path fill="none" stroke="#000000" d="M1052.7549,-198.1718C1052.7549,-235.8494 1052.7549,-319 1052.7549,-319 1052.7549,-319 624.7358,-319 624.7358,-319"/>
<polygon fill="#000000" stroke="#000000" points="624.7359,-315.5001 614.7358,-319 624.7358,-322.5001 624.7359,-315.5001"/>
</g>
<!-- AppRoutingModule&#45;&gt;Team1Module -->
<g id="edge15" class="edge">
<title>AppRoutingModule&#45;&gt;Team1Module</title>
<path fill="none" stroke="#000000" d="M1163.3846,-180C1364.0862,-180 1965.0176,-180 1965.0176,-180 1965.0176,-180 1965.0176,-284.7858 1965.0176,-284.7858"/>
<polygon fill="#000000" stroke="#000000" points="1961.5176,-284.7858 1965.0176,-294.7858 1968.5176,-284.7858 1961.5176,-284.7858"/>
</g>
<!-- BatchModule -->
<g id="node7" class="node">
<title>BatchModule</title>
<polygon fill="#8dd3c7" stroke="#000000" points="1163.2064,-263 1160.2064,-267 1139.2064,-267 1136.2064,-263 1070.7936,-263 1070.7936,-227 1163.2064,-227 1163.2064,-263"/>
<text text-anchor="middle" x="1117" y="-240.8" font-family="Times,serif" font-size="14.00" fill="#000000">BatchModule</text>
</g>
<!-- BatchModule&#45;&gt;AppModule -->
<g id="edge6" class="edge">
<title>BatchModule&#45;&gt;AppModule</title>
<path fill="none" stroke="#000000" d="M1117,-263.1532C1117,-286.7566 1117,-325 1117,-325 1117,-325 624.7835,-325 624.7835,-325"/>
<polygon fill="#000000" stroke="#000000" points="624.7835,-321.5001 614.7835,-325 624.7834,-328.5001 624.7835,-321.5001"/>
</g>
<!-- BatchModalComponent  -->
<g id="node11" class="node">
<title>BatchModalComponent </title>
<polygon fill="#fb8072" stroke="#000000" points="1523.0386,-331 1368.9614,-331 1368.9614,-295 1523.0386,-295 1523.0386,-331"/>
<text text-anchor="middle" x="1446" y="-308.8" font-family="Times,serif" font-size="14.00" fill="#000000">BatchModalComponent </text>
</g>
<!-- BatchModule&#45;&gt;BatchModalComponent  -->
<g id="edge11" class="edge">
<title>BatchModule&#45;&gt;BatchModalComponent </title>
<path fill="none" stroke="#000000" stroke-dasharray="5,2" d="M1163.108,-249C1239.3698,-249 1383.4511,-249 1383.4511,-249 1383.4511,-249 1383.4511,-284.8314 1383.4511,-284.8314"/>
<polygon fill="#000000" stroke="#000000" points="1379.9512,-284.8313 1383.4511,-294.8314 1386.9512,-284.8314 1379.9512,-284.8313"/>
</g>
<!-- BatchViewComponent  -->
<g id="node12" class="node">
<title>BatchViewComponent </title>
<polygon fill="#fb8072" stroke="#000000" points="1350.8073,-331 1203.1927,-331 1203.1927,-295 1350.8073,-295 1350.8073,-331"/>
<text text-anchor="middle" x="1277" y="-308.8" font-family="Times,serif" font-size="14.00" fill="#000000">BatchViewComponent </text>
</g>
<!-- BatchModule&#45;&gt;BatchViewComponent  -->
<g id="edge12" class="edge">
<title>BatchModule&#45;&gt;BatchViewComponent </title>
<path fill="none" stroke="#000000" stroke-dasharray="5,2" d="M1163.189,-256C1187.2013,-256 1211.5949,-256 1211.5949,-256 1211.5949,-256 1211.5949,-284.9648 1211.5949,-284.9648"/>
<polygon fill="#000000" stroke="#000000" points="1208.0949,-284.9648 1211.5949,-294.9648 1215.0949,-284.9649 1208.0949,-284.9648"/>
</g>
<!-- UserModule -->
<g id="node8" class="node">
<title>UserModule</title>
<polygon fill="#8dd3c7" stroke="#000000" points="1016.9762,-198 1013.9762,-202 992.9762,-202 989.9762,-198 931.0238,-198 931.0238,-162 1016.9762,-162 1016.9762,-198"/>
<text text-anchor="middle" x="974" y="-175.8" font-family="Times,serif" font-size="14.00" fill="#000000">UserModule</text>
</g>
<!-- UserModule&#45;&gt;AppModule -->
<g id="edge7" class="edge">
<title>UserModule&#45;&gt;AppModule</title>
<path fill="none" stroke="#000000" d="M959.6706,-198.2142C959.6706,-234.6396 959.6706,-313 959.6706,-313 959.6706,-313 624.7479,-313 624.7479,-313"/>
<polygon fill="#000000" stroke="#000000" points="624.748,-309.5001 614.7479,-313 624.7479,-316.5001 624.748,-309.5001"/>
</g>
<!-- UserModule&#45;&gt;BatchModule -->
<g id="edge10" class="edge">
<title>UserModule&#45;&gt;BatchModule</title>
<path fill="none" stroke="#000000" d="M988.3294,-198.1061C988.3294,-217.3391 988.3294,-245 988.3294,-245 988.3294,-245 1060.5469,-245 1060.5469,-245"/>
<polygon fill="#000000" stroke="#000000" points="1060.547,-248.5001 1070.5469,-245 1060.5469,-241.5001 1060.547,-248.5001"/>
</g>
<!-- AddTraineeComponent  -->
<g id="node22" class="node">
<title>AddTraineeComponent </title>
<polygon fill="#fb8072" stroke="#000000" points="501.6869,-122 350.3131,-122 350.3131,-86 501.6869,-86 501.6869,-122"/>
<text text-anchor="middle" x="426" y="-99.8" font-family="Times,serif" font-size="14.00" fill="#000000">AddTraineeComponent </text>
</g>
<!-- UserModule&#45;&gt;AddTraineeComponent  -->
<g id="edge24" class="edge">
<title>UserModule&#45;&gt;AddTraineeComponent </title>
<path fill="none" stroke="#000000" stroke-dasharray="5,2" d="M930.7224,-180C802.5824,-180 434,-180 434,-180 434,-180 434,-132.0109 434,-132.0109"/>
<polygon fill="#000000" stroke="#000000" points="437.5001,-132.0109 434,-122.0109 430.5001,-132.011 437.5001,-132.0109"/>
</g>
<!-- DeleteTraineeComponent  -->
<g id="node23" class="node">
<title>DeleteTraineeComponent </title>
<polygon fill="#fb8072" stroke="#000000" points="332.1116,-122 167.8884,-122 167.8884,-86 332.1116,-86 332.1116,-122"/>
<text text-anchor="middle" x="250" y="-99.8" font-family="Times,serif" font-size="14.00" fill="#000000">DeleteTraineeComponent </text>
</g>
<!-- UserModule&#45;&gt;DeleteTraineeComponent  -->
<g id="edge25" class="edge">
<title>UserModule&#45;&gt;DeleteTraineeComponent </title>
<path fill="none" stroke="#000000" stroke-dasharray="5,2" d="M930.8787,-186C775.0149,-186 250,-186 250,-186 250,-186 250,-132.1985 250,-132.1985"/>
<polygon fill="#000000" stroke="#000000" points="253.5001,-132.1984 250,-122.1985 246.5001,-132.1985 253.5001,-132.1984"/>
</g>
<!-- TraineeTogglePipe  -->
<g id="node24" class="node">
<title>TraineeTogglePipe </title>
<polygon fill="#fb8072" stroke="#000000" points="150.2934,-122 23.7066,-122 23.7066,-86 150.2934,-86 150.2934,-122"/>
<text text-anchor="middle" x="87" y="-99.8" font-family="Times,serif" font-size="14.00" fill="#000000">TraineeTogglePipe </text>
</g>
<!-- UserModule&#45;&gt;TraineeTogglePipe  -->
<g id="edge26" class="edge">
<title>UserModule&#45;&gt;TraineeTogglePipe </title>
<path fill="none" stroke="#000000" stroke-dasharray="5,2" d="M930.9184,-192C753.2856,-192 87,-192 87,-192 87,-192 87,-132.2337 87,-132.2337"/>
<polygon fill="#000000" stroke="#000000" points="90.5001,-132.2336 87,-122.2337 83.5001,-132.2337 90.5001,-132.2336"/>
</g>
<!-- UpdateTraineeComponent  -->
<g id="node25" class="node">
<title>UpdateTraineeComponent </title>
<polygon fill="#fb8072" stroke="#000000" points="870.0064,-122 701.9936,-122 701.9936,-86 870.0064,-86 870.0064,-122"/>
<text text-anchor="middle" x="786" y="-99.8" font-family="Times,serif" font-size="14.00" fill="#000000">UpdateTraineeComponent </text>
</g>
<!-- UserModule&#45;&gt;UpdateTraineeComponent  -->
<g id="edge27" class="edge">
<title>UserModule&#45;&gt;UpdateTraineeComponent </title>
<path fill="none" stroke="#000000" stroke-dasharray="5,2" d="M930.6547,-168C888.1005,-168 829.5314,-168 829.5314,-168 829.5314,-168 829.5314,-132.1686 829.5314,-132.1686"/>
<polygon fill="#000000" stroke="#000000" points="833.0315,-132.1686 829.5314,-122.1686 826.0315,-132.1687 833.0315,-132.1686"/>
</g>
<!-- ViewTraineesComponent  -->
<g id="node26" class="node">
<title>ViewTraineesComponent </title>
<polygon fill="#fb8072" stroke="#000000" points="683.8434,-122 520.1566,-122 520.1566,-86 683.8434,-86 683.8434,-122"/>
<text text-anchor="middle" x="602" y="-99.8" font-family="Times,serif" font-size="14.00" fill="#000000">ViewTraineesComponent </text>
</g>
<!-- UserModule&#45;&gt;ViewTraineesComponent  -->
<g id="edge28" class="edge">
<title>UserModule&#45;&gt;ViewTraineesComponent </title>
<path fill="none" stroke="#000000" stroke-dasharray="5,2" d="M930.9056,-174C846.2498,-174 666.3999,-174 666.3999,-174 666.3999,-174 666.3999,-132.0267 666.3999,-132.0267"/>
<polygon fill="#000000" stroke="#000000" points="669.9,-132.0267 666.3999,-122.0267 662.9,-132.0268 669.9,-132.0267"/>
</g>
<!-- BatchModalComponent -->
<g id="node9" class="node">
<title>BatchModalComponent</title>
<polygon fill="#ffffb3" stroke="#000000" points="1859.0393,-331 1708.9607,-331 1708.9607,-295 1859.0393,-295 1859.0393,-331"/>
<text text-anchor="middle" x="1784" y="-308.8" font-family="Times,serif" font-size="14.00" fill="#000000">BatchModalComponent</text>
</g>
<!-- BatchModalComponent&#45;&gt;BatchModule -->
<g id="edge8" class="edge">
<title>BatchModalComponent&#45;&gt;BatchModule</title>
<path fill="none" stroke="#000000" d="M1715.1887,-294.9092C1715.1887,-271.8672 1715.1887,-235 1715.1887,-235 1715.1887,-235 1173.4411,-235 1173.4411,-235"/>
<polygon fill="#000000" stroke="#000000" points="1173.4411,-231.5001 1163.4411,-235 1173.4411,-238.5001 1173.4411,-231.5001"/>
</g>
<!-- BatchViewComponent -->
<g id="node10" class="node">
<title>BatchViewComponent</title>
<polygon fill="#ffffb3" stroke="#000000" points="1691.3075,-331 1546.6925,-331 1546.6925,-295 1691.3075,-295 1691.3075,-331"/>
<text text-anchor="middle" x="1619" y="-308.8" font-family="Times,serif" font-size="14.00" fill="#000000">BatchViewComponent</text>
</g>
<!-- BatchViewComponent&#45;&gt;BatchModule -->
<g id="edge9" class="edge">
<title>BatchViewComponent&#45;&gt;BatchModule</title>
<path fill="none" stroke="#000000" d="M1563.5498,-294.7157C1563.5498,-273.6789 1563.5498,-242 1563.5498,-242 1563.5498,-242 1173.1068,-242 1173.1068,-242"/>
<polygon fill="#000000" stroke="#000000" points="1173.1068,-238.5001 1163.1068,-242 1173.1067,-245.5001 1173.1068,-238.5001"/>
</g>
<!-- FooterComponent  -->
<g id="node14" class="node">
<title>FooterComponent </title>
<polygon fill="#fb8072" stroke="#000000" points="2163.8814,-399 2042.1186,-399 2042.1186,-363 2163.8814,-363 2163.8814,-399"/>
<text text-anchor="middle" x="2103" y="-376.8" font-family="Times,serif" font-size="14.00" fill="#000000">FooterComponent </text>
</g>
<!-- Team1Module&#45;&gt;FooterComponent  -->
<g id="edge16" class="edge">
<title>Team1Module&#45;&gt;FooterComponent </title>
<path fill="none" stroke="#000000" stroke-dasharray="5,2" d="M1989.3477,-313C2037.3228,-313 2103,-313 2103,-313 2103,-313 2103,-352.7772 2103,-352.7772"/>
<polygon fill="#000000" stroke="#000000" points="2099.5001,-352.7772 2103,-362.7772 2106.5001,-352.7773 2099.5001,-352.7772"/>
</g>
<!-- HeaderComponent  -->
<g id="node15" class="node">
<title>HeaderComponent </title>
<polygon fill="#fb8072" stroke="#000000" points="2024.7436,-399 1899.2564,-399 1899.2564,-363 2024.7436,-363 2024.7436,-399"/>
<text text-anchor="middle" x="1962" y="-376.8" font-family="Times,serif" font-size="14.00" fill="#000000">HeaderComponent </text>
</g>
<!-- Team1Module&#45;&gt;HeaderComponent  -->
<g id="edge17" class="edge">
<title>Team1Module&#45;&gt;HeaderComponent </title>
<path fill="none" stroke="#000000" stroke-dasharray="5,2" d="M1944.2947,-331.2228C1944.2947,-331.2228 1944.2947,-352.7269 1944.2947,-352.7269"/>
<polygon fill="#000000" stroke="#000000" points="1940.7948,-352.7269 1944.2947,-362.7269 1947.7948,-352.727 1940.7948,-352.7269"/>
</g>
<!-- AddTraineeComponent -->
<g id="node16" class="node">
<title>AddTraineeComponent</title>
<polygon fill="#ffffb3" stroke="#000000" points="1220.1867,-122 1071.8133,-122 1071.8133,-86 1220.1867,-86 1220.1867,-122"/>
<text text-anchor="middle" x="1146" y="-99.8" font-family="Times,serif" font-size="14.00" fill="#000000">AddTraineeComponent</text>
</g>
<!-- AddTraineeComponent&#45;&gt;UserModule -->
<g id="edge18" class="edge">
<title>AddTraineeComponent&#45;&gt;UserModule</title>
<path fill="none" stroke="#000000" d="M1117.6469,-122.1686C1117.6469,-126.0459 1117.6469,-129 1117.6469,-129 1117.6469,-129 955.5765,-129 955.5765,-129 955.5765,-129 955.5765,-151.8757 955.5765,-151.8757"/>
<polygon fill="#000000" stroke="#000000" points="952.0766,-151.8757 955.5765,-161.8757 959.0766,-151.8757 952.0766,-151.8757"/>
</g>
<!-- DeleteTraineeComponent -->
<g id="node17" class="node">
<title>DeleteTraineeComponent</title>
<polygon fill="#ffffb3" stroke="#000000" points="1054.1121,-122 893.8879,-122 893.8879,-86 1054.1121,-86 1054.1121,-122"/>
<text text-anchor="middle" x="974" y="-99.8" font-family="Times,serif" font-size="14.00" fill="#000000">DeleteTraineeComponent</text>
</g>
<!-- DeleteTraineeComponent&#45;&gt;UserModule -->
<g id="edge19" class="edge">
<title>DeleteTraineeComponent&#45;&gt;UserModule</title>
<path fill="none" stroke="#000000" d="M943.2942,-122.0109C943.2942,-122.0109 943.2942,-151.855 943.2942,-151.855"/>
<polygon fill="#000000" stroke="#000000" points="939.7943,-151.8549 943.2942,-161.855 946.7943,-151.855 939.7943,-151.8549"/>
</g>
<!-- SwitchBatchComponent -->
<g id="node18" class="node">
<title>SwitchBatchComponent</title>
<polygon fill="#ffffb3" stroke="#000000" points="1892.3739,-122 1739.6261,-122 1739.6261,-86 1892.3739,-86 1892.3739,-122"/>
<text text-anchor="middle" x="1816" y="-99.8" font-family="Times,serif" font-size="14.00" fill="#000000">SwitchBatchComponent</text>
</g>
<!-- SwitchBatchComponent&#45;&gt;UserModule -->
<g id="edge20" class="edge">
<title>SwitchBatchComponent&#45;&gt;UserModule</title>
<path fill="none" stroke="#000000" d="M1799.4162,-122.1871C1799.4162,-137.1824 1799.4162,-156 1799.4162,-156 1799.4162,-156 1004.7058,-156 1004.7058,-156 1004.7058,-156 1004.7058,-156.581 1004.7058,-156.581"/>
<polygon fill="#000000" stroke="#000000" points="1001.206,-151.8097 1004.7058,-161.8097 1008.206,-151.8098 1001.206,-151.8097"/>
</g>
<!-- TraineeTogglePipe -->
<g id="node19" class="node">
<title>TraineeTogglePipe</title>
<polygon fill="#ffffb3" stroke="#000000" points="1721.7935,-122 1598.2065,-122 1598.2065,-86 1721.7935,-86 1721.7935,-122"/>
<text text-anchor="middle" x="1660" y="-99.8" font-family="Times,serif" font-size="14.00" fill="#000000">TraineeTogglePipe</text>
</g>
<!-- TraineeTogglePipe&#45;&gt;UserModule -->
<g id="edge21" class="edge">
<title>TraineeTogglePipe&#45;&gt;UserModule</title>
<path fill="none" stroke="#000000" d="M1644.7535,-122.0439C1644.7535,-134.5633 1644.7535,-149 1644.7535,-149 1644.7535,-149 992.4235,-149 992.4235,-149 992.4235,-149 992.4235,-151.9672 992.4235,-151.9672"/>
<polygon fill="#000000" stroke="#000000" points="988.9236,-151.9671 992.4235,-161.9672 995.9236,-151.9672 988.9236,-151.9671"/>
</g>
<!-- UpdateTraineeComponent -->
<g id="node20" class="node">
<title>UpdateTraineeComponent</title>
<polygon fill="#ffffb3" stroke="#000000" points="1580.0071,-122 1415.9929,-122 1415.9929,-86 1580.0071,-86 1580.0071,-122"/>
<text text-anchor="middle" x="1498" y="-99.8" font-family="Times,serif" font-size="14.00" fill="#000000">UpdateTraineeComponent</text>
</g>
<!-- UpdateTraineeComponent&#45;&gt;UserModule -->
<g id="edge22" class="edge">
<title>UpdateTraineeComponent&#45;&gt;UserModule</title>
<path fill="none" stroke="#000000" d="M1469.3831,-122.1097C1469.3831,-131.897 1469.3831,-142 1469.3831,-142 1469.3831,-142 980.1412,-142 980.1412,-142 980.1412,-142 980.1412,-151.8903 980.1412,-151.8903"/>
<polygon fill="#000000" stroke="#000000" points="976.6413,-151.8903 980.1412,-161.8903 983.6413,-151.8904 976.6413,-151.8903"/>
</g>
<!-- ViewTraineesComponent -->
<g id="node21" class="node">
<title>ViewTraineesComponent</title>
<polygon fill="#ffffb3" stroke="#000000" points="1397.8431,-122 1238.1569,-122 1238.1569,-86 1397.8431,-86 1397.8431,-122"/>
<text text-anchor="middle" x="1318" y="-99.8" font-family="Times,serif" font-size="14.00" fill="#000000">ViewTraineesComponent</text>
</g>
<!-- ViewTraineesComponent&#45;&gt;UserModule -->
<g id="edge23" class="edge">
<title>ViewTraineesComponent&#45;&gt;UserModule</title>
<path fill="none" stroke="#000000" d="M1294.4911,-122.2434C1294.4911,-129.4297 1294.4911,-136 1294.4911,-136 1294.4911,-136 967.8588,-136 967.8588,-136 967.8588,-136 967.8588,-151.8495 967.8588,-151.8495"/>
<polygon fill="#000000" stroke="#000000" points="964.3589,-151.8494 967.8588,-161.8495 971.3589,-151.8495 964.3589,-151.8494"/>
</g>
</g>
</svg>
